<?xml version="1.0" standalone="no"?>
<!DOCTYPE svg PUBLIC "-//W3C//DTD SVG 1.1//EN" "http://www.w3.org/Graphics/SVG/1.1/DTD/svg11.dtd" >
<svg xmlns="http://www.w3.org/2000/svg">
<metadata></metadata>
<defs>
<font id="cuprumbold_italic" horiz-adv-x="972" >
<font-face units-per-em="2048" ascent="1638" descent="-410" />
<missing-glyph horiz-adv-x="512" />
<glyph horiz-adv-x="2048" />
<glyph horiz-adv-x="2048" />
<glyph unicode="&#xd;" horiz-adv-x="681" />
<glyph unicode=" "  horiz-adv-x="512" />
<glyph unicode="&#x09;" horiz-adv-x="512" />
<glyph unicode="&#xa0;" horiz-adv-x="512" />
<glyph unicode="!" horiz-adv-x="532" d="M139 -20l43 245h246l-43 -245h-246zM229 379l146 1055h287l-228 -1055h-205z" />
<glyph unicode="&#x22;" horiz-adv-x="757" d="M299 952l35 482h246l-138 -482h-143zM647 952l35 482h246l-137 -482h-144z" />
<glyph unicode="#" horiz-adv-x="1208" d="M111 399l28 164h213l101 307h-199l31 164h225l131 400h236l-132 -400h185l131 400h235l-131 -400h185l-31 -164h-213l-100 -307h198l-28 -164h-226l-131 -399h-235l131 399h-185l-131 -399h-235l131 399h-184zM565 563h228l100 307h-227z" />
<glyph unicode="$" horiz-adv-x="952" d="M74 20l20 113h287h26.5t24.5 2l88 496q-55 29 -111.5 61.5t-97.5 83.5t-59 124.5t0 184.5q29 154 132 251.5t280 113.5l30 168h144l-29 -166q82 -4 147.5 -15.5t100.5 -23.5l-21 -113h-256l-86 -497q55 -29 109.5 -61.5t94.5 -81t57.5 -118t-1.5 -173.5 q-29 -156 -124 -252.5t-279 -124.5l-31 -176h-143l29 164h-11q-109 0 -192.5 12t-128.5 28zM498 1085q-12 -72 7 -118.5t60 -81.5l68 391q-110 -54 -135 -191zM582 174q53 29 84 78t43 117q10 63 -7.5 106t-52.5 76z" />
<glyph unicode="%" horiz-adv-x="1474" d="M215 0l1051 1434h245l-1050 -1434h-246zM252 1147q25 139 125.5 223t247.5 84t216.5 -84t45.5 -223q-25 -139 -124 -223t-247 -84q-147 0 -218 84t-46 223zM457 1147q-14 -86 11.5 -125t72.5 -39t87 39t54 125q16 86 -10.5 125t-73.5 39t-86 -39t-55 -125zM838 287 q25 139 125 223t247 84t217 -84t46 -223q-25 -139 -124.5 -223t-246.5 -84t-218 83.5t-46 223.5zM1042 287q-16 -86 10.5 -125t73.5 -39t86 39t56 125q16 86 -10.5 125t-73.5 39t-86 -39t-56 -125z" />
<glyph unicode="&#x26;" horiz-adv-x="1116" d="M135 369q16 92 44 176t52 131h195l-55 -307q-12 -74 -7 -119t20 -71.5t37.5 -36t41.5 -9.5q47 0 98 47t101 148q-78 145 -128.5 253.5t-77 194.5t-30.5 159t10 150q14 84 52 153t96.5 117t133.5 73.5t163 25.5q109 0 192.5 -12t126.5 -29l-20 -113h-287q-35 0 -68.5 -15 t-62.5 -43t-50.5 -68t-29.5 -89q-10 -53 -11 -104t10 -112.5t37.5 -135.5t76.5 -170l133 236h246l-265 -451l187 -348h-267l-73 139q-66 -80 -140.5 -119.5t-189.5 -39.5q-162 0 -243 101t-48 288z" />
<glyph unicode="'" horiz-adv-x="409" d="M299 952l35 482h246l-138 -482h-143z" />
<glyph unicode="(" horiz-adv-x="544" d="M180 353q4 120 23 220q18 100 55 220t98.5 246t146.5 254t197 243l103 -61q-66 -109 -117 -213.5t-92 -214t-71.5 -226.5t-53.5 -248t-34 -247.5t-9 -226t16.5 -215t42.5 -212.5l-125 -61q-72 115 -112.5 243t-56 253.5t-11.5 245.5z" />
<glyph unicode=")" horiz-adv-x="544" d="M-57 -328q66 106 117 212t92 215.5t71 226t53 247.5t34.5 248t9 226.5t-17.5 214t-44 213.5l127 61q72 -115 112 -243t56 -254t12 -245.5t-22 -220.5q-18 -100 -56 -220t-98.5 -245.5t-145.5 -253.5t-198 -243z" />
<glyph unicode="*" horiz-adv-x="921" d="M221 1024l78 188l262 -59l49 281h205l-49 -281l283 59l12 -188l-254 -53l84 -240l-193 -96l-84 242l-170 -242l-159 96l170 240z" />
<glyph unicode="+" horiz-adv-x="921" d="M154 532l28 164h307l62 348h184l-61 -348h307l-29 -164h-307l-61 -348h-185l62 348h-307z" />
<glyph unicode="," horiz-adv-x="399" d="M37 -246l84 471h246l-166 -471h-164z" />
<glyph unicode="-" horiz-adv-x="778" d="M154 532l28 164h656l-29 -164h-655z" />
<glyph unicode="." horiz-adv-x="409" d="M78 -20l43 245h246l-43 -245h-246z" />
<glyph unicode="/" horiz-adv-x="860" d="M0 0l866 1434h246l-866 -1434h-246z" />
<glyph unicode="0" horiz-adv-x="1085" d="M188.5 368.5q-8.5 141.5 28.5 348.5t95.5 348t133 227t163.5 124t190 38q100 0 176 -38t120 -124t52 -227t-29 -348t-94 -348.5t-132 -227.5t-164 -123.5t-189 -37.5t-176 37.5t-121 123.5t-53.5 227.5zM430 421q-2 -116 16.5 -181.5t50 -91t66.5 -25.5t76 25.5t82 91 t80.5 181.5t70.5 296q33 180 34 295.5t-17.5 181.5t-50 91.5t-66.5 25.5t-75 -25.5t-82 -91.5t-80.5 -181.5t-71.5 -295.5q-31 -180 -33 -296z" />
<glyph unicode="1" horiz-adv-x="624" d="M236 0l223 1270h-215l20 123q49 16 138.5 28.5t197.5 12.5h133l-252 -1434h-245z" />
<glyph unicode="2" horiz-adv-x="860" d="M31 0l30 184q166 158 286 276t201 214t125 179t60 171q25 147 -21 211.5t-147 64.5h-286l20 113q49 16 138 28.5t198 12.5q418 0 344 -430q-16 -96 -75.5 -196.5t-149.5 -207t-205 -220t-244 -236.5h512l-29 -164h-757z" />
<glyph unicode="3" horiz-adv-x="890" d="M33 20l20 113h287q256 0 301 256q27 147 -24.5 213t-182.5 66h-164l29 161h143q236 0 279 246q18 109 -29 167t-147 58h-266l20 113q49 16 138 28.5t198 12.5q193 0 277.5 -100.5t54.5 -278.5q-20 -117 -89 -193.5t-161 -119.5l-2 -8q51 -18 88 -54t59.5 -84.5 t28.5 -106.5t-4 -120q-35 -201 -164 -305t-369 -104q-109 0 -192.5 12t-128.5 28z" />
<glyph unicode="4" horiz-adv-x="993" d="M111 348l32 184l672 902h266l-161 -922h112l-31 -164h-112l-60 -348h-245l59 348h-532zM367 512h307l96 553h-8z" />
<glyph unicode="5" horiz-adv-x="952" d="M94 20l21 113h286q131 0 205 64.5t101 212.5q27 154 -24.5 220t-182.5 66h-267l132 738h716l-26 -154h-471l-76 -430h61q240 0 331 -108.5t52 -331.5q-39 -217 -168 -323.5t-368 -106.5q-109 0 -193 12t-129 28z" />
<glyph unicode="6" d="M164 410l80 450q53 307 193 450.5t341 143.5q109 0 193 -12t127 -29l-21 -113h-266q-53 0 -102.5 -21.5t-90 -74.5t-74.5 -141t-59 -223q49 16 104.5 23t94.5 7q176 0 258 -110.5t43 -339.5q-41 -223 -164 -331.5t-323 -108.5q-201 0 -287 106.5t-47 323.5zM398.5 277.5 q2.5 -54.5 19 -88t43 -50t61.5 -16.5q70 0 129.5 67.5t87.5 229.5q14 84 14.5 142.5t-20 95t-60.5 53t-106 16.5h-102l-55 -317q-14 -78 -11.5 -132.5z" />
<glyph unicode="7" horiz-adv-x="880" d="M215 0q96 291 243.5 603t348.5 667h-543l29 164h778l-33 -185q-100 -176 -184 -338.5t-155.5 -316.5t-130 -301.5t-107.5 -292.5h-246z" />
<glyph unicode="8" horiz-adv-x="1024" d="M135 369q12 74 45 134t78 106t99.5 79t111.5 55v9q-41 14 -78 41.5t-62.5 70.5t-35.5 100.5t2 131.5q29 162 150.5 260t322.5 98t288 -98.5t58 -259.5q-12 -74 -44 -131.5t-73 -100.5t-88 -70.5t-92 -41.5v-9q49 -23 92 -55.5t71 -78.5t38 -106.5t-2 -133.5 q-33 -186 -159 -287.5t-349 -101.5t-314.5 101t-58.5 288zM381 369q-23 -123 21 -184.5t130 -61.5t151 61.5t87 184.5q10 57 3 100t-26.5 77t-50 60.5t-69.5 48.5q-47 -23 -87 -49t-72 -60t-54.5 -77t-32.5 -100zM541 1096q-20 -109 16 -171t102 -87q72 25 130.5 87 t78.5 171q16 100 -24.5 157.5t-102.5 57.5q-31 0 -62.5 -15.5t-59 -43t-49 -67.5t-29.5 -89z" />
<glyph unicode="9" d="M125 20l20 113h267q53 0 102 21.5t91 75t76 141.5t58 223q-49 -16 -105 -23.5t-95 -7.5q-178 0 -259 109.5t-40 341.5q39 223 162.5 331.5t324.5 108.5t286 -106.5t48 -323.5l-80 -451q-53 -307 -194.5 -450t-340.5 -143q-109 0 -192.5 12t-128.5 28zM470 871.5 q1 -58.5 20.5 -95.5t59.5 -53t105 -16h103l57 317q27 154 -9 220.5t-106 66.5t-128 -67.5t-87 -229.5q-16 -84 -15 -142.5z" />
<glyph unicode=":" horiz-adv-x="409" d="M78 -20l43 245h246l-43 -245h-246zM219 778l43 246h246l-43 -246h-246z" />
<glyph unicode=";" horiz-adv-x="389" d="M37 -246l84 471h246l-166 -471h-164zM219 778l43 246h246l-43 -246h-246z" />
<glyph unicode="&#x3c;" horiz-adv-x="829" d="M154 410l36 215l738 399l-43 -246l-475 -252l-2 -10l385 -260l-45 -246z" />
<glyph unicode="=" horiz-adv-x="921" d="M121 348l31 174h798l-30 -174h-799zM184 707l31 174h799l-31 -174h-799z" />
<glyph unicode="&#x3e;" horiz-adv-x="829" d="M82 10l45 246l475 260l2 10l-385 252l43 246l594 -399l-37 -215z" />
<glyph unicode="?" horiz-adv-x="808" d="M190 -20l43 245h246l-43 -245h-246zM248 1300l20 113q49 16 138.5 28.5t197.5 12.5q193 0 278 -101.5t52 -287.5q-16 -86 -50 -150.5t-77 -115.5t-92 -95.5t-94.5 -92.5t-81 -103t-54.5 -129h-204q16 94 50 161.5t74.5 121t86 95.5t84 87t69.5 97t43 124q20 117 -27 176 t-147 59h-266z" />
<glyph unicode="@" horiz-adv-x="1740" d="M203 635q72 401 311.5 610t601.5 209q188 0 325.5 -51t222.5 -144.5t113.5 -223.5t2.5 -287q-27 -150 -78 -256.5t-133 -175t-199 -100.5t-274 -32l-19 62h-10q-47 -39 -98 -60.5t-121 -21.5q-66 0 -122 27.5t-93 83t-51.5 140.5t6.5 199q45 260 178 376t371 116 q86 0 165.5 -12.5t122.5 -28.5l-131 -748q35 0 72 19.5t70.5 69t64.5 132.5t53 210q47 270 -73.5 416.5t-390.5 146.5q-254 0 -426 -162t-236 -514q-61 -346 66 -506t442 -160h287l-21 -112q-49 -16 -137 -28.5t-197 -12.5q-393 0 -565 208.5t-100 610.5zM823.5 472 q3.5 -58 19 -95t40 -53.5t51.5 -16.5q39 0 70.5 12.5t48.5 28.5l108 615h-51q-49 0 -92 -17.5t-78 -57.5t-61.5 -106.5t-44.5 -167.5q-14 -84 -10.5 -142z" />
<glyph unicode="A" horiz-adv-x="1105" d="M31 0l620 1434h307l117 -1434h-256l-28 358h-353l-151 -358h-256zM500 522h284l-32 584h-9z" />
<glyph unicode="B" horiz-adv-x="1085" d="M145 20l246 1393q82 23 166 32t201 9q231 0 322 -100q68 -76 68 -195q0 -39 -7 -84q-16 -92 -82 -176t-166 -127l-2 -8q117 -44 166 -140q32 -64 32 -146q0 -42 -8 -89q-35 -201 -171 -305t-412 -104q-117 0 -198 9t-155 31zM412 133h112q131 0 205 63.5t98 202.5 q9 51 9 92q0 78 -33 120q-51 65 -182 65h-113zM535 829h92q100 0 167.5 59.5t88.5 176.5q6 35 6 65q0 70 -33 111q-47 59 -147 59h-93z" />
<glyph unicode="C" horiz-adv-x="931" d="M185 360q-1 17 -1 34q0 133 33 323q39 215 94.5 357.5t129 226t165.5 118.5t203 35q109 0 192.5 -12t126.5 -29l-20 -113h-246q-66 0 -125 -26.5t-109 -92t-92 -179t-73 -285.5q-28 -157 -29 -265q0 -11 1 -21q3 -114 33 -179.5t83 -92t127 -26.5h246l-21 -113 q-47 -16 -136 -28t-198 -12q-119 0 -202.5 34.5t-130 119t-51.5 226.5z" />
<glyph unicode="D" horiz-adv-x="1116" d="M145 20l246 1393q82 23 166 32t201 9q127 0 218 -38t141 -124q49 -86 59 -227q2 -29 2 -60q0 -123 -29 -288q-37 -207 -95.5 -348.5t-140.5 -227.5t-185 -123.5t-230 -37.5q-117 0 -198 9t-155 31zM412 133h112q61 0 116.5 26.5t104 92t88 179.5t70.5 286t31 285.5 t-25.5 179t-71.5 92t-108 26.5h-113z" />
<glyph unicode="E" d="M143 0l252 1434h748l-29 -164h-502l-77 -441h440l-29 -163h-440l-88 -502h502l-29 -164h-748z" />
<glyph unicode="F" horiz-adv-x="931" d="M143 0l252 1434h748l-29 -164h-502l-84 -471h420l-28 -164h-420l-111 -635h-246z" />
<glyph unicode="G" horiz-adv-x="1075" d="M186 360v44q0 130 31 313q39 215 94.5 357.5t131 226t172 118.5t214.5 35q109 0 193 -12t127 -29l-21 -113h-266q-66 0 -125 -26.5t-109 -92t-92 -179t-73 -285.5q-28 -157 -28 -265v-21q3 -114 33 -179.5t83 -92t127 -26.5h51l115 645h246l-136 -758q-47 -16 -137 -28 t-207 -12q-135 0 -227 34.5t-141 118.5t-56 227z" />
<glyph unicode="H" horiz-adv-x="1146" d="M143 0l252 1434h246l-111 -625h369l111 625h245l-251 -1434h-246l112 645h-368l-113 -645h-246z" />
<glyph unicode="I" horiz-adv-x="532" d="M143 0l252 1434h246l-252 -1434h-246z" />
<glyph unicode="J" horiz-adv-x="768" d="M2 20l21 113h204q43 0 81 17.5t72 58.5t60.5 109.5t44.5 173.5l166 942h246l-166 -942q-49 -276 -178 -394t-352 -118q-61 0 -111.5 12t-87.5 28z" />
<glyph unicode="K" horiz-adv-x="1064" d="M143 0l252 1434h246l-115 -656l453 656h276l-503 -707l292 -727h-276l-260 676l-119 -676h-246z" />
<glyph unicode="L" horiz-adv-x="911" d="M143 0l252 1434h246l-223 -1270h502l-29 -164h-748z" />
<glyph unicode="M" horiz-adv-x="1556" d="M102 0l334 1434h266l152 -973h8l496 973h266l-170 -1434h-235l114 971h-8l-405 -797h-226l-123 797h-8l-225 -971h-236z" />
<glyph unicode="N" horiz-adv-x="1167" d="M143 0l252 1434h246l223 -942h10l166 942h236l-252 -1434h-246l-223 942h-10l-166 -942h-236z" />
<glyph unicode="O" horiz-adv-x="1126" d="M190 368q-2 29 -2 61q0 123 29 288q37 207 95.5 348t135 227t169.5 124t202 38q106 0 187 -38t127.5 -124t54.5 -227q1 -25 1 -52q0 -126 -30 -296q-37 -207 -94 -348.5t-134 -227.5t-171 -123.5t-201 -37.5q-109 0 -188.5 37.5t-125 123t-55.5 227.5zM431 426v-11 q-1 -107 19 -171q20 -68 55.5 -94.5t78.5 -26.5t88 26.5t88 94t83 182.5t70 291q31 177 32 291v11q-1 107 -19 171q-20 68 -55 94.5t-78 26.5t-88.5 -27t-88.5 -94.5t-82.5 -182t-70.5 -290.5t-32 -291z" />
<glyph unicode="P" horiz-adv-x="1054" d="M143 0l248 1413q82 23 166 32t201 9q127 0 213 -28.5t133 -89.5q46 -62 58 -160q4 -31 4 -65q0 -75 -17 -169q-27 -145 -71 -246.5t-108.5 -165t-147.5 -92t-187 -28.5q-12 0 -32.5 2t-45.5 5t-49.5 6t-42.5 7l-76 -430h-246zM489 573h113q57 0 104.5 17.5t84 59.5 t65.5 113t47 179q15 85 15 147q0 14 -1 26q-4 69 -26.5 110t-63.5 58t-98 17h-113z" />
<glyph unicode="Q" horiz-adv-x="1136" d="M190 368q-2 29 -2 61q0 123 29 288q37 207 95.5 348t135 227t169.5 124t202 38q106 0 187 -38t127.5 -124t54.5 -227q1 -25 1 -52q0 -126 -30 -296q-41 -231 -111.5 -373.5t-146.5 -220.5q92 0 143.5 -12.5t96.5 -28.5l-19 -102h-563q-109 0 -188.5 37.5t-125.5 123.5 t-55 227zM431 417q1 -116 21.5 -181.5t56.5 -89t75 -23.5q43 0 88 26.5t88 94t83 182.5t70 291q31 176 32 291v11q0 106 -19 171q-19 67 -54.5 94t-78.5 27t-88.5 -27t-88.5 -94.5t-82.5 -182t-70.5 -290.5q-32 -179 -32 -293v-7z" />
<glyph unicode="R" horiz-adv-x="1095" d="M143 0l248 1413q82 23 166 32t201 9q254 0 346 -116q62 -78 61 -220q0 -70 -14 -155q-18 -104 -47 -179t-68 -127.5t-87 -87t-101 -57.5l186 -512h-276l-156 461h-133l-80 -461h-246zM498 625h112q57 0 104.5 16t84.5 56t63.5 104.5t42.5 161.5q13 81 13 139v22 q-3 64 -26.5 104t-64.5 56t-98 16h-113z" />
<glyph unicode="S" horiz-adv-x="952" d="M74 20l20 113h287q154 0 230.5 59.5t97.5 176.5q4 23 4 43q1 35 -11 63q-18 43 -53 75t-83 56.5t-98 51t-96 60.5t-79 83t-45 117q-5 29 -5 65q0 46 9 102q29 170 152.5 269.5t332.5 99.5q109 0 193 -12t127 -29l-21 -113h-286q-100 0 -168 -57t-84 -158q-5 -29 -5 -54 q1 -53 23 -89q34 -53 92 -91t127.5 -70.5t126.5 -82.5q56 -52 86 -128q17 -43 16 -101q0 -45 -10 -100q-33 -184 -166 -286.5t-393 -102.5q-109 0 -192.5 12t-128.5 28z" />
<glyph unicode="T" horiz-adv-x="921" d="M244 1270l28 164h881l-29 -164h-317l-223 -1270h-246l223 1270h-317z" />
<glyph unicode="U" horiz-adv-x="1126" d="M209 492l166 942h246l-166 -942q-18 -106 -18 -176q-1 -73 19 -116q18 -42 51.5 -59.5t76.5 -17.5t80.5 17.5t71.5 59.5t61.5 112.5t46.5 179.5l166 942h245l-165 -942q-49 -276 -178.5 -394t-352.5 -118t-311 118q-57 75 -57 216q0 79 18 178z" />
<glyph unicode="V" horiz-adv-x="1064" d="M283 1434h256l45 -1117h8l438 1117h256l-600 -1434h-307z" />
<glyph unicode="W" horiz-adv-x="1536" d="M283 1434h256l-9 -1035h9l331 768h205l62 -768h8l356 1035h256l-508 -1434h-266l-72 799h-8l-350 -799h-266z" />
<glyph unicode="X" horiz-adv-x="1003" d="M20 0l426 737l-143 697h256l100 -533l289 533h256l-389 -697l168 -737h-256l-123 584l-328 -584h-256z" />
<glyph unicode="Y" horiz-adv-x="983" d="M262 1434h256l100 -686h9l342 686h256l-535 -1004l-76 -430h-245l75 430z" />
<glyph unicode="Z" horiz-adv-x="890" d="M41 0l27 154l729 1116h-523l29 164h799l-27 -154l-729 -1116h522l-28 -164h-799z" />
<glyph unicode="[" horiz-adv-x="583" d="M78 -369l332 1885h440l-25 -144h-194l-283 -1597h195l-25 -144h-440z" />
<glyph unicode="\" horiz-adv-x="860" d="M252 1434h246l362 -1434h-246z" />
<glyph unicode="]" horiz-adv-x="583" d="M-63 -369l24 144h193l282 1597h-194l24 144h441l-332 -1885h-438z" />
<glyph unicode="^" d="M223 922l408 512h215l227 -512l-194 -113l-174 410h-11l-317 -410z" />
<glyph unicode="_" horiz-adv-x="655" d="M-29 -164l29 164h655l-30 -164h-654z" />
<glyph unicode="`" horiz-adv-x="409" d="M293 1434h256l10 -349h-164z" />
<glyph unicode="a" horiz-adv-x="1003" d="M154 266q-2 24 -3 51q0 85 21 195q25 145 70 246.5t111.5 165t156.5 92t205 28.5q109 0 182.5 -15t144.5 -46l-172 -983h-174l-20 61h-10q-39 -31 -96.5 -56t-143.5 -25q-78 0 -136.5 28.5t-93 92t-42.5 165.5zM416 202q16 -44 47 -61.5t69 -17.5q39 0 71 12t50 29 l129 737h-92q-47 0 -87 -17.5t-74.5 -61.5t-62.5 -119.5t-48 -190.5q-20 -112 -20 -187q1 -78 18 -123z" />
<glyph unicode="b" horiz-adv-x="1013" d="M150 41l245 1393h246l-78 -441q37 23 83 37t99 14q84 0 147.5 -28.5t100.5 -92t45 -165.5q2 -26 3 -54q0 -84 -19 -192q-27 -145 -72 -246.5t-111.5 -165t-156.5 -92t-205 -28.5q-109 0 -182.5 15t-144.5 46zM410 123h92q45 0 86 17.5t75.5 61.5t63.5 119.5t49 190.5 q19 107 19 180q-1 4 -1 10q-2 76 -18 120t-47 61.5t-70 17.5t-70.5 -12t-47.5 -29z" />
<glyph unicode="c" horiz-adv-x="808" d="M154 266q-2 26 -2 55q0 83 20 191q25 145 69 246.5t107.5 165t144 92t181.5 28.5q78 0 147.5 -12t112.5 -28l-19 -103h-225q-47 0 -87 -17.5t-74.5 -61.5t-62.5 -119.5t-48 -190.5q-20 -112 -20 -187q0 -78 22 -123q22 -44 61 -61.5t92 -17.5h226l-19 -103 q-47 -16 -120.5 -28t-151.5 -12q-109 0 -183.5 28.5t-117.5 92t-53 165.5z" />
<glyph unicode="d" horiz-adv-x="1013" d="M154 266q-2 24 -3 51q0 85 21 195q25 145 69 246.5t102 165t132 92t158 28.5q53 0 95 -14t71 -37l78 441h245l-252 -1434h-174l-20 61h-10q-39 -31 -96.5 -56t-143.5 -25q-78 0 -136.5 28.5t-93 92t-42.5 165.5zM416 202q16 -44 47 -61.5t69 -17.5q39 0 67 12t54 29 l123 696q-14 16 -40.5 28.5t-65.5 12.5t-76 -17.5t-68.5 -61.5t-59.5 -119.5t-48 -190.5q-20 -112 -20 -187q1 -78 18 -123z" />
<glyph unicode="e" horiz-adv-x="952" d="M154 266q-2 26 -2 55q0 83 20 191q25 145 70 246.5t109.5 165t149.5 92t193 28.5q178 0 264 -85q66 -65 66 -167q0 -31 -6 -65q-29 -154 -144.5 -230.5t-308.5 -76.5h-164q-11 -59 -11 -106q0 -82 32 -124q50 -68 182 -67h225l-18 -103q-47 -16 -121 -28t-151 -12 q-119 0 -201 28.5t-128 92t-56 165.5zM426 563h164q70 0 119 43t63 121q5 30 5 56q1 51 -21 82q-32 46 -94 46q-43 0 -78 -14t-63.5 -52t-52.5 -106.5t-42 -175.5z" />
<glyph unicode="f" horiz-adv-x="696" d="M-211 -389l18 102h144q31 0 59.5 9.5t53 32t44 62.5t29.5 101l166 932h-113l27 154h113l14 81q18 106 56 175t87.5 107t109.5 52.5t126 14.5q31 0 65.5 -3.5t66.5 -9.5t59.5 -13t46.5 -15l-17 -103h-164q-31 0 -60.5 -9t-55 -31.5t-45 -62.5t-29.5 -102l-15 -81h277 l-21 -113q-49 -16 -121.5 -28.5t-150.5 -12.5h-10l-166 -932q-18 -109 -55 -176.5t-87.5 -105t-110.5 -52t-126 -14.5q-59 0 -119.5 12t-95.5 29z" />
<glyph unicode="g" horiz-adv-x="1003" d="M94 -389l19 102h225q115 0 187.5 71t103.5 247q-35 -23 -82 -37t-101 -14q-84 0 -147 28.5t-100 92t-45 165.5q-3 24 -3 51q0 85 21 195q25 145 70 246.5t111.5 165t156.5 92t205 28.5q109 0 182.5 -15t144.5 -46l-157 -901q-49 -276 -179.5 -394t-353.5 -118 q-78 0 -146.5 12t-111.5 29zM416 202q16 -44 47 -61.5t69 -17.5q39 0 71 12t50 29l129 737h-92q-47 0 -87 -17.5t-74.5 -61.5t-62.5 -119.5t-48 -190.5q-20 -112 -20 -187q0 -78 18 -123z" />
<glyph unicode="h" horiz-adv-x="1044" d="M143 0l252 1434h246l-80 -451q88 61 215 61q66 0 121 -13t92 -50t51 -101q6 -27 6 -61q0 -45 -10 -102l-125 -717h-245l125 717q5 29 5 52q0 20 -4 37q-8 36 -27.5 57.5t-47 29.5t-58.5 8q-39 0 -70.5 -12t-47.5 -29l-152 -860h-246z" />
<glyph unicode="i" horiz-adv-x="532" d="M143 0l181 1024h245l-180 -1024h-246zM344 1147l43 246h246l-43 -246h-246z" />
<glyph unicode="j" horiz-adv-x="542" d="M-190 -389l18 102h143q53 0 100.5 48.5t65.5 156.5l197 1106h246l-197 -1106q-18 -109 -55 -176.5t-87.5 -105t-110.5 -52t-126 -14.5q-59 0 -109.5 12t-84.5 29zM354 1147l43 246h246l-43 -246h-246z" />
<glyph unicode="k" horiz-adv-x="942" d="M143 0l252 1434h246l-149 -850l323 440h266l-362 -481l203 -543h-267l-178 502l-88 -502h-246z" />
<glyph unicode="l" horiz-adv-x="532" d="M143 0l252 1434h246l-252 -1434h-246z" />
<glyph unicode="m" horiz-adv-x="1515" d="M133 0l180 1024h174l19 -61h10q39 31 98.5 56t151.5 25q78 0 129 -21.5t82 -59.5q53 39 120.5 60t159.5 21q61 0 114.5 -13t89.5 -50q37 -37 51 -101q6 -27 5 -61q0 -45 -10 -102l-125 -717h-245l125 717q5 29 5 52q1 20 -3 37q-8 36 -26.5 57.5t-44.5 29.5t-52 8 q-39 0 -71 -9t-58 -22q4 -23 4 -64.5t-10 -88.5l-125 -717h-246l125 717q6 31 6 56q0 18 -3 33q-7 36 -24.5 57.5t-42 29.5t-47.5 8q-39 0 -70.5 -12t-48.5 -29l-151 -860h-246z" />
<glyph unicode="n" horiz-adv-x="1034" d="M133 0l180 1024h174l19 -61h10q39 31 98.5 56t151.5 25q66 0 121 -13t92 -50t51 -101q6 -28 7 -62q0 -45 -11 -101l-125 -717h-246l125 717q6 29 6 54q0 19 -4 35q-8 36 -27.5 57.5t-47 29.5t-58.5 8q-39 0 -70.5 -12t-48.5 -29l-151 -860h-246z" />
<glyph unicode="o" horiz-adv-x="983" d="M154 266q-2 26 -2 55q0 83 20 191q25 145 69 246.5t107.5 165t144.5 92t181 28.5t172 -28.5t112 -91.5q42 -64 50 -166q2 -26 2 -54q0 -84 -19 -192q-27 -145 -70.5 -246.5t-107 -165t-144.5 -92t-182 -28.5q-100 0 -171.5 28.5t-111.5 92t-50 165.5zM394 316v-10 q0 -72 14 -114q14 -46 40.5 -62.5t61.5 -16.5t67.5 17t63.5 62.5t56.5 123t47.5 196.5q19 118 21 196q0 7 1 15q1 69 -13 109q-14 46 -41 62.5t-62 16.5t-67.5 -17t-62 -62.5t-56.5 -123t-47 -196.5q-23 -118 -24 -196z" />
<glyph unicode="p" horiz-adv-x="1003" d="M59 -410l254 1434h174l19 -61h10q39 31 96.5 56t143.5 25q76 0 135 -28.5t95 -92t43 -165.5q2 -22 2 -48q0 -86 -19 -198q-27 -145 -71 -246.5t-102.5 -165t-132 -92t-157.5 -28.5q-53 0 -95 14t-71 37l-78 -441h-246zM408 164q12 -16 38.5 -28.5t65.5 -12.5t76 17.5 t69.5 61.5t60 119.5t48.5 190.5q18 105 18 176v14q-2 76 -18 120t-47 61.5t-70 17.5t-66.5 -12t-52.5 -29z" />
<glyph unicode="q" horiz-adv-x="1003" d="M154 266q-3 24 -3 51q0 85 21 195q25 145 70 246.5t111.5 165t156.5 92t205 28.5q109 0 182.5 -15t144.5 -46l-245 -1393h-246l78 441q-35 -23 -82 -37t-101 -14q-84 0 -147 28.5t-100 92t-45 165.5zM416 202q16 -44 47 -61.5t69 -17.5q39 0 71 12t50 29l129 737h-92 q-47 0 -87 -17.5t-74.5 -61.5t-62.5 -119.5t-48 -190.5q-20 -112 -20 -187q0 -78 18 -123z" />
<glyph unicode="r" horiz-adv-x="737" d="M133 0l180 1024h174l17 -82h10q37 31 97.5 56.5t152.5 25.5h133l-31 -174h-225q-39 0 -70.5 -12.5t-50.5 -28.5l-141 -809h-246z" />
<glyph unicode="s" horiz-adv-x="849" d="M84 20l18 103h226q117 0 182 32.5t78 110.5q3 13 3 26q-1 36 -23 61q-30 34 -79 59.5t-106 50t-105 60.5q-48 35 -74 91q-16 34 -16 80q0 29 7 64q14 84 50 139t92 88t133 46t173 13q78 0 147.5 -12t112.5 -28l-18 -103h-226q-86 0 -145.5 -31t-69.5 -92q-2 -13 -3 -25 q0 -36 23 -62q30 -34 79 -59.5t106.5 -50t104.5 -60.5q46 -36 72 -92q16 -36 17 -85q0 -27 -5 -57q-16 -92 -53 -151.5t-98.5 -94.5t-146.5 -48t-196 -13q-78 0 -146.5 12t-113.5 28z" />
<glyph unicode="t" horiz-adv-x="747" d="M190 850l27 154h113l43 245h245l-43 -245h277l-21 -113q-49 -16 -121.5 -28.5t-150.5 -12.5h-10l-92 -522q-7 -41 -7 -72q0 -16 2 -30q5 -40 19 -62.5t36.5 -31.5t45.5 -9h184l-18 -103q-20 -8 -50 -15t-65 -13t-70.5 -9t-66.5 -3q-66 0 -121 14t-92 52t-49 106 q-5 27 -5 60q0 50 11 116l92 522h-113z" />
<glyph unicode="u" horiz-adv-x="1034" d="M182 144q-6 28 -6 63q0 44 10 100l127 717h246l-127 -717q-6 -29 -6 -54q0 -19 4 -35q8 -36 27.5 -57.5t47 -29.5t58.5 -8q39 0 71 12t50 29l152 860h245l-180 -1024h-174l-20 61h-11q-39 -31 -98.5 -56t-151.5 -25q-66 0 -121 13t-92 50t-51 101z" />
<glyph unicode="v" horiz-adv-x="962" d="M211 1024h246l65 -768h8l336 768h246l-477 -1024h-307z" />
<glyph unicode="w" horiz-adv-x="1331" d="M211 1024h246l-2 -717h8l254 512h184l74 -512h8l252 717h246l-385 -1024h-267l-71 502h-8l-248 -502h-266z" />
<glyph unicode="x" horiz-adv-x="880" d="M20 0l336 522l-145 502h256l90 -358l217 358h256l-325 -502l155 -522h-256l-98 379l-230 -379h-256z" />
<glyph unicode="y" horiz-adv-x="1034" d="M125 -389l18 102h226q115 0 187.5 72t105.5 256q-43 -31 -98.5 -46t-117.5 -15q-66 0 -121 13t-91.5 50t-51.5 101q-6 28 -6 63q0 45 10 100l127 717h246l-127 -717q-6 -29 -6 -54q0 -19 4 -35q8 -36 27.5 -57.5t47 -29.5t58.5 -8q39 0 71 12t50 29l152 860h245 l-166 -942q-49 -276 -179 -394t-353 -118q-78 0 -146.5 12t-111.5 29z" />
<glyph unicode="z" horiz-adv-x="819" d="M41 0l25 143l577 727h-430l29 154h716l-26 -143l-578 -727h441l-27 -154h-727z" />
<glyph unicode="{" horiz-adv-x="614" d="M129 502l25 143q74 23 125 78t73 178l47 266q18 106 57.5 175t98.5 107t140 52.5t186 14.5l-25 -144q-35 0 -67.5 -9t-61.5 -31.5t-50.5 -62.5t-31.5 -102l-39 -225q-16 -84 -40.5 -142.5t-56.5 -99.5t-71 -69.5t-82 -52.5v-9q33 -25 61.5 -53.5t47 -69t21.5 -99 t-11 -142.5l-39 -225q-12 -68 -5 -109t26.5 -62.5t50.5 -27.5t65 -6l-24 -144q-104 0 -180 14.5t-122 52.5t-60.5 105.5t3.5 176.5l48 266q10 61 7 104t-18.5 73t-40 48t-57.5 31z" />
<glyph unicode="|" horiz-adv-x="532" d="M70 -410l325 1844h246l-326 -1844h-245z" />
<glyph unicode="}" horiz-adv-x="614" d="M-63 -369l24 144q33 0 65.5 6t60.5 27.5t49.5 62.5t33.5 109l39 225q14 84 39.5 142.5t57.5 99t71 69.5t82 53v9q-35 25 -62.5 53t-46 69t-22.5 99.5t12 142.5l39 225q10 61 3 101.5t-26.5 63t-49.5 31.5t-64 9l24 144q104 0 180 -14.5t122 -52.5t60.5 -106.5 t-3.5 -175.5l-47 -266q-10 -61 -7.5 -104t18 -73t40 -48.5t57.5 -30.5l-24 -143q-74 -23 -125.5 -78t-73.5 -178l-47 -266q-18 -109 -57.5 -176.5t-98.5 -105.5t-140 -52.5t-183 -14.5z" />
<glyph unicode="~" horiz-adv-x="942" d="M178 599q0 71 17 159h163q-12 -70 3.5 -112t62.5 -42q35 0 65.5 25.5t67.5 56.5t85 56.5t118 25.5q74 0 118 -25.5t64.5 -75t20.5 -120t-15 -158.5h-164q12 70 -3 112t-62 42q-35 0 -65.5 -25.5t-67.5 -56.5t-85 -56.5t-118 -25.5q-74 0 -118 25.5t-65.5 74.5t-21.5 120z " />
<glyph unicode="&#xa2;" horiz-adv-x="808" d="M153.5 276.5q-6.5 98.5 18.5 235.5q25 139 67 238.5t100 163t134 94t170 34.5l23 125h143l-23 -131q43 -6 81 -14t67 -18l-19 -103h-153l-137 -778h174l-19 -103q-35 -10 -81 -20t-99 -14l-18 -109h-144l19 105q-94 6 -160 37.5t-101.5 95t-42 162zM404.5 251 q19.5 -85 78.5 -112l133 750q-66 -25 -116.5 -111t-81.5 -266q-33 -176 -13.5 -261z" />
<glyph unicode="&#xa3;" horiz-adv-x="890" d="M92 0l21 123q27 14 47 35.5t38.5 56.5t33 86t28.5 129l37 215h-113l29 164h113l39 215q25 137 65.5 222t104 131t149.5 61.5t197 15.5q61 0 111 -12t85 -29l-20 -113h-205q-43 0 -80 -10t-67.5 -39.5t-55 -84t-39.5 -142.5l-39 -215h297l-28 -164h-297l-29 -166 q-12 -70 -29.5 -120t-39 -86.5t-44 -60.5t-45.5 -40v-8h523l-29 -164h-758z" />
<glyph unicode="&#xa5;" horiz-adv-x="983" d="M203 399l28 164h189l-19 103h-151l29 163h92l-109 605h256l100 -686h9l342 686h256l-324 -605h94l-28 -163h-152l-55 -103h188l-28 -164h-236l-70 -399h-245l69 399h-235z" />
<glyph unicode="&#xa8;" horiz-adv-x="634" d="M246 1167l43 246h225l-43 -246h-225zM573 1167l43 246h226l-43 -246h-226z" />
<glyph unicode="&#xa9;" horiz-adv-x="1720" d="M217 407.5q-31 139.5 0 309.5q31 168 110 308t197.5 239.5t270 155t323.5 55.5t304 -55.5t216 -155t115 -239.5t0 -308q-31 -170 -110.5 -309.5t-197.5 -238.5t-269.5 -154.5t-323.5 -55.5t-304 55.5t-216 154.5t-115 238.5zM416.5 457q19.5 -115 80 -194t157 -120 t223.5 -41t238.5 41t198.5 120t148 194t86 260q27 145 6.5 260t-81 193.5t-156.5 119.5t-223 41t-238 -41t-199 -119.5t-148 -193.5t-87 -260q-25 -145 -5.5 -260zM612.5 490.5q-10.5 87.5 14.5 226.5q25 137 66.5 225t99 138t131 68.5t161.5 18.5q86 0 145.5 -12t102.5 -29 l-16 -102h-215q-43 0 -80 -10t-69.5 -43t-57.5 -93.5t-43 -160.5t-14 -160.5t24.5 -93.5t54 -43t76.5 -10h236l-19 -103q-49 -16 -123.5 -28.5t-160.5 -12.5q-88 0 -156 18.5t-107.5 68.5t-50 137.5z" />
<glyph unicode="&#xab;" horiz-adv-x="1044" d="M131 512l440 471l154 -113l-328 -352l-2 -12l205 -352l-194 -113zM541 512l440 471l154 -113l-328 -352l-2 -12l205 -352l-195 -113z" />
<glyph unicode="&#xad;" horiz-adv-x="778" d="M154 532l28 164h656l-29 -164h-655z" />
<glyph unicode="&#xae;" horiz-adv-x="1720" d="M217 407.5q-31 139.5 0 309.5q31 168 110 308t197.5 239.5t270 155t323.5 55.5t304 -55.5t216 -155t115 -239.5t0 -308q-31 -170 -110.5 -309.5t-197.5 -238.5t-269.5 -154.5t-323.5 -55.5t-304 55.5t-216 154.5t-115 238.5zM416.5 457q19.5 -115 80 -194t157 -120 t223.5 -41t238.5 41t198.5 120t148 194t86 260q27 145 6.5 260t-81 193.5t-156.5 119.5t-223 41t-238 -41t-199 -119.5t-148 -193.5t-87 -260q-25 -145 -5.5 -260zM592 287l147 839q57 16 127 28.5t178 12.5q186 0 266.5 -66.5t51.5 -219.5q-12 -66 -34.5 -110t-50.5 -72.5 t-57.5 -45t-56.5 -28.5l115 -338h-236l-90 297h-82l-53 -297h-225zM895 727h72q61 0 108 34t62 120q14 78 -21 110.5t-96 32.5h-72z" />
<glyph unicode="&#xb4;" horiz-adv-x="389" d="M242 1147l118 266h236l-201 -266h-153z" />
<glyph unicode="&#xb8;" horiz-adv-x="440" d="M-14 -317l12 69h131q47 0 61.5 13.5t18.5 29.5t-5 29.5t-48 13.5h-113l33 193h112l-16 -92h31q92 0 131 -41t28 -103q-10 -61 -69.5 -102t-159.5 -41q-39 0 -66.5 4t-46.5 10q-23 8 -34 17z" />
<glyph unicode="&#xbb;" horiz-adv-x="1044" d="M88 154l328 352l2 12l-205 352l195 113l276 -471l-442 -471zM498 154l327 352l2 12l-204 352l194 113l277 -471l-443 -471z" />
<glyph unicode="&#x2c6;" horiz-adv-x="624" d="M238 1126l211 267h215l116 -267h-157l-88 144l-142 -144h-155z" />
<glyph unicode="&#x2dc;" horiz-adv-x="593" d="M285 1393h123q-12 -82 36 -82q18 0 40 16t46.5 34.5t53 35t63.5 16.5q70 0 102.5 -54t8.5 -192h-123q12 82 -37 82q-18 0 -39.5 -16t-46.5 -34.5t-53.5 -35t-63.5 -16.5q-70 0 -101.5 53t-8.5 193z" />
<glyph unicode="&#x401;" d="M143 0l252 1434h748l-29 -164h-502l-77 -441h440l-29 -163h-440l-88 -502h502l-29 -164h-748zM510 1556l43 246h225l-43 -246h-225zM838 1556l43 246h225l-43 -246h-225z" />
<glyph unicode="&#x402;" horiz-adv-x="1177" d="M223 1270l29 164h778l-29 -164h-286l-70 -389q41 8 100.5 14t98.5 6q201 0 288 -103.5t52 -295.5l-31 -174q-31 -170 -131 -259t-248 -89q-47 0 -88 9t-70 31l19 103h102q53 0 101.5 48t68.5 157l31 174q41 236 -205 235h-112l-129 -737h-246l223 1270h-246z" />
<glyph unicode="&#x403;" horiz-adv-x="890" d="M143 0l252 1434h707l-29 -164h-461l-223 -1270h-246zM670 1536l118 266h236l-201 -266h-153z" />
<glyph unicode="&#x404;" horiz-adv-x="931" d="M185 359.5q-5 142.5 32 357.5q39 215 94.5 357.5t129 226t165.5 118.5t203 35q109 0 192.5 -12t126.5 -29l-20 -113h-246q-61 0 -116.5 -21.5t-102.5 -76.5t-87 -148t-73 -235h418l-29 -164h-417q-25 -154 -19 -254t37 -160.5t83 -84t122 -23.5h246l-21 -113 q-47 -16 -136 -28t-198 -12q-119 0 -202.5 34.5t-130 118.5t-51.5 226.5z" />
<glyph unicode="&#x405;" horiz-adv-x="952" d="M74 20l20 113h287q154 0 230.5 59.5t97.5 176.5q10 63 -7.5 106t-52.5 75t-83 56.5t-98 51t-96 60.5t-79 83t-45 117.5t4 166.5q29 170 152.5 269.5t332.5 99.5q109 0 193 -12t127 -29l-21 -113h-286q-100 0 -168 -57t-84 -158q-16 -90 17.5 -143t92 -91t128 -70.5 t126 -83t86 -127t6.5 -201.5q-33 -184 -166 -286.5t-393 -102.5q-109 0 -192.5 12t-128.5 28z" />
<glyph unicode="&#x406;" horiz-adv-x="532" d="M143 0l252 1434h246l-252 -1434h-246z" />
<glyph unicode="&#x407;" horiz-adv-x="512" d="M133 0l252 1434h246l-252 -1434h-246zM254 1556l43 246h225l-43 -246h-225zM582 1556l43 246h225l-43 -246h-225z" />
<glyph unicode="&#x408;" horiz-adv-x="768" d="M2 20l21 113h204q43 0 81 17.5t72 58.5t60.5 109.5t44.5 173.5l166 942h246l-166 -942q-49 -276 -178 -394t-352 -118q-61 0 -111.5 12t-87.5 28z" />
<glyph unicode="&#x409;" horiz-adv-x="1658" d="M0 0l18 113q76 0 143.5 70.5t108.5 246.5l228 1004h747l-100 -574q18 4 43.5 7t51.5 6.5t47.5 5.5t33.5 2q209 0 295 -111t45 -350q-41 -223 -173 -331.5t-386 -108.5q-117 0 -198 9t-154 31l221 1250h-264l-191 -840q-57 -246 -155.5 -348t-221.5 -102q-68 0 -104 10 q-20 4 -35 10zM1016 133h112q117 0 187.5 66.5t99.5 220.5q14 84 9 141t-28.5 92t-65.5 49.5t-99 14.5h-113z" />
<glyph unicode="&#x40a;" horiz-adv-x="1669" d="M143 0l252 1434h246l-104 -594h368l105 594h245l-108 -615q20 4 46 7t51.5 6.5t47 5.5t33.5 2q418 0 342 -441q-37 -207 -169 -313t-386 -106q-117 0 -197.5 9t-154.5 31l117 656h-369l-119 -676h-246zM1026 133h113q117 0 187.5 63.5t94.5 202.5q29 154 -20 215.5 t-166 61.5h-113z" />
<glyph unicode="&#x40b;" horiz-adv-x="1187" d="M223 1270l29 164h778l-29 -164h-286l-68 -379q41 8 100.5 14t98.5 6q217 0 296 -96t42 -313l-88 -502h-246l88 502q43 246 -203 246h-112l-131 -748h-246l223 1270h-246z" />
<glyph unicode="&#x40c;" horiz-adv-x="1064" d="M143 0l252 1434h246l-106 -605h40q39 0 78 37t86 138l99 204q57 123 125.5 184.5t183.5 61.5q35 0 61.5 -3t42.5 -7q20 -6 35 -10l-20 -113q-70 0 -109 -29.5t-63 -83.5l-99 -204q-29 -61 -56.5 -104.5t-55 -73t-56 -47t-61.5 -27.5v-9q29 -10 56.5 -27.5t49 -47 t36 -72.5t18.5 -104l14 -267q4 -47 34 -79.5t99 -32.5l-18 -113q-16 -6 -39 -10q-41 -10 -109 -10q-117 0 -167 61t-56 184l-14 267q-6 100 -38 137t-85 37h-41l-117 -666h-246zM735 1516l119 266h236l-201 -266h-154z" />
<glyph unicode="&#x40e;" horiz-adv-x="1013" d="M166 20l20 113h144q39 0 71.5 11.5t64.5 42t62.5 85t65.5 138.5q-123 0 -188.5 68.5t-75.5 176.5l-78 779h246l75 -758q4 -47 26 -75t54 -28l326 861h246l-420 -1106q-133 -348 -420 -348q-61 0 -117.5 12t-101.5 28zM502 1690l121 102q25 -31 71 -61.5t107 -30.5 t117.5 30.5t93.5 61.5l84 -102q-59 -78 -142.5 -121t-183.5 -43t-167.5 43t-100.5 121z" />
<glyph unicode="&#x40f;" horiz-adv-x="1146" d="M143 0l252 1434h246l-223 -1270h368l224 1270h245l-251 -1434h-308l-96 -307h-164l15 307h-308z" />
<glyph unicode="&#x410;" horiz-adv-x="1105" d="M31 0l620 1434h307l117 -1434h-256l-28 358h-353l-151 -358h-256zM500 522h284l-32 584h-9z" />
<glyph unicode="&#x411;" horiz-adv-x="1054" d="M145 20l250 1414h768l-28 -164h-523l-69 -389h112q254 0 348.5 -112t53.5 -349q-41 -223 -173 -331.5t-386 -108.5q-117 0 -198 9t-155 31zM412 133h112q117 0 187.5 66.5t99.5 220.5q29 162 -19.5 229.5t-164.5 67.5h-113z" />
<glyph unicode="&#x412;" horiz-adv-x="1085" d="M145 20l246 1393q82 23 166 32t201 9q231 0 322 -100.5t61 -278.5q-16 -92 -82 -176t-166 -127l-2 -8q117 -43 166 -139.5t24 -235.5q-35 -201 -171 -305t-412 -104q-117 0 -198 9t-155 31zM412 133h112q131 0 205 63.5t98 202.5q27 147 -24 212t-182 65h-113zM535 829 h92q100 0 167.5 59.5t88.5 176.5q20 117 -27 176t-147 59h-93z" />
<glyph unicode="&#x413;" horiz-adv-x="890" d="M143 0l252 1434h707l-29 -164h-461l-223 -1270h-246z" />
<glyph unicode="&#x414;" horiz-adv-x="1187" d="M-33 -307l82 471h103q33 39 63 96q27 49 56.5 124t52.5 179l194 871h737l-223 -1270h133l-84 -471h-153q-20 61 -28.5 138t1.5 169h-645q-25 -92 -60.5 -169t-76.5 -138h-152zM397 164h389l199 1126h-252l-164 -727q-23 -104 -52.5 -179t-55.5 -124q-31 -57 -64 -96z" />
<glyph unicode="&#x415;" d="M143 0l252 1434h748l-29 -164h-502l-77 -441h440l-29 -163h-440l-88 -502h502l-29 -164h-748z" />
<glyph unicode="&#x416;" horiz-adv-x="1576" d="M10 0l19 113q70 0 112.5 32.5t61.5 79.5l108 267q25 61 54.5 104t62.5 72.5t66.5 47t66.5 27.5v9q-57 20 -90 74.5t-49 177.5l-25 204q-6 53 -35.5 83t-99.5 30l21 113q16 4 39 10q18 4 45.5 7t62.5 3q57 0 96 -15.5t64.5 -46t40 -76.5t22.5 -108l25 -204 q10 -100 36.5 -137.5t65.5 -37.5h31l107 605h245l-106 -605h30q39 0 78 37t86 138l99 204q57 123 125.5 184.5t183.5 61.5q35 0 61.5 -3t42.5 -7q20 -6 35 -10l-20 -113q-70 0 -109 -29.5t-63 -83.5l-99 -204q-29 -61 -56.5 -104.5t-55 -73t-56 -47t-61.5 -27.5v-9 q29 -10 56.5 -27.5t49 -47t36 -72.5t18.5 -104l14 -267q4 -47 34 -79.5t99 -32.5l-18 -113q-16 -6 -39 -10q-41 -10 -109 -10q-117 0 -167 61t-56 184l-14 267q-6 100 -38 137t-85 37h-31l-117 -666h-245l116 666h-30q-53 0 -98.5 -37t-86.5 -137l-108 -267 q-49 -123 -121 -184t-188 -61q-68 0 -105 10q-20 4 -35 10z" />
<glyph unicode="&#x417;" horiz-adv-x="921" d="M33 20l20 113h307q131 0 205 63.5t99 202.5t-26.5 203t-182.5 64h-164l28 163h144q236 0 280 256q16 100 -32.5 157.5t-165.5 57.5h-266l20 113q25 8 59.5 15.5t74.5 13.5t81 9t80 3q123 0 207 -25.5t133 -73.5t64.5 -117t0.5 -153q-23 -131 -97.5 -205.5t-174.5 -117.5 l-2 -8q117 -35 167 -133.5t28 -221.5q-37 -207 -173.5 -313t-412.5 -106q-92 0 -174 12t-127 28z" />
<glyph unicode="&#x418;" horiz-adv-x="1167" d="M143 0l252 1434h236l-166 -942h10l545 942h256l-252 -1434h-236l168 963h-10l-557 -963h-246z" />
<glyph unicode="&#x419;" horiz-adv-x="1167" d="M143 0l252 1434h236l-166 -942h10l545 942h256l-252 -1434h-236l168 963h-10l-557 -963h-246zM588 1710l121 102q25 -31 71 -61.5t107 -30.5t117.5 31t93.5 61l84 -102q-59 -78 -142.5 -121t-183.5 -43t-167.5 43t-100.5 121z" />
<glyph unicode="&#x41a;" horiz-adv-x="1064" d="M143 0l252 1434h246l-106 -605h40q39 0 78 37t86 138l99 204q57 123 125.5 184.5t183.5 61.5q35 0 61.5 -3t42.5 -7q20 -6 35 -10l-20 -113q-70 0 -109 -29.5t-63 -83.5l-99 -204q-29 -61 -56.5 -104.5t-55 -73t-56 -47t-61.5 -27.5v-9q29 -10 56.5 -27.5t49 -47 t36 -72.5t18.5 -104l14 -267q4 -47 34 -79.5t99 -32.5l-18 -113q-16 -6 -39 -10q-41 -10 -109 -10q-117 0 -167 61t-56 184l-14 267q-6 100 -38 137t-85 37h-41l-117 -666h-246z" />
<glyph unicode="&#x41b;" horiz-adv-x="1146" d="M0 0l18 113q76 0 143.5 70.5t108.5 246.5l228 1004h757l-251 -1434h-246l223 1270h-274l-191 -840q-57 -246 -155.5 -348t-221.5 -102q-68 0 -104 10q-20 4 -35 10z" />
<glyph unicode="&#x41c;" horiz-adv-x="1556" d="M102 0l334 1434h266l152 -973h8l496 973h266l-170 -1434h-235l114 971h-8l-405 -797h-226l-123 797h-8l-225 -971h-236z" />
<glyph unicode="&#x41d;" horiz-adv-x="1146" d="M143 0l252 1434h246l-111 -625h369l111 625h245l-251 -1434h-246l112 645h-368l-113 -645h-246z" />
<glyph unicode="&#x41e;" horiz-adv-x="1126" d="M189.5 368.5q-9.5 141.5 27.5 348.5t95.5 348t135 227t169.5 124t202 38q106 0 187 -38t127.5 -124t54.5 -227t-29 -348t-94 -348.5t-134 -227.5t-171 -123.5t-201 -37.5q-109 0 -188.5 37.5t-125.5 123.5t-55.5 227.5zM431 426q-1 -115 19.5 -182.5t55.5 -94t78 -26.5 t88 26.5t88 94t83 182.5t70 291q31 176 32 290.5t-18.5 182t-55 94.5t-78.5 27t-88.5 -27t-88.5 -94.5t-82.5 -182t-70.5 -290.5t-32 -291z" />
<glyph unicode="&#x41f;" horiz-adv-x="1146" d="M143 0l252 1434h860l-251 -1434h-246l223 1270h-369l-223 -1270h-246z" />
<glyph unicode="&#x420;" horiz-adv-x="1054" d="M143 0l248 1413q82 23 166 32t201 9q127 0 213 -28.5t133 -90t58.5 -159t-13.5 -234.5q-27 -145 -71 -246.5t-108.5 -165t-147.5 -92t-187 -28.5q-12 0 -32.5 2t-45.5 5t-49.5 6t-42.5 7l-76 -430h-246zM489 573h113q57 0 104.5 17.5t84 59.5t65.5 113t47 179 q18 104 14 173t-26.5 110t-63.5 58t-98 17h-113z" />
<glyph unicode="&#x421;" horiz-adv-x="931" d="M185 359.5q-5 142.5 32 357.5q39 215 94.5 357.5t129 226t165.5 118.5t203 35q109 0 192.5 -12t126.5 -29l-20 -113h-246q-66 0 -125 -26.5t-109 -92t-92 -179t-73 -285.5t-28 -286t33 -179.5t83 -92t127 -26.5h246l-21 -113q-47 -16 -136 -28t-198 -12 q-119 0 -202.5 34.5t-130 118.5t-51.5 226.5z" />
<glyph unicode="&#x422;" horiz-adv-x="921" d="M244 1270l28 164h881l-29 -164h-317l-223 -1270h-246l223 1270h-317z" />
<glyph unicode="&#x423;" horiz-adv-x="1013" d="M166 20l20 113h144q39 0 71.5 11.5t64.5 42t62.5 85t65.5 138.5q-123 0 -188.5 68.5t-75.5 176.5l-78 779h246l75 -758q4 -47 26 -75t54 -28l326 861h246l-420 -1106q-133 -348 -420 -348q-61 0 -117.5 12t-101.5 28z" />
<glyph unicode="&#x424;" horiz-adv-x="1454" d="M171 469q-19 109 5 248q25 137 83 246.5t144 188.5t197 126t240 63l22 134h246l-23 -134q123 -16 217.5 -63t152.5 -126t77.5 -188.5t-4.5 -246.5q-25 -139 -83.5 -248t-144.5 -187.5t-196.5 -127t-239.5 -62.5l-22 -133h-246l22 133q-123 14 -217 62.5t-152.5 127 t-77.5 187.5zM416 520q12 -86 46 -146.5t83 -92t102 -35.5l166 942q-55 -4 -115.5 -36t-115 -92.5t-97.5 -146t-63 -196.5q-18 -111 -6 -197zM893 246q55 4 115.5 35.5t115 92t97.5 146.5t61 197q20 111 8 196.5t-46 146t-83 92.5t-102 36z" />
<glyph unicode="&#x425;" horiz-adv-x="1024" d="M31 0l426 737l-144 697h256l101 -533l288 533h256l-389 -697l168 -737h-256l-123 584l-327 -584h-256z" />
<glyph unicode="&#x426;" horiz-adv-x="1167" d="M143 0l252 1434h246l-223 -1270h348l223 1270h246l-223 -1270h133l-84 -471h-154q-20 61 -28.5 138t2.5 169h-738z" />
<glyph unicode="&#x427;" horiz-adv-x="1095" d="M266 932l88 502h246l-88 -502q-45 -256 201 -256h112l133 758h246l-252 -1434h-245l92 532q-41 -8 -99.5 -14t-97.5 -6q-201 0 -287 105.5t-49 314.5z" />
<glyph unicode="&#x428;" horiz-adv-x="1617" d="M143 0l252 1434h246l-223 -1270h297l223 1270h246l-223 -1270h296l224 1270h245l-251 -1434h-1332z" />
<glyph unicode="&#x429;" horiz-adv-x="1658" d="M143 0l252 1434h246l-223 -1270h297l223 1270h246l-223 -1270h296l224 1270h245l-223 -1270h133l-84 -471h-153q-20 61 -28.5 138t1.5 169h-1229z" />
<glyph unicode="&#x42a;" horiz-adv-x="1177" d="M264 1270l29 164h471l-100 -574q18 4 43.5 7t51 6.5t47.5 5.5t34 2q209 0 295 -111t45 -350q-41 -223 -173.5 -331.5t-385.5 -108.5q-117 0 -198 9t-155 31l221 1250h-225zM535 133h112q117 0 187.5 66.5t99.5 220.5q14 84 9 141t-28.5 92t-65.5 49.5t-99 14.5h-113z" />
<glyph unicode="&#x42b;" horiz-adv-x="1505" d="M145 20l250 1414h246l-100 -574q18 4 43.5 7t51.5 6.5t47.5 5.5t33.5 2q201 0 285.5 -111t44.5 -350q-41 -223 -171.5 -331.5t-377.5 -108.5q-117 0 -198 9t-155 31zM412 133h112q109 0 178.5 66.5t98.5 220.5q14 84 9 141t-27.5 92t-62.5 49.5t-93 14.5h-113zM1116 0 l252 1434h246l-252 -1434h-246z" />
<glyph unicode="&#x42c;" horiz-adv-x="1054" d="M145 20l250 1414h246l-100 -574q18 4 43.5 7t51.5 6.5t47.5 5.5t33.5 2q209 0 295 -111t45 -350q-41 -223 -173 -331.5t-386 -108.5q-117 0 -198 9t-155 31zM412 133h112q117 0 187.5 66.5t99.5 220.5q14 84 9 141t-28.5 92t-65.5 49.5t-99 14.5h-113z" />
<glyph unicode="&#x42d;" horiz-adv-x="931" d="M33 20l20 113h246q70 0 130 23.5t112.5 84t93.5 161t72 253.5h-418l28 164h418q18 141 11 234.5t-36.5 148.5t-76.5 76.5t-109 21.5h-245l20 113q49 16 138 28.5t198 12.5q111 0 190.5 -35t123.5 -118.5t49.5 -226t-33.5 -357.5q-37 -215 -93.5 -357.5t-131 -226.5 t-171 -118.5t-215.5 -34.5q-109 0 -192.5 12t-128.5 28z" />
<glyph unicode="&#x42e;" horiz-adv-x="1525" d="M143 0l252 1434h246l-111 -625h125q39 180 97.5 304t132 200t161 108.5t183.5 32.5q104 0 182 -38t123 -124t53 -227t-28 -348q-37 -207 -94.5 -348.5t-133.5 -227.5t-167 -123.5t-195 -37.5q-100 0 -176 33.5t-122 111.5t-58.5 205t12.5 315h-123l-113 -645h-246z M851 426q-1 -115 17.5 -182.5t52 -94t72.5 -26.5t82 26.5t86 94t82 182.5t70 291t32 290.5t-17.5 182t-52.5 94.5t-73 27t-82 -27t-85 -94.5t-82 -182t-70 -290.5q-31 -176 -32 -291z" />
<glyph unicode="&#x42f;" horiz-adv-x="1075" d="M20 0l19 113q61 0 103 25.5t71 86.5l82 174q47 100 99 155.5t93 72.5l2 8q-41 8 -86 34.5t-79.5 75t-51 118t-0.5 161.5q37 215 170 322.5t387 107.5q117 0 198 -9t153 -32l-248 -1413h-246l100 573h-51q-31 0 -84 -36.5t-100 -137.5l-82 -174q-57 -123 -129 -184 t-180 -61q-59 0 -101 10q-23 4 -39 10zM518 1024q-29 -154 19.5 -220.5t164.5 -66.5h113l98 563h-112q-117 0 -187.5 -64.5t-95.5 -211.5z" />
<glyph unicode="&#x430;" horiz-adv-x="1003" d="M153.5 265.5q-8.5 101.5 18.5 246.5q25 145 70 246.5t111.5 165t156.5 92t205 28.5q109 0 182.5 -15t144.5 -46l-172 -983h-174l-20 61h-10q-39 -31 -96.5 -56t-143.5 -25q-78 0 -136.5 28.5t-93 92t-43 165zM398.5 321.5q0.5 -75.5 17 -119.5t47.5 -61.5t69 -17.5 q39 0 71 12t50 29l129 737h-92q-47 0 -87 -17.5t-74.5 -61.5t-62.5 -119.5t-48 -190.5t-19.5 -190.5z" />
<glyph unicode="&#x431;" horiz-adv-x="1013" d="M186 481l60 338q31 172 80 290t125.5 189.5t186.5 105.5t261 40l248 10l-8 -102q-59 -23 -136 -42.5t-163 -29.5q-72 -8 -125 -28.5t-93 -60.5t-67 -103.5t-43 -155.5q35 23 83 37t110 14q92 0 159.5 -27.5t106.5 -88t49 -156t-14 -230.5q-47 -268 -173 -384.5 t-325 -116.5q-201 0 -285 116.5t-37 384.5zM415 301.5q1 -70.5 16 -112.5t42 -59t57 -17q31 0 64 17t63.5 59t57 113t45.5 179q18 104 16 173t-22.5 110t-55 58.5t-80.5 17.5q-47 0 -79.5 -12.5t-51.5 -28.5l-55 -318q-18 -109 -17 -179.5z" />
<glyph unicode="&#x432;" horiz-adv-x="1003" d="M135 20l174 984q82 23 164 31.5t191 8.5q100 0 173.5 -13t120 -46t63.5 -88t3 -139q-10 -49 -31.5 -85t-49.5 -60.5t-59.5 -40t-60.5 -25.5l-2 -8q33 -10 66 -28.5t57.5 -49.5t35.5 -74t1 -100q-16 -92 -53 -151.5t-97.5 -94.5t-143.5 -48t-189 -13q-123 0 -206 9 t-157 31zM399 123h123q35 0 68 8t60.5 28.5t48 54.5t28.5 83q16 92 -30 128t-115 36h-123zM485 604h103q59 0 111.5 33t66.5 111q8 43 -1 71.5t-27.5 47t-45 26.5t-53.5 8h-102z" />
<glyph unicode="&#x433;" horiz-adv-x="849" d="M110.5 135.5q-16.5 59.5 0.5 151.5q14 88 60 143t105.5 91t127 60.5t126 50t99.5 59.5t51 87q10 61 -39 92t-135 31h-225l18 103q49 16 122 28t150 12q96 0 168 -13t118 -46t62.5 -88t2.5 -139q-14 -88 -60.5 -143.5t-106 -91.5t-127 -60.5t-126 -50t-99.5 -59.5t-51 -87 q-12 -78 41 -110.5t170 -32.5h225l-18 -103q-47 -16 -121 -28t-151 -12q-111 0 -192 13t-130 48t-65.5 94.5z" />
<glyph unicode="&#x434;" horiz-adv-x="993" d="M160 451q45 246 167 358.5t306 112.5q61 0 104 -14.5t70 -37.5q12 111 -19.5 192t-91 135t-139.5 86t-162 48l35 123q164 -8 290 -52t206 -130t108.5 -218t-4.5 -317l-53 -297q-41 -240 -165 -350t-325 -110t-285.5 112.5t-41.5 358.5zM391.5 290q1.5 -65 18 -105t43 -56 t57.5 -16t63.5 16t62.5 55t54.5 101.5t40.5 154.5l53 297q-12 16 -39.5 28.5t-74.5 12.5q-92 0 -162 -71.5t-102 -255.5q-16 -96 -14.5 -161z" />
<glyph unicode="&#x435;" horiz-adv-x="952" d="M154.5 265.5q-9.5 101.5 17.5 246.5q25 145 70 246.5t109.5 165t149.5 92t193 28.5q178 0 264 -85t60 -232q-29 -154 -144.5 -230.5t-308.5 -76.5h-164q-29 -162 21.5 -229.5t181.5 -67.5h225l-18 -103q-47 -16 -121 -28t-151 -12q-119 0 -201 28.5t-128 92t-55.5 165z M426 563h164q70 0 119 43t63 121q16 92 -16.5 138t-93.5 46q-43 0 -78 -14t-63.5 -52t-52.5 -106.5t-42 -175.5z" />
<glyph unicode="&#x436;" horiz-adv-x="1372" d="M20 0l17 102q53 0 89 26t48 56l70 164q41 92 96 135t115 56l2 8q-47 12 -78 53t-47 127l-27 133q-6 23 -27.5 42.5t-74.5 19.5l18 102l41 10q18 4 42 7t52 3q92 0 136.5 -43t60.5 -120l35 -154q16 -70 32.5 -91.5t38.5 -21.5h11l73 410h246l-74 -410h11q23 0 47 21.5 t65 91.5l88 154q45 78 103.5 120.5t150.5 42.5q27 0 50.5 -3t42.5 -7q23 -6 38 -10l-18 -102q-53 0 -82 -19.5t-41 -42.5l-76 -133q-47 -86 -92 -127t-94 -53l-2 -8q53 -12 94 -55.5t47 -135.5l13 -164q4 -31 29.5 -56.5t78.5 -25.5l-16 -102q-18 -6 -41 -10 q-41 -10 -97 -10q-100 0 -149 48t-55 126l-19 194q-4 53 -28.5 83t-63.5 30h-10l-80 -461h-246l80 461h-10q-82 0 -133 -113l-84 -194q-35 -78 -100.5 -126t-165.5 -48q-55 0 -93 10q-20 4 -37 10z" />
<glyph unicode="&#x437;" horiz-adv-x="829" d="M33 20l18 103h266q92 0 156 37t80 137q8 45 0 77t-28.5 51t-48 27.5t-58.5 8.5h-174l26 143h154q61 0 117.5 34t72.5 120q14 78 -37 110.5t-143 32.5h-225l18 103q49 16 122 28t151 12q104 0 180 -13t124 -45t65.5 -85t2.5 -133q-10 -53 -32.5 -91t-53 -63.5t-65.5 -41 t-72 -25.5l-2 -8q33 -10 65.5 -28.5t57.5 -49.5t36 -74t1 -100q-16 -92 -54 -151.5t-100.5 -94.5t-151.5 -48t-208 -13q-78 0 -146.5 12t-113.5 28z" />
<glyph unicode="&#x438;" horiz-adv-x="1034" d="M182.5 143.5q-14.5 63.5 3.5 163.5l127 717h246l-127 -717q-10 -53 -2 -89t27.5 -57.5t47 -29.5t58.5 -8q39 0 71 12t50 29l152 860h245l-180 -1024h-174l-20 61h-11q-39 -31 -98.5 -56t-151.5 -25q-66 0 -121 13t-91.5 50t-51 100.5z" />
<glyph unicode="&#x439;" horiz-adv-x="1034" d="M182.5 143.5q-14.5 63.5 3.5 163.5l127 717h246l-127 -717q-10 -53 -2 -89t27.5 -57.5t47 -29.5t58.5 -8q39 0 71 12t50 29l152 860h245l-180 -1024h-174l-20 61h-11q-39 -31 -98.5 -56t-151.5 -25q-66 0 -121 13t-91.5 50t-51 100.5zM453 1290l118 103q27 -31 68 -56.5 t102 -25.5t112.5 25.5t86.5 56.5l86 -103q-59 -70 -137 -111.5t-178 -41.5t-162 42t-96 111z" />
<glyph unicode="&#x43a;" horiz-adv-x="962" d="M133 0l180 1024h246l-74 -410h31q23 0 47.5 21.5t65.5 91.5l88 154q45 78 103.5 120.5t150.5 42.5q27 0 50 -3t42 -7q23 -6 39 -10l-19 -102q-53 0 -81.5 -19.5t-40.5 -42.5l-76 -133q-47 -86 -92 -127t-95 -53l-2 -8q53 -12 94 -55.5t48 -135.5l12 -164 q4 -31 29.5 -56.5t78.5 -25.5l-16 -102q-18 -6 -41 -10q-41 -10 -96 -10q-100 0 -149.5 48t-55.5 126l-18 194q-4 53 -29 83t-64 30h-30l-80 -461h-246z" />
<glyph unicode="&#x43b;" horiz-adv-x="1024" d="M0 0l16 102q53 0 109.5 51.5t85.5 174.5l164 696h696l-180 -1024h-246l152 870h-213l-127 -542q-43 -178 -131 -263t-197 -85q-53 0 -90 10t-39 10z" />
<glyph unicode="&#x43c;" horiz-adv-x="1351" d="M102 0l252 1024h267l120 -625h9l342 625h266l-109 -1024h-235l67 645h-8l-268 -491h-205l-96 491h-8l-158 -645h-236z" />
<glyph unicode="&#x43d;" horiz-adv-x="1034" d="M133 0l180 1024h246l-76 -430h277l76 430h245l-180 -1024h-246l76 440h-276l-76 -440h-246z" />
<glyph unicode="&#x43e;" horiz-adv-x="983" d="M154.5 265.5q-9.5 101.5 17.5 246.5q25 145 69 246.5t107.5 165t144.5 92t181 28.5t172 -28.5t112.5 -92t49 -165t-16.5 -246.5q-27 -145 -70.5 -246.5t-107 -165t-144.5 -92t-182 -28.5q-100 0 -171.5 28.5t-111.5 92t-49.5 165zM394 315.5q-1 -77.5 13.5 -123t41 -62.5 t61.5 -17t67.5 17t63.5 62.5t56.5 123t47.5 196.5q20 119 21.5 196.5t-13 123t-41 62.5t-61.5 17t-67.5 -17t-62 -62.5t-56.5 -123t-47 -196.5q-23 -119 -24 -196.5z" />
<glyph unicode="&#x43f;" horiz-adv-x="1034" d="M133 0l180 1024h174l19 -61h10q39 31 98.5 56t151.5 25q66 0 121 -13t92 -50t51 -100.5t-4 -163.5l-125 -717h-246l125 717q10 53 2 89t-27.5 57.5t-47 29.5t-58.5 8q-39 0 -70.5 -12t-48.5 -29l-151 -860h-246z" />
<glyph unicode="&#x440;" horiz-adv-x="1003" d="M59 -410l254 1434h174l19 -61h10q39 31 96.5 56t143.5 25q76 0 135 -28.5t95 -92t43 -165t-17 -246.5q-27 -145 -71 -246.5t-102.5 -165t-132 -92t-157.5 -28.5q-53 0 -95 14t-71 37l-78 -441h-246zM408 164q12 -16 38.5 -28.5t65.5 -12.5t76 17.5t69.5 61.5t60 119.5 t48.5 190.5q20 115 18 190.5t-18 119.5t-47 61.5t-70 17.5t-66.5 -12t-52.5 -29z" />
<glyph unicode="&#x441;" horiz-adv-x="808" d="M154.5 265.5q-9.5 101.5 17.5 246.5q25 145 69 246.5t107.5 165t144 92t181.5 28.5q78 0 147.5 -12t112.5 -28l-19 -103h-225q-47 0 -87 -17.5t-74.5 -61.5t-62.5 -119.5t-48 -190.5t-19.5 -190.5t22 -119.5t60.5 -61.5t92 -17.5h226l-19 -103q-47 -16 -120.5 -28 t-151.5 -12q-109 0 -183.5 28.5t-117.5 92t-52.5 165z" />
<glyph unicode="&#x442;" horiz-adv-x="1515" d="M133 0l180 1024h174l19 -61h10q39 31 98.5 56t151.5 25q78 0 129 -21.5t82 -59.5q53 39 120.5 60t159.5 21q61 0 114.5 -13t89.5 -50t50.5 -100.5t-4.5 -163.5l-125 -717h-245l125 717q10 53 1.5 89t-26.5 57.5t-44 29.5t-52 8q-39 0 -71 -9t-58 -22q4 -23 4 -64.5 t-10 -88.5l-125 -717h-246l125 717q10 53 3 89t-24.5 57.5t-42 29.5t-47.5 8q-39 0 -70.5 -12t-48.5 -29l-151 -860h-246z" />
<glyph unicode="&#x443;" d="M74 -389l18 102h133q39 0 72 11.5t62.5 41t58 82t59.5 132.5q-92 0 -149.5 68.5t-63.5 176.5l-43 799h236l43 -799q2 -47 20 -61q8 -8 19 -10l317 870h236l-379 -1044q-78 -217 -186.5 -313.5t-256.5 -96.5q-61 0 -111 12t-85 29z" />
<glyph unicode="&#x444;" horiz-adv-x="1269" d="M162 512q43 246 181 373t351 149l70 400h246l-70 -400q203 -23 297 -149.5t51 -372.5q-45 -248 -183 -374t-349 -148l-72 -400h-246l72 400q-205 23 -299 149.5t-49 372.5zM391.5 339q1.5 -69 20 -112t50.5 -64.5t73 -29.5l133 758q-43 -8 -83 -29.5t-74 -64.5 t-59.5 -112t-43.5 -173t-16.5 -173zM780 133q43 8 83 29.5t74 64.5t60.5 112t44.5 173t15.5 173t-21 112t-50.5 64.5t-73 29.5z" />
<glyph unicode="&#x445;" horiz-adv-x="901" d="M31 0l336 522l-146 502h256l90 -358l217 358h256l-325 -502l155 -522h-256l-98 379l-229 -379h-256z" />
<glyph unicode="&#x446;" horiz-adv-x="1095" d="M182.5 143.5q-14.5 63.5 3.5 163.5l127 717h246l-127 -717q-10 -53 -2 -89t27.5 -57.5t47 -29.5t58.5 -8q39 0 71 12t50 29l152 860h245l-139 -788q-8 -39 10.5 -60.5t57.5 -21.5h61l-80 -451h-153q-23 53 -31 129t2 168q-47 0 -71.5 25.5t-26.5 56.5h-11 q-47 -47 -111.5 -74.5t-142.5 -27.5q-66 0 -121 13t-91.5 50t-51 100.5z" />
<glyph unicode="&#x447;" horiz-adv-x="983" d="M195.5 507.5q-13.5 61.5 3.5 158.5l63 358h246l-64 -358q-10 -49 -0.5 -83t30 -54.5t50 -28.5t64.5 -8h102l94 532h246l-180 -1024h-246l64 369q-41 -8 -98.5 -14.5t-110.5 -6.5q-66 0 -121 13.5t-92 49t-50.5 97z" />
<glyph unicode="&#x448;" horiz-adv-x="1515" d="M182.5 143.5q-14.5 63.5 3.5 163.5l127 717h246l-127 -717q-10 -53 -2 -89t26.5 -57.5t44 -29.5t52.5 -8q39 0 70.5 9t58.5 22q-4 23 -3 64.5t9 88.5l127 717h246l-127 -717q-10 -53 -2 -89t25.5 -57.5t41 -29.5t45.5 -8q39 0 71 12t50 29l152 860h246l-181 -1024h-174 l-20 61h-10q-39 -31 -98.5 -56t-151.5 -25q-78 0 -129 21.5t-82 59.5q-53 -39 -121 -60t-160 -21q-61 0 -114.5 13t-89 50t-50 100.5z" />
<glyph unicode="&#x449;" horiz-adv-x="1576" d="M182.5 143.5q-14.5 63.5 3.5 163.5l127 717h246l-127 -717q-10 -53 -2 -89t26.5 -57.5t44 -29.5t52.5 -8q39 0 70.5 9t58.5 22q-4 23 -3 64.5t9 88.5l127 717h246l-127 -717q-10 -53 -2 -89t25.5 -57.5t41 -29.5t45.5 -8q39 0 71 12t50 29l152 860h246l-140 -788 q-8 -39 10.5 -60.5t57.5 -21.5h61l-79 -451h-154q-23 53 -31 129t2 168q-47 0 -71.5 25.5t-26.5 56.5h-10q-47 -47 -111.5 -74.5t-142.5 -27.5t-129 21.5t-82 59.5q-53 -39 -121 -60t-160 -21q-61 0 -114.5 13t-89 50t-50 100.5z" />
<glyph unicode="&#x44a;" horiz-adv-x="1085" d="M193 870l28 154h451l-70 -389q41 8 90 14t88 6q76 0 138.5 -14t101.5 -51t53 -102.5t-4 -170.5q-18 -104 -56 -169.5t-96.5 -102.5t-137.5 -51t-179 -14q-117 0 -197.5 9t-154.5 31l149 850h-204zM512 123h113q31 0 61.5 9t58 30.5t48 59.5t30.5 95q8 53 1 89t-26.5 57.5 t-47 30t-58.5 8.5h-112z" />
<glyph unicode="&#x44b;" horiz-adv-x="1382" d="M135 20l178 1004h246l-70 -389q41 8 90.5 14t88.5 6q74 0 133 -14t97 -51t52.5 -102.5t-4.5 -170.5q-18 -104 -56 -169.5t-95.5 -102.5t-134 -51t-173.5 -14q-117 0 -197.5 9t-154.5 31zM399 123h113q27 0 55.5 9t55 30.5t47 59.5t30.5 95q8 53 1 89t-25.5 57.5t-44 30 t-51.5 8.5h-113zM1004 0l180 1024h246l-181 -1024h-245z" />
<glyph unicode="&#x44c;" d="M135 20l178 1004h246l-70 -389q41 8 90.5 14t88.5 6q76 0 138 -14t101 -51t53.5 -102.5t-4.5 -170.5q-18 -104 -56 -169.5t-96.5 -102.5t-137 -51t-179.5 -14q-117 0 -197.5 9t-154.5 31zM399 123h113q31 0 61.5 9t58 30.5t48 59.5t31.5 95q8 53 1 89t-26.5 57.5 t-47.5 30t-58 8.5h-113z" />
<glyph unicode="&#x44d;" horiz-adv-x="808" d="M33 20l18 103h225q53 0 96.5 15.5t78 52t61.5 100t47 160.5h-307l29 153h307q10 84 5 141.5t-25.5 92t-54.5 49t-79 14.5h-225l18 103q49 16 122 28t151 12q100 0 171.5 -28.5t112.5 -92t49.5 -165t-16.5 -246.5q-27 -145 -72 -246.5t-109.5 -165t-150.5 -92t-192 -28.5 q-78 0 -146.5 12t-113.5 28z" />
<glyph unicode="&#x44e;" horiz-adv-x="1361" d="M133 0l180 1024h246l-74 -420h105q57 240 177 340t296 100q96 0 165.5 -28.5t109.5 -92t48.5 -165t-16.5 -246.5q-27 -145 -71 -246.5t-106.5 -165t-141 -92t-174.5 -28.5q-90 0 -157 24.5t-108 79.5t-55 142t2 214h-104l-76 -440h-246zM793.5 315.5 q-0.5 -77.5 12.5 -123t37.5 -62.5t55.5 -17t61.5 17t60.5 62.5t55.5 123t47.5 196.5q20 119 21.5 196.5t-12 123t-38 62.5t-55.5 17t-61.5 -17t-60 -62.5t-55 -123t-46.5 -196.5q-23 -119 -23.5 -196.5z" />
<glyph unicode="&#x44f;" horiz-adv-x="962" d="M20 0l17 102q53 0 81.5 19.5t43.5 42.5l74 133q39 70 74.5 98.5t84.5 40.5l2 8q-51 2 -94 20.5t-72.5 52.5t-43 84t-1.5 116q18 100 58.5 163.5t101 100.5t138 50t169.5 13q117 0 199 -9t154 -31l-177 -1004h-245l67 389h-39q-80 0 -131 -92l-88 -154 q-45 -78 -101 -120.5t-142 -42.5q-55 0 -93 10q-20 4 -37 10zM432 634q8 -34 27.5 -54.5t47.5 -28.5t58 -8h113l63 358h-112q-31 0 -61.5 -8t-57.5 -29.5t-47.5 -57.5t-30.5 -89q-8 -49 0 -83z" />
<glyph unicode="&#x451;" horiz-adv-x="952" d="M154.5 265.5q-9.5 101.5 17.5 246.5q25 145 70 246.5t109.5 165t149.5 92t193 28.5q178 0 264 -85t60 -232q-29 -154 -144.5 -230.5t-308.5 -76.5h-164q-29 -162 21.5 -229.5t181.5 -67.5h225l-18 -103q-47 -16 -121 -28t-151 -12q-119 0 -201 28.5t-128 92t-55.5 165z M395 1147l43 246h226l-43 -246h-226zM426 563h164q70 0 119 43t63 121q16 92 -16.5 138t-93.5 46q-43 0 -78 -14t-63.5 -52t-52.5 -106.5t-42 -175.5zM723 1147l43 246h225l-43 -246h-225z" />
<glyph unicode="&#x452;" horiz-adv-x="1024" d="M154 0l192 1098h-113l27 151h113l33 185h245l-33 -185h277l-18 -110q-49 -16 -120 -28.5t-124 -12.5h-41l-31 -176q43 31 98.5 46t116.5 15q66 0 121 -13.5t92 -50t51.5 -100t-4.5 -164.5l-61 -348q-29 -170 -117 -248.5t-227 -78.5q-53 0 -86 9t-62 31l19 103h102 q39 0 73 38t52 146l62 348q8 53 0.5 89t-27 57.5t-47 30t-58.5 8.5q-39 0 -70.5 -12.5t-49.5 -28.5l-140 -799h-245z" />
<glyph unicode="&#x453;" horiz-adv-x="849" d="M110.5 135.5q-16.5 59.5 0.5 151.5q14 88 60 143t105.5 91t127 60.5t126 50t99.5 59.5t51 87q10 61 -39 92t-135 31h-225l18 103q49 16 122 28t150 12q96 0 168 -13t118 -46t62.5 -88t2.5 -139q-14 -88 -60.5 -143.5t-106 -91.5t-127 -60.5t-126 -50t-99.5 -59.5t-51 -87 q-12 -78 41 -110.5t170 -32.5h225l-18 -103q-47 -16 -121 -28t-151 -12q-111 0 -192 13t-130 48t-65.5 94.5zM569 1147l119 266h236l-201 -266h-154z" />
<glyph unicode="&#x454;" horiz-adv-x="808" d="M154.5 265.5q-9.5 101.5 17.5 246.5q25 145 69 246.5t107.5 165t144 92t181.5 28.5q78 0 147.5 -12t112.5 -28l-19 -103h-225q-92 0 -155.5 -64.5t-100.5 -232.5h307l-28 -153h-307q-12 -96 -8.5 -160t25 -100.5t59.5 -52t91 -15.5h226l-19 -103q-47 -16 -120.5 -28 t-151.5 -12q-109 0 -183.5 28.5t-117.5 92t-52.5 165z" />
<glyph unicode="&#x455;" horiz-adv-x="849" d="M84 20l18 103h226q117 0 182 32.5t78 110.5q10 53 -19.5 87t-79 59.5t-106.5 50t-104.5 60.5t-74 91.5t-9.5 143.5q14 84 50 139t92 88t133 46t173 13q78 0 147.5 -12t112.5 -28l-18 -103h-226q-86 0 -145.5 -31t-69.5 -92q-10 -53 20 -87t79 -59.5t106.5 -50 t104.5 -60.5t72.5 -92t11.5 -142q-16 -92 -53 -151.5t-98.5 -94.5t-146.5 -48t-196 -13q-78 0 -146.5 12t-113.5 28z" />
<glyph unicode="&#x456;" horiz-adv-x="512" d="M133 0l180 1024h246l-180 -1024h-246zM334 1147l43 246h246l-43 -246h-246z" />
<glyph unicode="&#x457;" horiz-adv-x="491" d="M123 0l180 1024h246l-180 -1024h-246zM170 1147l43 246h225l-43 -246h-225zM498 1147l43 246h225l-43 -246h-225z" />
<glyph unicode="&#x458;" horiz-adv-x="542" d="M-190 -389l18 102h143q53 0 100.5 48.5t65.5 156.5l197 1106h246l-197 -1106q-18 -109 -55 -176.5t-87.5 -105t-110.5 -52t-126 -14.5q-59 0 -109.5 12t-84.5 29zM354 1147l43 246h246l-43 -246h-246z" />
<glyph unicode="&#x459;" horiz-adv-x="1474" d="M0 0l16 102q53 0 109.5 51.5t85.5 174.5l164 696h686l-70 -389q41 8 90 14t88 6q76 0 138.5 -14t101.5 -51t53.5 -102.5t-4.5 -170.5q-18 -104 -56 -169.5t-96.5 -102.5t-137 -51t-179.5 -14q-117 0 -197.5 9t-154.5 31l149 850h-202l-127 -542q-43 -178 -131 -263 t-197 -85q-53 0 -90 10t-39 10zM901 123h113q31 0 61.5 9t58 30.5t48 59.5t30.5 95q8 53 1 89t-26.5 57.5t-47 30t-58.5 8.5h-112z" />
<glyph unicode="&#x45a;" horiz-adv-x="1495" d="M133 0l180 1024h246l-72 -399h277l72 399h245l-73 -420q39 8 88 14.5t88 6.5q76 0 138 -13.5t102 -50.5t54.5 -100.5t-3.5 -163.5q-16 -96 -54.5 -157.5t-95.5 -97.5t-136 -49t-179 -13q-117 0 -198 9t-155 31l80 451h-276l-82 -471h-246zM922 123h112q31 0 61.5 8 t57.5 28.5t47.5 54.5t28.5 83t1 83t-27.5 54.5t-48.5 28.5t-58 8h-113z" />
<glyph unicode="&#x45b;" horiz-adv-x="1054" d="M154 0l192 1098h-113l27 151h113l33 185h245l-33 -185h277l-18 -110q-49 -16 -120 -28.5t-124 -12.5h-41l-31 -176q43 31 98.5 46t116.5 15q66 0 121 -13.5t92 -50t51.5 -100t-4.5 -164.5l-114 -655h-246l115 655q8 53 0.5 89t-27 57.5t-47 30t-58.5 8.5 q-39 0 -70.5 -12.5t-49.5 -28.5l-140 -799h-245z" />
<glyph unicode="&#x45c;" horiz-adv-x="962" d="M133 0l180 1024h246l-74 -410h31q23 0 47.5 21.5t65.5 91.5l88 154q45 78 103.5 120.5t150.5 42.5q27 0 50 -3t42 -7q23 -6 39 -10l-19 -102q-53 0 -81.5 -19.5t-40.5 -42.5l-76 -133q-47 -86 -92 -127t-95 -53l-2 -8q53 -12 94 -55.5t48 -135.5l12 -164 q4 -31 29.5 -56.5t78.5 -25.5l-16 -102q-18 -6 -41 -10q-41 -10 -96 -10q-100 0 -149.5 48t-55.5 126l-18 194q-4 53 -29 83t-64 30h-30l-80 -461h-246zM610 1147l119 266h236l-201 -266h-154z" />
<glyph unicode="&#x45e;" d="M74 -389l18 102h133q39 0 72 11.5t62.5 41t58 82t59.5 132.5q-92 0 -149.5 68.5t-63.5 176.5l-43 799h236l43 -799q2 -47 20 -61q8 -8 19 -10l317 870h236l-379 -1044q-78 -217 -186.5 -313.5t-256.5 -96.5q-61 0 -111 12t-85 29zM432 1290l119 103q27 -31 68 -56.5 t102 -25.5t112.5 25.5t86.5 56.5l86 -103q-59 -70 -137 -111.5t-179 -41.5q-100 0 -161.5 42t-96.5 111z" />
<glyph unicode="&#x45f;" horiz-adv-x="1034" d="M133 0l180 1024h246l-153 -870h276l154 870h245l-180 -1024h-262l-92 -287h-164l10 287h-260z" />
<glyph unicode="&#x490;" horiz-adv-x="890" d="M143 0l252 1434h512l64 184h164l-62 -348h-461l-223 -1270h-246z" />
<glyph unicode="&#x491;" horiz-adv-x="798" d="M133 0l180 1024h451l63 195h164l-61 -349h-400l-151 -870h-246z" />
<glyph unicode="&#x2000;" horiz-adv-x="906" />
<glyph unicode="&#x2001;" horiz-adv-x="1812" />
<glyph unicode="&#x2002;" horiz-adv-x="906" />
<glyph unicode="&#x2003;" horiz-adv-x="1812" />
<glyph unicode="&#x2004;" horiz-adv-x="604" />
<glyph unicode="&#x2005;" horiz-adv-x="453" />
<glyph unicode="&#x2006;" horiz-adv-x="302" />
<glyph unicode="&#x2007;" horiz-adv-x="302" />
<glyph unicode="&#x2008;" horiz-adv-x="226" />
<glyph unicode="&#x2009;" horiz-adv-x="362" />
<glyph unicode="&#x200a;" horiz-adv-x="100" />
<glyph unicode="&#x2010;" horiz-adv-x="778" d="M154 532l28 164h656l-29 -164h-655z" />
<glyph unicode="&#x2011;" horiz-adv-x="778" d="M154 532l28 164h656l-29 -164h-655z" />
<glyph unicode="&#x2012;" horiz-adv-x="778" d="M154 532l28 164h656l-29 -164h-655z" />
<glyph unicode="&#x2013;" horiz-adv-x="983" d="M147 492l29 163h860l-28 -163h-861z" />
<glyph unicode="&#x2014;" horiz-adv-x="1351" d="M147 492l29 163h1229l-29 -163h-1229z" />
<glyph unicode="&#x2018;" horiz-adv-x="399" d="M252 973l166 471h164l-84 -471h-246z" />
<glyph unicode="&#x2019;" horiz-adv-x="399" d="M252 973l84 471h246l-166 -471h-164z" />
<glyph unicode="&#x201a;" horiz-adv-x="399" d="M37 -246l84 471h246l-166 -471h-164z" />
<glyph unicode="&#x201c;" horiz-adv-x="747" d="M242 973l166 471h163l-84 -471h-245zM590 973l166 471h164l-84 -471h-246z" />
<glyph unicode="&#x201d;" horiz-adv-x="747" d="M252 973l84 471h246l-166 -471h-164zM600 973l84 471h246l-166 -471h-164z" />
<glyph unicode="&#x201e;" horiz-adv-x="747" d="M37 -246l84 471h246l-166 -471h-164zM385 -246l84 471h246l-166 -471h-164z" />
<glyph unicode="&#x2022;" horiz-adv-x="552" d="M184 532l66 367h368l-65 -367h-369z" />
<glyph unicode="&#x2026;" horiz-adv-x="1208" d="M78 -20l43 245h246l-43 -245h-246zM477 -20l43 245h246l-43 -245h-246zM877 -20l43 245h245l-43 -245h-245z" />
<glyph unicode="&#x202f;" horiz-adv-x="362" />
<glyph unicode="&#x2039;" horiz-adv-x="665" d="M131 512l479 512l154 -113l-367 -393l-2 -12l228 -393l-193 -113z" />
<glyph unicode="&#x203a;" horiz-adv-x="665" d="M80 113l366 393l3 12l-228 393l195 113l299 -512l-479 -512z" />
<glyph unicode="&#x205f;" horiz-adv-x="453" />
<glyph unicode="&#x20ac;" horiz-adv-x="983" d="M106 492l48 153h102l25 143h-123l49 154h112q39 147 93.5 245.5t122 158t148.5 84t177 24.5q109 0 193 -12t127 -29l-21 -113h-246q-53 0 -102 -17t-92 -58t-82 -109.5t-70 -173.5h408l-60 -154h-389l-24 -143h358l-57 -153h-316q-4 -104 10.5 -173t46 -111t79 -58.5 t106.5 -16.5h246l-21 -113q-47 -16 -135.5 -28t-197.5 -12q-102 0 -178 24.5t-125.5 83.5t-69 157.5t-8.5 246.5h-134z" />
<glyph unicode="&#x2122;" horiz-adv-x="1423" d="M250 1311l22 123h523l-23 -123h-174l-86 -492h-174l86 492h-174zM727 819l150 615h184l100 -361l228 361h184l-68 -615h-174l43 359l-172 -277h-143l-74 277l-84 -359h-174z" />
<glyph unicode="&#xe000;" horiz-adv-x="1024" d="M0 0v1024h1024v-1024h-1024z" />
</font>
</defs>
</svg>
