<?xml version="1.0" standalone="no"?>
<!DOCTYPE svg PUBLIC "-//W3C//DTD SVG 1.1//EN" "http://www.w3.org/Graphics/SVG/1.1/DTD/svg11.dtd" >
<svg xmlns="http://www.w3.org/2000/svg">
<metadata></metadata>
<defs>
<font id="ds_stylocregular" horiz-adv-x="368" >
<font-face units-per-em="2048" ascent="1569" descent="-479" />
<missing-glyph horiz-adv-x="1024" />
<glyph horiz-adv-x="2048" />
<glyph horiz-adv-x="2048" />
<glyph unicode="&#xd;" horiz-adv-x="2048" />
<glyph unicode=" "  horiz-adv-x="1024" />
<glyph unicode="&#x09;" horiz-adv-x="1024" />
<glyph unicode="&#xa0;" horiz-adv-x="1024" />
<glyph unicode="&#x22;" horiz-adv-x="819" d="M348 1059l-229 -191q-53 0 -78 15v10q0 127 178 215q125 213 160 213q24 -53 24 -137q0 -29 -6 -46t-28 -40zM569 1282l52 33l38 -10q0 -2 23 -5l94 -12q5 0 -42.5 -56.5t-103 -131.5t-59.5 -111l-28 -84l4 -6q6 -12 8 -14q2 -3 -1 -4.5t-9.5 -2t-13 -0.5t-14.5 0.5 t-11 0.5v2q-1 1 -13.5 6t-27 24t-31.5 60q8 44 39 119l26 40q54 93 66 152h4zM96 956q37 33 51 54v4q0 9 12 23.5t21 21.5h-4q-25 0 -44.5 -25.5t-27.5 -48t-8 -29.5z" />
<glyph unicode="%" horiz-adv-x="786" d="M657 1315q2 -6 12 -21t15 -16v-4q7 -20 25 -44t18 -46q0 -3 -4 -31q-84 -178 -256 -510l-80 -151q-1 -4 6.5 -12.5t9.5 -8.5l7 -4q-11 -28 -111 -139q-22 -29 -47 -83t-49 -89q-12 -15 -31 -15q-41 0 -86 60.5t-45 105.5q91 81 227 344q202 388 318 641q7 10 28.5 16.5 t42.5 6.5zM569 473q72 0 124 -47t52 -113t-52 -111.5t-124 -45.5t-123 45.5t-51 111.5t51 113t123 47zM244 1270q72 0 124 -47t52 -113t-52 -112t-124 -46t-123 46t-51 112t51 113t123 47zM571 393l-8 -2q-63 0 -95 -16t-32 -62q0 -82 137 -82q132 0 132 82q0 46 -35.5 63 t-98.5 17zM246 1190l-8 -2q-63 0 -95 -16t-32 -62q0 -82 137 -82q62 0 96.5 18t34.5 64t-35 63t-98 17z" />
<glyph unicode="-" d="M139 514h187q0 -18 2 -20l-2 -13q-6 -39 -56 -69l-8 -9q-12 -12 -119 -12h-71q-33 0 -33 6q0 1 2.5 2t8 7t11.5 16v4q9 31 28.5 56t49.5 32z" />
<glyph unicode="." horiz-adv-x="274" d="M66 229l112 -28q55 -85 55 -144v-12q0 -49 -59 -49q-10 0 -12 2h-12l-11 2h-20q-8 0 -10 -2h-9l-8 -4q-1 0 -3 -1t-3 -1q-15 0 -25 34.5t-10 47.5v45q0 15 -8 28q0 3 -1 6l-1 3v16q0 22 25 57z" />
<glyph unicode="/" horiz-adv-x="768" d="M657 1419q3 -8 12.5 -26t14.5 -19v-4q5 -26 24 -53t19 -53q0 -7 -4 -35q-92 -230 -256 -602q-80 -177 -74 -189q9 -12 10 -12l7 -4q-4 -15 -37 -62t-41 -55l-33 -47q-23 -37 -48 -98.5t-48 -104.5q-10 -16 -31 -16q-41 0 -86 71t-45 123q83 86 152 242l8 19 q22 51 37.5 92t23.5 55q209 450 330 762q14 20 41 20q4 0 24 -4z" />
<glyph unicode="1" horiz-adv-x="641" d="M330 1294v2q54 -10 116 -47q65 -35 84 -114q0 -6 -0.5 -11.5t-2 -14.5t-3.5 -17t-6 -25t-8 -32.5t-11 -45t-14 -57.5q0 -31 5.5 -95.5t17.5 -229.5t24 -390l9 -139q0 -11 32 -25q8 0 17.5 -16t9.5 -29q0 -15 -39 -18q-50 -4 -65 -4q-63 0 -136 36t-73 82q0 40 43 105 l-23 639q-14 6 -106 6q-123 0 -160 64q0 24 21.5 34.5t80.5 14.5q11 1 32 12.5t38 11.5q39 13 57.5 23.5t36.5 32.5l4 38q0 19 -6 65t-6 56q0 49 31 88z" />
<glyph unicode="2" horiz-adv-x="1148" d="M895 1141q40 0 79.5 -68t39.5 -129q0 -171 -162 -323l-403 -383v-21q54 -6 77 -6q53 0 205 11t199 22q68 17 125 51q0 10 15 22.5t24 14.5q4 1 6 -2.5t4 -13t2.5 -21t1.5 -31.5q0 -49 -27 -145q-12 -36 -60.5 -60t-118.5 -34t-123 -13.5t-109 -3.5q-121 0 -238 -18 q-90 -23 -176 -23q-19 0 -42 3.5t-52.5 12.5t-52 28t-29.5 46q-39 66 -39 107v14l92 43l264 250q4 4 74.5 62t130.5 112t137.5 144.5t122.5 175.5q33 56 33 137v39zM629 1278h39q188 0 231 -82q-3 -1 -43 -10.5t-76.5 -20.5t-90.5 -29.5t-97.5 -42.5t-84 -53.5t-63 -68.5 t-22.5 -82q0 -13 15.5 -24.5t33.5 -19t33.5 -21.5t15.5 -31q0 -23 -71 -23q-13 0 -47 2.5t-56 3.5q-20 0 -55 62.5t-35 95.5v4q0 3 12 53q57 111 156.5 199t204.5 88z" />
<glyph unicode="3" horiz-adv-x="1071" d="M90 1313v2q2 2 12 2q11 0 29 -23q10 -18 88 -18q22 0 184.5 11t339.5 11q68 0 106.5 -21.5t55.5 -88.5q-11 -38 -68.5 -82t-123.5 -79t-139 -84.5t-107 -94.5q-1 -1 -2 -4t-2 -4q0 -9 5.5 -15t19.5 -10.5t27 -7l39 -7.5t44 -9q148 -34 239.5 -95t149.5 -153q2 -4 8.5 -14 t8.5 -13t7 -11.5t7 -12.5t5 -11.5t4 -13t2 -12.5t1 -15q0 -104 -51 -189.5t-135 -138.5t-187.5 -81.5t-214.5 -28.5q-30 0 -94.5 16.5t-133.5 42.5t-121 64.5t-52 75.5q3 19 20 38t53 39.5t106.5 33t164.5 12.5q47 0 47 -11q0 -21 -61 -42t-124 -41.5t-65 -39.5 q20 -38 101 -38q167 0 333 112t236 273q-11 25 -27 38.5t-56.5 21.5t-98.5 10.5t-164 2.5q-21 0 -109 -49q-34 20 -94.5 87t-60.5 114q32 15 70 46t66 59.5t81 84t84 86.5q0 22 -21 52l-55 -9q-2 0 -19 -4.5t-31.5 -7.5t-38.5 -6.5t-56 -5.5t-68 -2q-87 0 -129.5 36 t-42.5 126q0 23 8 96z" />
<glyph unicode="4" horiz-adv-x="1298" d="M778 1122v2q0 64 62 117q56 47 123 62v-37q0 -62 2 -102t14.5 -94.5t36.5 -88.5q7 -8 26 -54t47 -113t48 -109q13 -29 36 -79.5t35 -77.5t26 -62t23 -62q0 -4 -1.5 -16.5t-2 -16.5t-2 -14t-2.5 -13t-4 -10.5t-6 -10t-8 -7t-10.5 -6t-13.5 -3t-17 -1.5q-8 0 -56.5 5 t-60.5 5q-84 0 -110 -45l16 -293q-27 -6 -55 -6q-71 0 -125 42t-54 113v70q0 74 -45 107q-475 -15 -487 -27l-23 -23q-32 -32 -67 -32q-24 0 -41.5 24t-25.5 59t-11.5 63.5t-3.5 49.5q0 43 16.5 56.5t61.5 13.5q29 0 39 6q338 393 620 608zM754 823q-12 39 -25 39 q-3 0 -6 -1.5t-8.5 -7.5t-12 -14.5t-20 -25t-29.5 -36t-44 -51l-60 -67.5q-87 -99 -98 -137q17 0 72.5 -5t86.5 -5q33 0 48 0.5t33.5 4.5t25.5 10.5t14 20.5t8.5 33.5t1.5 49.5q0 72 13 192zM1137 561q-9 36 -31 111q-4 38 -26.5 90.5t-58 118t-42.5 80.5l-16 -9v-391 l49 -37q14 0 25.5 1.5t24.5 5.5t20.5 6.5t26 11t28.5 12.5z" />
<glyph unicode="5" horiz-adv-x="1001" d="M156 1305v2q76 -24 208 -35t406 -19q21 -1 63 -5t66 -5q62 -71 62 -170q0 -14 -2 -33t-9.5 -41t-19.5 -22q-7 0 -17 10.5t-43 52.5q-156 -8 -180 -8q-159 0 -315 27q-35 -21 -35 -76q0 -3 3.5 -27t7 -56.5t3.5 -55.5q34 -21 86 -21l62 4q83 0 162.5 -42t134 -104.5 t88 -135.5t33.5 -135q0 -84 -37 -154.5t-97 -118t-137 -80.5t-154.5 -48t-152.5 -15q-43 0 -112 28.5t-129 81.5t-60 109q0 43 36 83.5t85.5 65.5t91 40t63.5 18q-3 -6 -36 -30t-62 -53.5t-29 -53.5q0 -29 82 -29q52 0 104.5 5t133.5 20.5t156.5 55.5t126.5 99 q-102 193 -422 205q-1 0 -46 -22.5t-83 -22.5q-113 0 -113 233q0 20 -14.5 151t-14.5 179q0 89 56 148z" />
<glyph unicode="6" horiz-adv-x="1019" d="M846 1278q4 -4 56 -38.5t71 -63.5v-29q-6 10 -82.5 40t-120.5 30q-77 0 -151.5 -61.5t-130.5 -158.5t-100 -211t-66.5 -224t-22.5 -193q0 -33 8.5 -79.5t26 -99t51.5 -88.5t78 -36q60 0 118 50t98 121t64.5 148t24.5 133v19q0 38 -49 38q-59 0 -123 -27t-80 -73 q0 -17 21.5 -65t46.5 -48q22 0 34 -26v-6h-38q-8 0 -25 8.5t-48.5 35t-64.5 64.5q-21 25 -37 53t-23 43l-7 15q-2 2 -2 4q0 61 47.5 105t110 61.5t128.5 17.5q148 0 234 -85.5t86 -233.5q0 -135 -89.5 -256.5t-211.5 -173.5h-4q-8 0 -31 -8.5t-35 -8.5q-17 0 -50.5 20.5 t-53.5 20.5q-21 0 -69 -9t-73 -9q-309 0 -321 489q0 -1 0.5 1.5t1.5 10t2 17.5q9 141 68 280t152.5 248.5t224.5 177.5t272 68q48 0 84 -8z" />
<glyph unicode="7" horiz-adv-x="1067" d="M500 1278l399 -33q70 -84 70 -172v-29q-64 -21 -103 -100q-42 -85 -90 -172q0 -31 53 -31q8 0 31 4.5t66 8.5t100 4q-25 -66 -70 -125q-21 -33 -55.5 -48.5t-95.5 -15.5q-115 0 -182 -94q-14 -20 -31 -48.5t-37 -79.5t-20 -87l-33 -104q-2 -6 -23.5 -49t-21.5 -66 q0 -70 -64 -70q-12 0 -26.5 8.5t-49.5 40.5q-4 28 -4 41v43q0 51 -24 72q-14 12 -20 56.5t-11 97.5t-16 105t-42.5 87t-82.5 35q-23 0 -38.5 32t-15.5 58q0 32 10 69.5t31 37.5q19 0 156 -13.5t154 -13.5q43 0 125 14q17 21 34.5 48.5t40 71t33.5 65t38 78.5t30 63 q-60 23 -168 23q-163 0 -357 -37q-31 -12 -45 -45q0 -17 -8 -17q-9 0 -22.5 17.5t-34 64.5t-39.5 115q0 56 41 69q184 21 418 21zM395 516h-8q-13 0 -52 6t-50 6q-45 0 -45 -30q0 -24 30 -83t52 -59q26 0 49.5 53.5t23.5 86.5v20z" />
<glyph unicode="8" horiz-adv-x="1075" d="M565 1278v4q73 -38 154.5 -72.5t120.5 -38.5q46 -5 69 -47.5t35 -115.5q0 -65 -64 -159t-147 -157q131 -66 181 -105q120 -95 120 -237q0 -46 -25 -100t-66.5 -101.5t-101 -79.5t-120.5 -32q-67 0 -138 36.5t-132 104.5q3 -5 11 -6t24.5 -1t23.5 -1q54 0 141 47.5 t157.5 121.5t70.5 136q0 40 -76.5 80.5t-147.5 40.5q-33 0 -98.5 -34t-130 -82t-112.5 -106.5t-48 -101.5q0 -32 30 -65t72.5 -59.5t85.5 -49.5t73 -42.5t30 -30.5q0 -3 -4 -8.5t-15.5 -12t-28 -11.5t-44.5 -9t-62 -4q-73 0 -137 18t-115 53.5t-80.5 94t-29.5 133.5 q0 114 66.5 212.5t171.5 176.5v4q0 24 -15 47.5t-37 46t-44 48t-37 62.5t-15 80q0 142 97.5 238t242.5 96q29 0 94 -12zM733 1120v2q-12 37 -53 37q-24 0 -114 -48.5t-176.5 -120.5t-86.5 -122q0 -25 34.5 -56.5t84.5 -31.5q31 0 83 30.5t103 77t88 110.5t37 122z" />
<glyph unicode="9" horiz-adv-x="1136" d="M41 805q0 20 15.5 61t44.5 95.5t79 111t111 104.5t148.5 78.5t183.5 30.5q191 0 344 -90q-3 -20 -47 -20q-41 0 -41 -21t15 -53t38 -64t44.5 -59t40 -48.5t19.5 -23.5q60 -117 60 -223q0 -121 -59.5 -239t-155 -207.5t-212.5 -155t-235 -92.5q-62 5 -130.5 31t-102.5 67 q31 23 74 59t67.5 55.5t68 46t97.5 50.5q283 164 377 301q-53 -37 -179.5 -75t-201.5 -38q-57 0 -119.5 12.5t-124 38.5t-110 62.5t-79 90t-30.5 114.5zM901 709v2q12 21 12 88q0 198 -159 342q-80 -17 -158.5 -48t-157.5 -78.5t-141.5 -117.5t-91.5 -152q119 -94 332 -94 q200 12 364 58z" />
<glyph unicode=":" horiz-adv-x="356" d="M72 244v2q22 11 37.5 14.5t56.5 3.5q49 0 99 -47t50 -117q0 -61 -16.5 -76.5t-62.5 -15.5q-9 0 -39 -12q-4 0 -19 -10.5t-24 -10.5q-48 0 -80.5 25t-32.5 53q0 33 16.5 78.5t16.5 85.5zM123 788v3h12q11 0 21 2q41 0 99 -56t58 -84q0 -8 -10 -63q0 -41 -25 -77.5 t-49 -45.5q-9 0 -20 4.5t-19 9t-21 15.5t-18.5 17t-20 20.5l-17.5 17.5q-12 12 -18 23.5t-6.5 17.5t0.5 19t1 18q0 61 33 159z" />
<glyph unicode=";" horiz-adv-x="497" d="M135 -119l98 314q11 2 27.5 13t41 20.5t60.5 9.5q23 0 35 -21q0 -38 -28 -92q-2 -4 -31 -66.5t-74 -156.5q-122 -181 -203 -246h-20q4 3 18 38t36 92t40 95zM262 741l37 4q36 0 51 -24q2 -3 30.5 -24t52.5 -49t24 -54q0 -7 -5.5 -31t-15.5 -56t-29 -56.5t-42 -24.5h-5 q-46 0 -73 41q-27 40 -27 63q0 27 2 37q8 54 8 123q0 27 -8 51z" />
<glyph unicode="&#x3c;" horiz-adv-x="839" d="M799 201v-27q0 -46 -7 -72.5t-34 -50.5q-215 0 -359 285q-24 15 -68 38.5t-79 42t-76.5 47t-69 56t-46.5 65.5t-19 79q0 53 34.5 90t100.5 41q0 14 -2 32t-2 29q0 44 52 89.5t126.5 84t149 76.5t126.5 81t52 83v14q0 3 -1 14t-1 21q5 0 37 -22.5t32 -26.5q6 -17 25 -27 q21 -9 21 -61q0 -57 -16 -96.5t-45.5 -63t-66.5 -40t-83.5 -34.5t-92 -39.5t-96.5 -61.5t-92 -95q-25 -41 -25 -62q0 -32 42.5 -65t160.5 -84q71 -40 111.5 -66.5t87.5 -67.5t76 -91t47 -115zM651 139q-48 57 -96 82q-22 0 -49 27q-26 26 -29 37l-6 -11l8 -8 q22 -22 50.5 -52.5t37.5 -39.5q30 -35 84 -35z" />
<glyph unicode="B" horiz-adv-x="1335" d="M55 1327v2q99 67 217.5 98t276.5 31q110 0 218.5 -22t209.5 -66t178.5 -121t110.5 -176q-40 -273 -224 -383v-12q20 -18 65.5 -54t70.5 -60t56 -63.5t45.5 -89.5t14.5 -112q0 -57 -24.5 -103.5t-64 -77t-97.5 -53t-114.5 -35t-127.5 -19.5t-124 -9t-115 -2 q-124 0 -216 30t-149 100.5t-57 176.5q0 35 16 35q5 0 25 -22t50 -44t60 -22q21 0 43 16v66q0 362 -39 483q-105 45 -200 230q-12 12 -46 70.5t-59 88.5l-14 82q0 23 14 37zM999 1124v2q-53 74 -153 105t-250 31v-48q0 -10 -1 -88t-1 -149v-215q0 -33 37 -33q21 0 76 37 t116 91.5t112.5 128.5t63.5 138zM1042 438v2q-39 59 -111.5 92.5t-193.5 45.5q-3 0 -13.5 -4t-33.5 -9t-55 -8q-15 0 -23 -8v-98q0 -31 -2 -58t-7 -72t-7 -71q14 -37 59 -37q38 0 95.5 14t121 39.5t112.5 71t58 100.5zM459 1253v13q-9 -9 -29 -9l-12 -4q-84 -21 -99 -28 q-28 -8 -75 -41v-21q0 -1 -0.5 -1.5t-1 -2t-0.5 -4.5v-10q0 -27 30 -75t37 -71l4 -8q18 -34 47 -106q-12 50 -12 94v55q0 8 2 21t2 18q0 21 2 35t8 24.5t10 15.5t17.5 17t20.5 19q49 37 49 69z" />
<glyph unicode="C" horiz-adv-x="1200" d="M840 1446h78q143 0 143 -141q0 -9 49 -177q0 -112 -83 -198t-185 -94q35 65 35 176q0 62 -29 108.5t-98 98.5q-230 -131 -360 -354.5t-130 -491.5q0 -25 19 -43t50.5 -26.5t62.5 -12.5t63 -4q40 0 184.5 35.5t302.5 98.5t191 120q26 -3 26 -31q0 -80 -57 -170.5 t-146.5 -165.5t-211.5 -124.5t-242 -49.5q-121 0 -211 39.5t-144 112t-80 168t-26 215.5q0 108 29.5 229t82 231.5t133 198.5t173.5 123q9 9 24 35q0 7 -16 11.5t-35 4.5q-26 0 -51 14q94 76 266 76q67 0 193 -12z" />
<glyph unicode="D" horiz-adv-x="1376" d="M41 1249q0 60 34.5 103t93.5 65t121.5 31.5t133.5 9.5q151 0 347 -71.5t302 -135.5q71 -49 119.5 -120t91.5 -181q4 -10 11.5 -28t11.5 -29.5t8 -29.5t4 -36l-4 -12v-18q0 -1 -1 -2.5t-2 -6t-1 -10.5q0 -22 2 -47.5t4.5 -44t8 -59.5t9.5 -70q-16 -124 -85.5 -230.5 t-173 -177t-230.5 -110t-258 -39.5q-414 0 -455 283h10q20 0 69 -14.5t71 -14.5q61 0 61 65l-29 543q0 113 7 182q0 5 33.5 49t33.5 66q0 16 -20 25q-146 -18 -193 -117q4 -28 45 -154.5t41 -150.5v-17q-42 11 -65 99q-17 49 -21 57q-50 91 -92.5 193.5t-42.5 154.5z M1198 627v2q-12 92 -51.5 169t-92 131.5t-130 103t-150 81t-168.5 66.5l-24 -9q-3 0 -9 -35t-11 -84.5t-5 -84.5q0 -49 11.5 -196t11.5 -198q0 -81 -8 -127.5t-40 -95.5q-26 -58 -26 -80q0 -6 2 -10q8 0 16 2q209 0 394 97t280 268z" />
<glyph unicode="E" horiz-adv-x="1458" d="M1188 1454h2q36 0 69 -46.5t33 -68.5q0 -8 -2 -20t-9 -33.5t-27 -39.5t-50 -25l-684 -240q44 28 228.5 103t252.5 130q0 11 -14.5 20t-23.5 9q-85 0 -285 -15.5t-240 -15.5q0 -1 2 -7t4.5 -17.5t4.5 -27t4 -41t2 -54.5q0 -6 -2 -13.5t-5.5 -19t-5.5 -20.5 q0 -19 6.5 -45.5t6.5 -48.5q0 -16 22 -25q11 2 116 8.5t250 12.5t236 6q66 0 104 -14t38 -54v-4q2 -6 4.5 -17.5t5 -18.5t6.5 -11q-42 -42 -135.5 -83.5t-196.5 -41.5q-141 0 -241 -53q-5 -3 -30.5 -13t-49 -21.5t-57.5 -40.5t-62 -69v-119q0 -83 27 -102h36q73 0 184 21 t210 46.5t226 46.5t230 21q39 0 39 -22q0 -14 -19.5 -42.5t-21.5 -37.5q-49 -139 -172 -180q-12 -3 -54.5 -20.5t-93.5 -30t-142 -28t-248.5 -24t-366.5 -8.5q-40 0 -72.5 3.5t-68.5 15.5t-60.5 31.5t-40.5 54t-16 81.5q0 23 5.5 42.5t20.5 39.5t22.5 29t32.5 32t30 27 q49 46 65 76.5t16 99.5q0 81 -12 121.5t-55 59.5q-28 4 -42.5 29t-14.5 53t42.5 81.5t75.5 53.5l-12 262q-19 22 -65 31q-24 0 -42.5 20t-27.5 50t-13 56t-4 46q0 36 23 59q22 -3 59.5 -9.5t67.5 -10.5t55 -4q19 0 132.5 7t300 14t380.5 7h17q12 0 45 -2t45 -2zM688 672v4 q-13 -8 -37 -8q-13 0 -52 5t-71 5q-77 0 -77 -70l4 -18q0 -7 13 -15t24 -10q22 0 82 34.5t83 39.5q10 0 22.5 4.5t12.5 11.5q0 5 -4 17zM246 307v31q-3 35 -45 35q-23 0 -45.5 -25.5t-22.5 -50.5q0 -41 60 -41q53 0 53 51z" />
<glyph unicode="F" horiz-adv-x="1359" d="M41 1434q9 20 65 20q23 0 64 -29q50 0 440 12.5t576 12.5q20 0 52.5 -45.5t55.5 -118.5q9 -24 25 -37q-116 -84 -317.5 -182.5t-421.5 -183.5q-16 -7 -25.5 -28.5t-9.5 -43.5v-61q0 -13 -4 -17l16 -18q17 0 232.5 23.5t320.5 23.5q1 2 8 14t15 19.5t18 7.5q13 0 27 -21.5 t14 -40.5q0 -7 -3 -25t-3 -32q0 -1 12 -25t12 -57q0 -31 -9.5 -52.5t-28 -32t-35.5 -14.5t-43 -7q-55 -7 -210 -18t-245 -11q-43 0 -58.5 -12.5t-15.5 -53.5q0 -29 51.5 -146t51.5 -169q0 -45 -54 -65.5t-131 -20.5q-96 0 -135 45q0 40 -12 170.5t-12 157.5q0 4 1 22t1 27 q0 28 -19.5 50.5t-48 39t-56.5 34t-47.5 45.5t-19.5 64q0 21 19.5 40t44.5 33.5t52.5 45t39.5 70.5l-8 146v1q6 126 43 189q-40 9 -104.5 46t-122.5 96t-58 112zM553 1081q0 -20 3.5 -58.5t7 -69t3.5 -31.5v-21h29q121 55 207.5 102t232.5 140q13 10 13 45q-76 8 -224 8 q-150 0 -229 -8q-43 -37 -43 -107zM291 713v16q0 21 -29 21q-7 0 -15.5 -12.5t-8.5 -30.5q0 -15 36 -15q7 0 12 7.5t5 13.5z" />
<glyph unicode="G" horiz-adv-x="1599" d="M45 391v29q0 109 10.5 209t33.5 197.5t62.5 176.5t93 139.5t129.5 94t169 33.5q11 0 24.5 4t23 8t22.5 10.5t16 7.5q-41 27 -41 60q0 8 12 23t33 32.5t59.5 30t83.5 12.5q55 0 147.5 -31t185.5 -81t160.5 -125.5t67.5 -153.5q0 -73 -9 -100t-38 -27q-1 0 -29 21.5 t-72.5 53t-94.5 62.5t-105 52.5t-94 21.5q-35 0 -79.5 -11.5t-97 -33.5t-106.5 -58.5t-106 -82.5t-98 -108.5t-81 -134t-55 -163t-20 -190.5q95 -84 224.5 -126t271.5 -42q27 0 108.5 12t136.5 12q37 0 89 34t59 69q-20 11 -105 17.5t-162 6.5q-53 0 -100.5 12t-89.5 37 t-67 73t-25 112q0 42 12.5 66t56.5 39.5t127 15.5q43 0 124 -8.5t81 -14.5q0 -8 -137 -8q-36 0 -66 -13t-30 -26q0 -4 8 -9.5t34 -14t67 -15t116 -11.5t172 -5q11 0 188 9t214 9q38 0 38 -35t-33.5 -89.5t-79 -96t-77.5 -41.5q-1 0 -24 4t-46 4q-34 0 -34 -22q0 -7 5 -27 t5 -27q0 -59 -39.5 -106.5t-100 -77t-136.5 -50t-144 -28.5t-127 -8q-112 0 -234 25t-232.5 71.5t-182.5 124t-72 170.5z" />
<glyph unicode="H" horiz-adv-x="1732" d="M41 848q0 11 16 37q17 0 36 -12.5t46.5 -24.5t65.5 -12q16 0 28 15.5t19 42t12 54.5t7 62.5t2.5 54.5t0.5 41q0 169 -32 332q16 16 53 16q21 0 70 -36.5t102 -83t61 -52.5v-514q284 -71 607 -92q39 7 39 108q0 6 13 149t25.5 301.5t12.5 203.5q0 -1 2.5 0t8.5 2.5t13 1.5 q4 0 20.5 -7.5t40.5 -18.5t42 -17q51 -19 75.5 -37.5t24.5 -46.5q0 -22 -3 -143.5t-3 -210.5q0 -17 -11.5 -91.5t-11.5 -128.5q0 -43 26 -66.5t103 -23.5q76 0 99 -53q41 -91 41 -123q0 -47 -176 -49q-32 0 -68 -8q-18 -35 -18 -123q0 -18 30 -246q0 -20 -17 -34.5 t-46 -14.5q-21 0 -57 17.5t-218 113.5q49 27 49 90q0 18 -5 64.5t-5 58.5q0 9 4 37l-39 41q-140 8 -536 53l-4 -12q0 -33 81 -84.5t227.5 -123t178.5 -89.5q-59 14 -160 59q-51 37 -163 66q-25 7 -92 44.5t-95 37.5q-44 0 -47 -123q0 -2 4 -51t4 -68q0 -88 -43 -131 q-113 21 -207 143l-16 357q-23 23 -62.5 50.5t-67.5 46.5t-49.5 47.5t-21.5 60.5q0 15 -8 67.5t-8 75.5z" />
<glyph unicode="I" horiz-adv-x="448" d="M123 1458q27 -20 65 -33q20 -20 49 -32t50 -27.5t35 -52.5q11 -122 23.5 -423.5t12.5 -422.5q21 -16 45 -16q5 0 5 2q0 -12 -26 -109.5t-26 -130.5q0 -19 6.5 -45.5t6.5 -48.5q0 -19 -11 -90q-9 -33 -57 -33q-59 0 -144 43.5t-116 83.5q51 105 51 283v100q0 9 -3.5 35.5 t-4.5 44.5q0 502 -37 829q0 18 26 30.5t50 12.5z" />
<glyph unicode="J" horiz-adv-x="937" d="M647 1403v2l41 12q51 -16 92.5 -82t66 -153t37.5 -173.5t13 -156.5q0 -96 -24 -223t-66.5 -258t-110.5 -249.5t-147 -182.5q-5 -4 -21.5 -18.5t-25 -20.5t-26 -12.5t-36.5 -6.5q-8 0 -17.5 20.5t-21.5 20.5q-10 0 -41 -15.5t-49 -15.5q-59 0 -104.5 45t-66.5 109t-21 131 q0 50 8 93.5t27.5 88t60.5 71t100 26.5q1 0 3 -5.5t4 -14.5t2 -17q0 -1 -3 -15t-6.5 -36t-3.5 -43q0 -1 4 -17v-20q0 -71 20 -148t47 -124.5t48 -47.5q51 24 99 212.5t73 394.5t25 331q0 134 -23 314q-26 20 -92 20q-49 0 -105.5 -6.5t-111.5 -19t-91 -35.5t-36 -52 q0 -6 9.5 -19.5t21 -28t14.5 -19.5q0 -1 -16 -8q-69 19 -112.5 76t-43.5 130q0 44 41.5 81t103 58.5t123.5 33.5t111 12q131 0 227 -39z" />
<glyph unicode="K" horiz-adv-x="1204" d="M934 1458q46 -19 101 -87t55 -122q0 -29 -31 -73.5t-91.5 -102t-123.5 -112t-155.5 -126.5t-156.5 -120t-155 -115v-35q23 -17 142.5 -116t198.5 -150t128 -51q22 0 22 24q2 18 -22 69q-10 22 -4 22q8 1 47 -27q90 -51 182 -120t92 -101q0 -46 -28 -80.5t-91 -34.5 q-184 0 -327 75.5t-340 284.5q-16 0 -24.5 -35.5t-8.5 -78.5q0 -38 -31 -138t-69 -100q-24 0 -86 49q-53 30 -85 75t-32 77q0 15 13.5 37t29.5 44t29.5 60.5t13.5 83.5q0 4 -2 17.5t-2 23.5q0 3 -2 5t-2 3l-4 43v39q0 7 -8.5 14.5t-19.5 14t-19.5 23t-8.5 38.5q0 11 32 51 t32 48q0 186 -51 641q14 20 43 20q50 0 90 -33.5t64.5 -84t42 -119t25.5 -129t11 -123.5l33 4q307 196 532 489q0 24 21 39z" />
<glyph unicode="L" horiz-adv-x="1183" d="M176 870q0 113 38 221.5t120 174.5q-9 12 -60 12q-27 0 -30 33q0 8 12.5 25t39 38t61 39.5t84.5 31.5t104 13q352 0 352 -254q0 -19 -7 -62.5t-18 -43.5q-14 0 -53 22.5t-82 49t-99 49t-101 22.5q-17 0 -27.5 -2t-23.5 -13.5t-21 -33.5q-12 -35 -20.5 -106.5t-8.5 -137.5 q0 -46 1 -90.5t1 -64.5q4 -98 4 -125q0 -2 -5 -35.5t-5 -46.5q0 -7 6 -16t6 -17v-53q0 -1 -1 -8t-1 -21q0 -68 28.5 -98.5t98.5 -30.5q3 0 51.5 -9t125 -17.5t147.5 -8.5q42 0 72 15.5t56.5 57.5t42 124t21.5 207l37 2q-4 -13 -8 -71.5t-8 -135t-8 -113.5q45 -20 45 -69 q0 -23 -14.5 -48.5t-29 -62.5t-14.5 -86q0 -8 5.5 -35.5t5.5 -42.5q0 -23 -14 -36t-52 -13q-23 0 -47.5 12.5t-49 31t-53.5 36.5t-73.5 30.5t-97.5 12.5q-2 0 -20.5 -2t-37.5 -2q-46 0 -118 -10t-82 -31q-20 -20 -29.5 -28.5t-23 -16.5t-25.5 -8q-44 0 -86.5 19t-83 57 t-64.5 64.5t-59 73.5t-39 52q5 27 23 39t59 12q2 0 9 -1.5t21 -3t35 -1.5q30 0 42 11.5t12 35.5q0 81 -33 244t-33 243z" />
<glyph unicode="M" horiz-adv-x="1581" d="M207 977q0 19 -41 87t-82 148t-41 127q0 18 49 68.5t88 50.5q5 0 49.5 -77t111.5 -192.5t141.5 -236t152.5 -222.5t131 -136q63 72 132 197.5t114.5 230.5t88 184.5t64.5 79.5q68 0 68 -106q0 -123 -28.5 -227t-66.5 -173t-96.5 -191t-99.5 -249q0 -9 8.5 -25t20.5 -16 q6 0 21.5 18.5t34.5 56t30 77.5h4q0 2 4 2q8 0 8 -56q0 -26 -6.5 -51.5t-20.5 -63t-22 -65.5q0 -45 -23 -81t-47 -36q-7 0 -50 21.5t-58 21.5q-7 0 -27 -17t-37 -17q-37 0 -87 50t-50 89q0 23 9.5 55.5t9.5 46.5q0 41 -48 106t-122 152t-109 146q-9 0 -14 -5.5t-8 -24.5 t-3 -56q0 -43 -8.5 -113t-29.5 -162.5t-51.5 -171t-81 -133.5t-111.5 -55q-11 0 -24 30t-13 58q0 93 41.5 284.5t83 361t41.5 210.5zM1255 565v37v49q0 12 -1 87t-1 145v223v324q44 0 111 -37.5t111 -87.5l9.5 -133t17 -244.5t17.5 -284t15 -315.5t6 -275q0 -49 -35 -49 q-15 0 -86 35t-147 84q-17 189 -17 442z" />
<glyph unicode="N" horiz-adv-x="1431" d="M41 1313q0 50 16 97.5t52 47.5q16 0 47 -64t47 -69q13 0 51 21.5t63 21.5q99 0 99 -225q0 -75 10 -127q33 -33 94.5 -112.5t125.5 -162t137 -166.5t150 -146t142 -81q19 0 19 25v80q0 222 -31 663q0 -2 -3 73.5t-6 157t-3 95.5q2 0 16 2t23 2q128 0 219 -117 q28 -137 28 -295q0 -110 -12 -280q0 -17 -10 -165.5t-10 -211.5q0 -4 2 -31.5t2 -54.5q0 -4 4 -4h20q9 0 17 24.5t8 36.5q0 1 -1 29t-1 43q0 43 12 67l12 -4q11 -79 11 -172q0 -67 -6 -116.5t-22 -97.5t-50.5 -73.5t-85.5 -25.5q-48 0 -115 31.5t-132.5 77.5t-148 115.5 t-144 126t-140 129.5t-117.5 108q-4 -66 -4 -107v-223q39 -79 39 -215q0 -25 -13 -33t-42 -8q-63 0 -124.5 28.5t-95.5 80.5q0 16 11.5 322.5t11.5 328.5q0 16 -5 82t-5 84q0 49 -40.5 132.5t-81 157t-40.5 97.5z" />
<glyph unicode="O" horiz-adv-x="1372" d="M41 680q0 198 103 391.5t272 284.5q10 5 57 14t55 14q51 5 118.5 39.5t111.5 34.5q103 0 195 -46t160 -123.5t118 -175.5t75 -205.5t25 -211.5q0 -70 -6 -127t-24.5 -119.5t-49.5 -104.5t-85.5 -69.5t-127.5 -27.5l-11 -24q-11 -24 -24.5 -48.5t-44.5 -57.5t-70 -58 t-103.5 -42.5t-141.5 -17.5q-111 0 -219 50.5t-193 137.5t-137.5 216.5t-52.5 275.5zM305 508q7 -17 24.5 -42.5t51.5 -60t75 -63t101 -48.5t125 -20q31 0 72.5 7t85.5 21t74 40t30 59q0 14 -14.5 72t-14.5 88l5 14q0 -2 9.5 -12t20 -22t13.5 -17q0 -8 6 -37.5t14 -37.5v-7 q7 -26 22 -61t25 -35q12 0 20.5 36.5t12 88.5t5 86.5t1.5 52.5q0 39 -9.5 107t-37 162.5t-67 175t-108.5 137.5t-153 57q-383 -178 -389 -741z" />
<glyph unicode="P" horiz-adv-x="1261" d="M119 565q0 148 43 148q18 0 58 -45t50 -45q29 0 29 28q0 5 -8 29t-8 39q0 5 3 20t6 46t3 75q0 3 -1 13t-1 20q0 7 -1 44t-1 71q0 164 78 254q-7 7 -34.5 13.5t-47.5 6.5q-154 0 -154 -129q0 -27 7.5 -59.5t25 -89t22.5 -74.5q10 -27 13 -66l-13 2q-147 189 -147 391 q0 25 28.5 58t80.5 66t142 55t197 22q96 0 195 -20t196 -64t172.5 -106.5t122 -154.5t46.5 -200q0 -125 -50.5 -225.5t-140.5 -167t-204 -107t-251 -55.5q-37 -4 -49 -16.5t-12 -42.5q0 -12 34 -110.5t34 -159.5q0 -18 -18 -23.5t-54 -5.5q-109 0 -203 70q-12 46 -12 137 v108q0 18 -4.5 30t-16.5 20.5t-21 12.5t-28 11q-37 0 -71.5 47.5t-34.5 128.5zM1012 815q0 80 -42.5 157.5t-109 134.5t-149.5 94.5t-162 43.5q0 -28 -11.5 -209.5t-11.5 -199.5q-3 -131 -12 -193l43 -20q149 0 253.5 44.5t201.5 147.5z" />
<glyph unicode="Q" horiz-adv-x="1347" d="M47 487q0 72 6.5 143.5t22.5 149.5t40.5 146.5t63.5 131t88.5 107t118.5 71t150 26.5q27 0 61 -11.5t107 -50.5q-132 -53 -237 -162.5t-165 -246t-74 -281.5q0 -54 17.5 -115t48.5 -61q13 0 61 27.5t68 27.5q118 -51 233 -51q116 0 162 24q137 198 137 486q0 49 -2 90.5 t-9.5 95t-20.5 96t-36.5 85.5t-56 72t-80.5 47t-108 18q-81 0 -213 -33v20q21 7 118.5 42.5t168 56t110.5 20.5q22 0 71.5 -33t110.5 -96t116.5 -140t93.5 -178.5t38 -199.5q0 -319 -237 -508q-4 -4 -18 -15.5t-22.5 -21t-8.5 -16.5q0 -3 5 -8t20.5 -12.5t39 -13.5t65 -10.5 t93.5 -4.5q73 0 100 47l13 -2q-30 -112 -108 -179t-187 -67q-53 0 -140 21.5t-165.5 48t-170 48t-153.5 21.5q-66 0 -84 -78q-25 9 -25 37q0 5 2 23.5t3 36.5q0 34 -43 37q-189 80 -189 292z" />
<glyph unicode="R" horiz-adv-x="1343" d="M41 1257q0 67 61.5 114t150.5 67t193 20q22 0 48.5 -1t80 -6.5t104.5 -14t115.5 -26.5t119.5 -42t109 -62t92 -84.5t61.5 -111.5t23.5 -141q0 -59 -28.5 -107.5t-77 -81t-107 -56t-126 -36t-125.5 -18.5t-113 -6v-25q15 -6 298 -193.5t308 -187.5q10 0 21 12t23.5 31 t20.5 27l9 -4q-1 0 -5.5 -33.5t-14 -81t-23 -95t-37 -81t-52.5 -33.5q-13 0 -34 8t-52.5 26t-62.5 37.5t-76.5 51t-81.5 56.5t-90.5 65t-89.5 65.5t-93.5 69t-88.5 65.5q-35 -35 -35 -67q0 -8 6.5 -33.5t9.5 -44.5q0 -65 -33 -123.5t-81 -85.5q-18 -3 -46.5 -11.5 t-43.5 -8.5q-27 0 -27 67q0 25 11 245t11 241q-7 11 -40.5 31.5t-61 44t-27.5 46.5q0 40 23 69.5t59 29.5q4 0 16 -5t15 -5q16 0 20.5 31t4.5 100q0 198 137 198q8 0 38.5 7.5t45.5 7.5q16 0 30.5 -21t14.5 -59q0 -40 -16.5 -167.5t-16.5 -189.5q0 -41 43 -41q70 0 145.5 39 t131 96t91.5 122t36 116q0 43 -84.5 80.5t-193 56.5t-198.5 19q-54 0 -111 -7.5t-112 -22t-90 -41t-35 -60.5q0 -10 6.5 -39t6.5 -35v-10q-111 137 -111 243z" />
<glyph unicode="S" horiz-adv-x="1253" d="M188 909v90q53 -29 180 -54.5t298 -53t258 -47.5q121 -30 187 -90t83 -162q0 -2 -1.5 -7.5t-3 -17t-1.5 -26.5q0 -12 2 -20.5t10 -25t12 -24.5q0 -99 -51.5 -180.5t-131.5 -134t-183 -89t-201 -52t-190 -15.5q-65 0 -122 10t-112 34.5t-94 62.5t-62.5 97.5t-23.5 135.5 q0 32 1.5 51.5t9 45.5t21.5 41.5t39.5 32t63 25.5t93.5 15t128 6l13 -12q-97 -47 -143 -102.5t-46 -143.5q0 -23 32 -32t112 -9q189 0 382.5 76.5t321.5 208.5q0 26 -12.5 40.5t-27 18t-38.5 4.5q-46 12 -261 47t-314 66q-84 39 -150.5 89.5t-77.5 100.5zM1186 1286 q0 -74 -34 -134.5t-101 -121.5h-23q0 19 10 84q0 26 -43.5 67.5t-103.5 41.5q-233 0 -370 -41.5t-247 -151.5q-36 11 -73 43q0 57 14.5 120.5t42.5 84.5q107 90 264.5 135t390.5 45q39 0 83 -9t88 -28t73 -54t29 -81z" />
<glyph unicode="T" horiz-adv-x="1173" d="M41 1298q0 21 3.5 53.5t16 69.5t31.5 37q14 0 40.5 -27.5t55.5 -27.5q168 0 498.5 9.5t437.5 25.5q3 -5 9 -49q0 -23 -9 -66.5t-20 -65.5q-20 -35 -84.5 -59.5t-132 -33.5t-133.5 -9q-39 0 -39 -41q0 -53 5 -478t5 -454q0 -16 26.5 -70t26.5 -59q0 -19 -9 -30.5 t-27.5 -16t-30.5 -5.5t-33 -1q-31 0 -73 9.5t-85 27t-72.5 47t-29.5 63.5q0 5 30.5 66t30.5 92q-34 234 -69 400t-88 319l4 18q26 -13 35.5 -38t15 -55.5t20.5 -47.5q7 -33 18.5 -63t36 -87.5t40.5 -95.5q1 13 3 71t3 79.5t4 73.5t6 85t8 80t12 91q0 4 -1.5 10t-6.5 12 t-12 6q-11 0 -121.5 -6t-150.5 -6q-44 0 -76 5.5t-60.5 20.5t-43.5 45.5t-15 75.5z" />
<glyph unicode="U" horiz-adv-x="1198" d="M180 1430v10q35 -54 64 -105q43 -84 43 -133q0 -104 2.5 -238t14 -324t30.5 -282q5 -3 20.5 -13t21 -13.5t21.5 -10.5t28.5 -10t33.5 -5.5t45 -2.5q34 0 90.5 14.5t103.5 14.5q114 0 160 69v99q0 636 19 911q12 31 51 31q12 0 47.5 -17.5t77 -45t73 -70t31.5 -84.5 q0 -22 -17 -69t-38 -97t-38 -126t-17 -151q0 -72 11 -350t11 -407q0 -19 -22 -19q-41 0 -97.5 48.5t-56.5 103.5q0 20 -1 29.5t-9 19.5t-25 14q-12 -39 -44 -67t-70 -42.5t-94.5 -23t-101.5 -10.5t-108 -2q-379 0 -379 540q0 50 5.5 188t5.5 232q0 201 -13 361q-3 5 -8 10 t-7.5 11t-2.5 16q0 20 39 20q5 0 43.5 -12t56.5 -12z" />
<glyph unicode="V" horiz-adv-x="1312" d="M1237 1417v2q21 0 28 -34t7 -103q0 -85 -24 -178.5t-72.5 -197t-88 -176t-104.5 -181.5q-20 -33 -122 -185.5t-140 -224.5l8 -4q8 -8 21 -8q5 7 15.5 25.5t17 27t22 17t35.5 8.5q2 0 2 -17q0 -40 -57.5 -114t-118.5 -74q-14 0 -72 24.5t-88 24.5q-29 0 -55 -16 q-41 18 -41 41q0 16 29.5 56t29.5 60q-111 180 -214 445t-158.5 476t-55.5 300q0 8 10 17.5t23 9.5q8 0 14 -19v-14q96 -15 227 -127q4 -15 11 -37t18.5 -57t20.5 -62q3 -19 24 -75q21 -49 21 -101q119 -414 180 -553l24 13q84 172 418 950q2 45 16 72.5t37 27.5 q12 0 61.5 -19.5t90.5 -19.5z" />
<glyph unicode="W" horiz-adv-x="1871" d="M537 201q-41 106 -131.5 301t-167 354.5t-137 318t-60.5 230.5q0 29 74 29q135 0 225 -129q192 -464 295 -856q0 -11 5.5 -16.5t23.5 -6.5q41 102 58.5 172.5t35.5 189t41 228.5q50 242 53 381q12 12 61 12q25 0 45.5 -42t51.5 -148q20 8 32.5 26.5t17.5 38t22 44 t44 40.5q29 0 51.5 -16t37 -45.5t23 -55t15.5 -59.5q0 -64 -123 -356q0 -47 78 -236q0 -119 82 -256q27 0 95 222t148 509.5t114 374.5q4 4 43 4q70 0 103.5 -59t33.5 -146q0 -56 -12.5 -164t-43.5 -257.5t-73.5 -291.5t-111 -269.5t-148.5 -188.5q-18 -13 -43 -45 q-26 -33 -68 -33q-52 0 -91 45.5t-63 115t-43.5 141.5t-45 135t-56.5 85q-25 -13 -57 -61.5t-90 -169.5q-17 -48 -45.5 -77.5t-61.5 -37.5q-8 0 -33 8q-7 0 -12.5 -4.5t-5.5 -11.5q0 -3 9 -30.5t9 -35.5q0 -32 -61 -32q-55 0 -143 131zM811 793l74 206q-7 2 -13 25 q-9 31 -20 31q-7 0 -12.5 -16t-9.5 -35t-5 -21q0 -33 -17 -91t-17 -81q0 -2 4 -6v-14z" />
<glyph unicode="X" horiz-adv-x="1429" d="M1315 1075l-19 51q-204 -171 -305 -275q-150 -157 -151 -228q0 -25 67.5 -116t158 -176t140.5 -85q15 0 26.5 42t24.5 42q29 0 29 -47q0 -9 -2 -25l-10 -80t-17 -149q-23 -29 -81 -29q-60 0 -120.5 32t-113.5 85t-97.5 107t-92 113t-76.5 87l-33 2q-22 -25 -69 -84 t-85 -103.5t-86 -92.5t-95.5 -74.5t-90.5 -26.5q-15 0 -28 2.5t-29 11t-22 11.5t-25.5 16.5t-20.5 13.5q-11 6 -23 40t-12 65q0 42 -16 63q31 29 107 96t119.5 107t100.5 99t95 110v8q0 12 -30.5 96.5t-73 185t-94.5 182t-87 81.5q-4 0 -29 -22.5t-34 -22.5q-7 0 -19 4 q26 71 86 129.5t117 58.5q52 -15 102.5 -74.5t85 -127t79.5 -147t81 -118.5l23 5q55 45 120.5 118t120.5 137t118 127t137 105t153 53q23 0 46.5 -23t23.5 -46q0 -37 -12.5 -97t-14.5 -84q0 -38 -11 -99.5t-36 -61.5v28z" />
<glyph unicode="Y" horiz-adv-x="1484" d="M96 1380q17 10 29 37q13 29 70 29q66 0 114 -34t78 -91.5t54 -128.5t48 -150t53 -151t77 -136t112 -100q9 0 16 2.5t13.5 9t11 12.5t11 18.5t9.5 20t10 24.5t11 26q28 71 117 262t121 248q39 66 111 123t147 57q49 0 92 -16t43 -43q-3 -322 -316 -541 q-156 -390 -352 -604q0 -25 21 -25h4q77 0 202.5 14t145.5 38v-29q0 -39 -98 -127.5t-140 -106.5q-209 -18 -381 -18q-47 0 -93 4.5t-97 15.5t-83 35t-32 58q0 29 22 98t29 100h5q13 0 27 -16t28 -35t50 -35t87 -16q31 0 57 20l9 16q129 221 129 269q0 12 -47 12 q-23 0 -42 -4t-28 -4q-43 0 -91.5 78.5t-92.5 190t-89 223t-97 190t-101 78.5q-3 0 -15 -2t-22 -2q-3 0 17.5 40t35.5 66zM1346 1237v2q-48 -48 -91 -141v-4q0 -16 -10 -37t-22 -36.5t-24 -29.5t-13 -16l8 -8l23 20q129 129 129 250z" />
<glyph unicode="Z" horiz-adv-x="1683" d="M1460 1458q57 -47 88 -92t66 -139v-39q-57 -53 -272 -207t-283 -231q93 -17 172 -17q71 0 223.5 13.5t171.5 13.5q14 0 14 -21q0 -70 -43 -148.5t-96 -78.5q-24 0 -72.5 -8.5t-48.5 -18.5q53 -47 76.5 -68.5t59 -60.5t50 -67.5t26.5 -70t12 -87.5q0 -40 -71.5 -76.5 t-133.5 -36.5q-86 0 -526.5 15.5t-612.5 15.5q-8 0 -70 -24.5t-73 -24.5q-38 0 -57 48.5t-19 98.5q0 43 35 72t98 29q19 0 416 305l-80 55q-33 0 -65 36t-49 74.5t-17 57.5q0 46 48.5 74.5t94.5 28.5q85 0 167.5 -23.5t189.5 -75.5q171 137 397 353v24q-38 1 -237 7.5 t-320 11.5t-278 16.5t-238 26.5q-12 7 -21.5 21t-18 40.5t-13.5 43.5t-14.5 56.5t-12.5 53.5h16q12 0 139.5 -20.5t243.5 -20.5q111 0 487 31t451 34zM1477 336v10q-75 128 -197 146q-29 4 -99.5 7.5t-167.5 7t-157 7.5q-48 2 -96 14q-13 -10 -66 -48t-92.5 -67t-84 -65 t-64.5 -57q147 0 544.5 3.5t432.5 8.5q47 3 47 33zM813 768v2q-72 41 -136 57.5t-151 16.5l-12 -25q68 -57 231 -57h15q53 0 53 6z" />
<glyph unicode="b" horiz-adv-x="919" d="M242 1290h4v-4l8 -4q7 -3 14.5 -8.5t7.5 -11.5l-4 -52q-20 -234 -20 -417q0 -119 12 -193l29 2q5 8 16 25q29 46 44 67t39.5 47.5t50 36.5t57.5 10q100 0 188.5 -58.5t139.5 -151.5t51 -193q0 -85 -49 -163t-123 -129.5t-160.5 -82t-163.5 -30.5q-29 0 -56 14.5t-43 32.5 t-33.5 36t-29.5 23q-18 0 -61.5 -38t-71.5 -38q-24 0 -43 51l31 271q-35 134 -35 336q0 207 22 327q5 33 10 58t15 63t23 65.5t31 54t44 40.5t56 14zM260 428q0 -14 7.5 -51.5t8.5 -46.5l82 67l17 -12q-58 -64 -58 -133q0 -2 0.5 -5t1.5 -7.5l3 -13.5t4 -21q44 0 78.5 2.5 t80 13.5t75.5 29.5t51.5 54t21.5 84.5q0 21 -1.5 42.5t-14 64t-33.5 73t-65 54.5t-105 24q-17 0 -54 -36.5t-68.5 -90t-31.5 -92.5z" />
<glyph unicode="c" horiz-adv-x="913" d="M553 831l82 41q37 0 91 -54t96 -134.5t42 -146.5q0 -45 -35 -45q-31 0 -56.5 18t-45 43.5l-39 51t-46 43.5t-58.5 18q-83 0 -154.5 -25t-120 -65t-83 -89.5t-50.5 -98.5t-16 -93q0 -50 59.5 -84.5t112.5 -34.5q72 0 164.5 18t199.5 68t160 123q16 0 16 -35 q0 -15 -12.5 -61t-15.5 -60q-69 -127 -192.5 -180t-297.5 -53q-99 0 -172 53.5t-107 135.5t-34 180q0 210 145 338t367 128z" />
<glyph unicode="d" horiz-adv-x="946" d="M741 1286v4q14 -4 27.5 -11t39.5 -22t52 -28q37 -29 37 -84q0 -31 -39 -159t-39 -171q0 -211 16 -442.5t46 -331.5q24 -10 24 -29q0 -17 -18 -27t-45 -10q-53 0 -91 24.5t-58 67.5t-29 92.5t-9 108.5q0 146 -12 146l-16 2q-6 -9 -35 -54.5t-39.5 -61.5t-39.5 -58.5 t-45 -61t-44 -52t-49 -49.5t-47.5 -35t-52 -26.5t-50.5 -7.5q-97 0 -140.5 69.5t-43.5 180.5q0 86 36.5 178t96 166.5t141 123t164.5 48.5q18 0 47 -25t59.5 -50t53.5 -25q20 0 20 37q0 3 -1.5 12t-4.5 28.5t-6 43.5q0 10 8 18q10 119 29 246q20 128 57 225zM655 561v4 q-4 22 -19 29.5t-44 7.5q-54 0 -118.5 -42t-113 -97.5t-81.5 -109t-33 -77.5q3 -22 24 -22q52 0 142 62t160.5 135t82.5 110z" />
<glyph unicode="e" horiz-adv-x="1024" d="M545 870h2q87 0 172.5 -48t140.5 -129t55 -169q0 -38 -21 -74t-60 -36q-21 35 -58 35q-10 0 -71 -19.5t-70 -19.5q-4 0 -11 4t-10 4q-55 -8 -174 -8q-24 0 -71.5 7t-67.5 7q-54 0 -57 -39l-4 -55q0 -66 57 -89.5t182 -23.5q210 0 492 113l12 -11q-60 -119 -119 -186.5 t-139.5 -101t-194.5 -33.5q-82 0 -151.5 11t-133.5 37.5t-108 68t-70 107t-26 149.5q0 154 87.5 246.5t279.5 162.5q15 38 50.5 64t86.5 26zM690 621q-31 53 -102.5 82.5t-151.5 29.5q-70 0 -114 -90q-2 -4 -5 -9.5t-4.5 -8t-2.5 -6.5t-1 -9q0 -11 13 -24l331 -13 q37 0 37 48z" />
<glyph unicode="f" horiz-adv-x="634" d="M279 1298h4q88 0 167 -28.5t132 -81.5q-6 -65 -64 -184q-6 -13 -22 -13q-2 0 -2 13q0 2 5 22.5t5 28.5q0 23 -34 43t-60 20q-45 0 -45 -153v-162q15 -10 97 -23t99 -30q33 -33 33 -86q0 -28 -20.5 -105.5t-20.5 -109.5q0 -53 -43 -138q-2 -4 -7.5 -19t-10.5 -27.5 t-9 -12.5q-14 0 -14 53q0 21 20.5 69.5t20.5 59.5t8 52t12 75q0 41 -17.5 57.5t-74.5 16.5q-21 0 -47 -13.5t-26 -31.5q0 -50 8.5 -255.5t15.5 -305.5q-18 -41 -53 -41q-31 0 -66.5 23.5t-56.5 54.5q-20 200 -20 444q-5 45 -5 92q-7 13 -27.5 17t-66.5 4q-27 0 -40 14.5 t-13 50.5q0 39 18.5 56.5t75.5 21.5q22 1 34.5 4t24 15t11.5 34q-8 57 -8 90q0 156 94 238v8q0 4 -5.5 9t-21.5 11t-39 9q-13 0 -19.5 -4t-12.5 -4q-7 0 -7 6q0 17 38.5 61.5t54.5 54.5z" />
<glyph unicode="g" horiz-adv-x="1216" d="M950 950h2q84 0 154 -96.5t70 -202.5q0 -9 -4 -38t-7 -29q-4 0 -4 24q0 10 -6.5 22.5t-15.5 12.5q-27 0 -27 -29q0 -56 -3 -140t-11.5 -205t-29 -214t-48.5 -116q3 -4 26 -19t23 -31q0 -61 -45.5 -110t-111 -77t-146.5 -47t-144 -25.5t-110 -6.5q-62 0 -124 8t-127 29 t-114 52t-80.5 82t-31.5 114q0 68 31 137q20 -39 53 -68.5t78.5 -47.5t91.5 -30t108 -17t112 -7t118 -2q106 0 167.5 46t71.5 151q0 36 -24 36q-16 0 -58 -19t-100.5 -38.5t-112.5 -19.5q-103 0 -221 56.5t-202.5 152.5t-84.5 194q0 65 23.5 120t62.5 94.5t93 70.5t111 50.5 t120.5 32.5t119 18t107.5 5q37 0 95 -16t94 -16q24 12 24 75q0 1 -0.5 3.5t-1 8t-0.5 11.5q0 24 11 42.5t28 18.5zM893 676v2q0 31 -53 31q-66 0 -121.5 -4.5t-121.5 -17t-120 -37.5t-103.5 -62.5t-85 -96t-52.5 -133.5q0 -43 97.5 -70.5t223.5 -27.5q45 0 85.5 3.5t87.5 14 t80.5 28.5t56 49t22.5 73q0 51 -2 61q0 33 -2 64q0 87 8 123z" />
<glyph unicode="h" horiz-adv-x="817" d="M41 1032v31q0 27 6 199q0 11 18.5 21.5t30.5 10.5q17 0 68 -21t101 -59.5t50 -74.5q0 -60 -39.5 -230t-39.5 -250q0 -81 12 -163q2 -2 6 -2q16 22 40.5 59.5t38 56.5t35.5 46t42 40.5t49 28t64.5 20t80.5 5.5q38 0 65 -11.5t41.5 -27.5t24 -50t12.5 -60.5t7 -78.5 q0 -9 5.5 -105.5t11 -223.5t5.5 -211q-132 0 -181.5 58.5t-49.5 180.5v295q0 31 -17 46.5t-45 15.5q-130 0 -235 -172q0 -6 6 -131.5t6 -163.5q0 -28 -1 -42.5t-6.5 -35t-19.5 -30t-36 -9.5q-27 0 -62 12t-64.5 39t-29.5 61q0 16 19.5 85.5t19.5 72.5q0 1 -6 49.5t-11.5 108 t-5.5 86.5q-16 344 -16 524z" />
<glyph unicode="i" horiz-adv-x="411" d="M43 426q0 172 31 324q47 59 139 77q37 0 57 -20v-125q0 -247 23 -449q12 -4 22 -4q13 1 25.5 7t15.5 6q-10 -38 -41.5 -97.5t-84 -114.5t-99.5 -55q-26 0 -45.5 59t-27.5 144t-11.5 147.5t-3.5 100.5zM270 1266q27 0 64 -27.5t37 -54.5q0 -18 -29 -50t-58.5 -67.5 t-29.5 -62.5q0 -30 -23 -58t-51 -28q-57 0 -97 32t-40 62q0 95 80.5 174.5t146.5 79.5z" />
<glyph unicode="j" horiz-adv-x="569" d="M299 866h12q62 0 106.5 -31t67.5 -84t33 -109.5t10 -121.5q0 -200 -30 -358.5t-96.5 -258.5t-161.5 -100q-67 0 -133 78t-66 160q0 156 125 360q8 -8 8 -24q0 -30 -18.5 -84.5t-18.5 -81.5q0 -60 32 -130.5t83 -129.5q41 39 56.5 241t15.5 426q0 160 -25 248zM274 1235v2 q38 15 95 25q35 0 59 -16.5t35 -47t15.5 -61.5t4.5 -72q0 -23 -25 -48.5t-69 -25.5q-58 0 -99.5 48t-41.5 106q0 47 26 90z" />
<glyph unicode="k" horiz-adv-x="962" d="M47 1282q6 29 53 29q90 -11 138.5 -64t48.5 -123v-606q6 -6 12 -6q10 0 16 -2q52 0 111.5 45t108.5 104q34 43 34 54q0 6 -8 6q-3 0 -36.5 -23.5t-41.5 -23.5l-2 4q5 46 111.5 128.5t171.5 82.5q45 0 89.5 -31.5t68.5 -69.5q-28 -101 -148.5 -227.5t-284.5 -191.5v-23 q151 -103 373 -135q16 16 39 16q7 0 10 -16q-2 -2 -22 -47.5t-50 -85t-63 -39.5q-140 0 -465 215q-43 0 -67 -113q0 -41 -45 -90t-95 -49q-5 0 -8.5 11.5t-3.5 21.5q12 59 4 82v12v16q0 5 2 32t2 58q0 33 -29.5 68.5t-29.5 54.5q0 15 27.5 49.5t31.5 43.5v151q0 78 -4 206 t-4 142q-2 138 -45 334z" />
<glyph unicode="l" horiz-adv-x="430" d="M84 1208v2q51 26 74 56q25 28 73 28h2q52 0 52 -149q0 -59 -11.5 -212t-11.5 -204q0 -2 4 -179.5t4 -303.5q10 -17 29 -17q14 0 36.5 21.5t29.5 21.5q2 0 10 -8l14 8q-33 -89 -33 -129q-2 -8 -7.5 -31.5t-9 -36.5t-12 -33t-18 -30.5t-25 -19t-34.5 -8.5q-10 0 -57 13 t-70 13q-25 0 -43 81t-26.5 211t-12.5 254t-4 247q0 240 47 405z" />
<glyph unicode="m" horiz-adv-x="1419" d="M49 944v2q146 -21 207 -123q17 -78 25 -202q0 -16 2 -52.5t2 -68.5v-68q0 -10 12 -10l6 2h8q60 159 136.5 275t189.5 192l4 -1q4 0 10.5 -0.5t14.5 -0.5q47 0 73 -7.5t40.5 -33t18.5 -57t7 -97.5q6 -115 26 -162q114 92 214.5 148.5t193.5 56.5q21 0 37 -8.5t26.5 -27 t17.5 -40t11.5 -55t7.5 -64.5t6 -77q3 -44 5 -68q-2 -12 -2 -41v-41q0 -54 9 -137t21 -133q-41 -78 -182 -121q-26 0 -46 8t-33.5 19t-22.5 32.5t-13.5 38t-6.5 47.5t-2.5 48.5t-0.5 52.5q0 38 3 122.5t3 135.5q0 17 -7.5 34t-22.5 17q-29 -20 -55.5 -44t-42 -41t-43.5 -49 t-44 -50q-40 -27 -81.5 -82.5t-72 -94t-55.5 -38.5q-22 0 -28 6h-9q-77 0 -77 303q0 3 0.5 12t1.5 32.5t2 58.5q0 49 -45 49q-52 -57 -165.5 -280t-137.5 -259q-11 -20 -33 -20q-25 0 -45 20l-76 96q0 22 -8 280t-8 308q0 24 12 132t12 126z" />
<glyph unicode="n" horiz-adv-x="976" d="M41 866v2l63 11q63 0 109.5 -37t46.5 -105q0 -32 16.5 -55t49.5 -23q11 0 46 26.5t74 57.5t92.5 57.5t98.5 26.5q42 0 75.5 -23.5t53 -58.5t32.5 -80.5t18 -86t5 -78.5q0 -8 8.5 -50t16.5 -105.5t8 -123.5q0 -4 15 -8t22 -4q2 0 43 49l2 -16q0 -13 -15 -50t-39 -79.5 t-61.5 -75.5t-75.5 -33q-24 0 -44 17t-35.5 50.5t-27.5 70t-20.5 90.5t-14.5 95.5t-10.5 101t-7 91t-5 81.5t-2.5 58q-3 17 -52 17q-54 -45 -139.5 -163.5t-89.5 -170.5l4 -123q-3 -45 -9.5 -81.5t-12.5 -59.5t-23 -78l-35 -2q-80 0 -119 45.5t-39 142.5q0 69 25 105v69 q-5 172 -14 275.5t-33 230.5z" />
<glyph unicode="o" horiz-adv-x="966" d="M41 426v2q0 76 37 159.5t101.5 155.5t164.5 119t213 47q-20 -13 -60.5 -39t-61.5 -40t-54.5 -39t-51.5 -43t-41.5 -46t-34.5 -54t-19.5 -60t-8.5 -72q0 -40 6.5 -90.5t21 -107t44 -94.5t68.5 -38q332 0 344 435q-41 18 -91 18q-77 0 -217 -57q-12 0 -24 11t-12 23 q0 67 43.5 118.5t106.5 76.5t132 25q68 0 119 -23t81 -59.5t48.5 -91t24.5 -107t6 -117.5q0 -87 -44.5 -170.5t-115 -143t-160.5 -96t-178 -36.5q-173 0 -280 120.5t-107 313.5z" />
<glyph unicode="p" horiz-adv-x="1054" d="M45 895h35q49 0 85 -23.5t59.5 -68.5t37.5 -94t25 -117q9 -55 26 -55q7 18 20 51.5t22 55.5t23.5 53.5t27 52.5t31.5 44t39 36.5t46 22.5t56 9q98 0 175 -31.5t125 -82t79.5 -120t44 -140t12.5 -146.5q0 -70 -38 -132.5t-97.5 -105t-131 -73.5t-139 -45.5t-121.5 -14.5 q-72 0 -137 19l-20 -23l24 -364q-17 -17 -43 -17q-1 0 -12.5 3.5t-30 11t-32.5 14.5q-37 0 -63.5 38t-35 76.5t-8.5 65.5q0 33 8 156q0 51 -8 78q-28 20 -51 58t-23 69q0 11 5 28t16 21q3 0 20 -18.5t21 -18.5l12 4v41q0 302 -45 588q0 14 -21 43q-24 24 -24 39q0 6 6 12z M322 342q0 -22 16 -233h20q47 0 117.5 33t137.5 84.5t115 124t48 141.5q0 92 -54.5 132t-176.5 40q-70 0 -122 -47t-76.5 -118.5t-24.5 -156.5z" />
<glyph unicode="q" horiz-adv-x="1099" d="M850 942l35 -12q0 -2 -10.5 -24t-10.5 -40q0 -32 41 -85t41 -91q0 -18 -24 -18q-3 0 -17.5 3t-23.5 3q-8 0 -19.5 -11.5t-11.5 -21.5q0 -44 6 -266.5t6 -247.5q0 -4 12 -4q11 0 19 8t11.5 17t8.5 26q0 12 35 75t35 93q0 8 19.5 52t27.5 44q10 -6 18.5 -18.5t8.5 -20.5 q0 -6 -10.5 -23t-10.5 -34v-47q-38 -108 -85.5 -298t-76.5 -390q-13 -8 -47 -8q-78 0 -113.5 27.5t-35.5 90.5q0 4 2 20.5t9 64.5t13 96q0 22 -11 55.5t-11 52.5q0 4 8 121q0 26 -18 51q-101 -182 -348 -182q-87 0 -152.5 49.5t-97 125.5t-31.5 163q0 89 38 168t102.5 136.5 t148 100t176 63.5t184.5 21q30 48 65.5 72t94.5 43zM270 252q0 -21 0.5 -31.5t3.5 -25t9.5 -21t18 -11.5t28.5 -5q71 0 151 39.5t138.5 109.5t58.5 146q0 18 3 97t3 105q0 29 -57 29q-65 0 -123 -32.5t-97.5 -81.5t-69.5 -109.5t-46 -113t-21 -95.5z" />
<glyph unicode="r" horiz-adv-x="665" d="M41 854q5 14 9.5 22t13.5 9t15 0.5t21.5 -5t26.5 -6.5q30 0 52.5 -7.5t35.5 -18t23.5 -30.5t14.5 -34.5t11 -41t12 -40.5q8 -32 23 -32q20 0 40.5 40.5t42.5 92.5t42 69q74 0 134 -12t67 -41q-24 -208 -125 -448l-15 2q3 40 29 96q25 58 25 96q0 90 -90 90 q-146 0 -146 -155q0 -4 4 -151.5t4 -209.5q0 -21 6.5 -61t6.5 -55q0 -48 -76 -48q-18 0 -45 10t-56 28.5t-49 51t-20 70.5q0 15 11 123.5t11 212.5q-9 136 -53 356q-3 21 -6 27z" />
<glyph unicode="s" horiz-adv-x="890" d="M109 594q41 9 41 90q0 61 63 105.5t147 63.5t172 19q114 0 185 -39.5t112 -138.5q-73 31 -137 31q-30 0 -61 -2t-85.5 -11t-98.5 -24.5t-89 -47.5t-69 -75q24 -15 65.5 -28.5t75.5 -21t86 -17.5t72 -15q56 -14 97.5 -30.5t81.5 -43t61.5 -65.5t21.5 -90q0 -62 -22 -110 t-59.5 -78t-93 -49.5t-117 -27t-136.5 -7.5q-32 0 -89.5 9t-125.5 27.5t-117 53.5t-49 78q0 19 6.5 33t23.5 25t35 18t51.5 15t63 13t79.5 14.5t91 18.5l8 -4h9q0 -4 -10 -7.5t-19 -3.5l-8 -4h-4q-28 -3 -51.5 -15t-34.5 -15h-11l-12 -5q-15 -6 -38 -13.5t-32.5 -11.5 t-20.5 -13t-17 -23q21 -8 61 -8q64 0 198 41.5t201 93.5l-8 29q-35 16 -90 27t-104.5 16.5t-103 20t-93.5 35t-68.5 63.5t-33.5 104z" />
<glyph unicode="t" horiz-adv-x="702" d="M201 1294v2q23 13 61 13q16 0 31 -5.5t32.5 -19t26 -21.5t29.5 -29.5t25 -25.5q16 -16 26 -97t10 -163q0 -42 11.5 -64t44.5 -22l32 8q32 7 72 7q24 0 42 -14t18 -44q0 -65 -24.5 -112.5t-55.5 -47.5q-10 0 -33 2.5t-45 2.5q-39 0 -45 -35l20 -283q2 -39 31.5 -107 t99.5 -149q0 -6 -26.5 -41.5t-26.5 -54.5l25 -39q-37 0 -79.5 7.5t-91.5 24.5t-92.5 51.5t-68.5 80.5l-21 536q-15 21 -45 21l-10 -4h-20q-10 0 -18.5 -11t-8.5 -18q0 -26 25 -43l6 -18q0 -4 -15 -4q-55 0 -78.5 52.5t-23.5 131.5q0 94 111 94q40 0 57.5 20.5t17.5 79.5 q0 44 -13 152t-13 186z" />
<glyph unicode="u" horiz-adv-x="1007" d="M236 870q20 -14 34 -61q1 -10 7.5 -83.5t9 -107t5.5 -108t3 -152.5q6 -16 29 -16q57 0 128 60.5t127.5 143t98 159.5t51.5 118q33 33 70 33q29 0 95.5 -31.5t66.5 -48.5q0 -8 -3 -22.5t-14.5 -42t-30.5 -52.5q-16 -31 -16 -159q0 -149 43 -492q1 -17 14 -43t13 -37 q0 -9 -24 -13.5t-38 -4.5q-27 0 -45 6q-97 0 -139.5 40.5t-42.5 104.5q0 1 0.5 14.5t1.5 34.5t2 44.5t1.5 49.5t0.5 44q0 15 -12 35l-25 4q-19 -21 -64 -75.5t-67.5 -78t-60 -57t-73 -48.5t-75.5 -18q-54 24 -114 72t-82 108q0 180 -18.5 410.5t-51.5 321.5q19 8 39 8 q17 0 45.5 -11t62.5 -27.5t48 -21.5z" />
<glyph unicode="v" horiz-adv-x="872" d="M43 868q0 15 7.5 24t31.5 9q4 0 55 -35q53 -38 99 -69q22 -51 48.5 -130t63.5 -196t66 -201l26 17q54 105 106 246t52 212q-24 -7 -45 -31.5t-43.5 -59t-38.5 -50.5v6q0 61 70 168q1 2 7 13.5t13 21.5t19 21.5t31.5 18.5t43.5 7q78 0 127 -53t49 -135q0 -19 -3 -39.5 t-6 -34t-12 -37t-13 -33t-16.5 -38t-16.5 -37.5q-2 -5 -32.5 -86t-63 -161.5t-72 -150t-64.5 -69.5q-8 0 -57 22q-32 11 -50.5 30.5t-24.5 39t-20.5 48.5t-37.5 52q-26 8 -46 23.5t-36.5 43.5t-27 51t-29.5 68t-31 72q-2 7 -26 73t-45 126t-39.5 129.5t-18.5 103.5z" />
<glyph unicode="w" horiz-adv-x="1445" d="M279 872q84 -264 172 -430q8 -14 28 -14q33 0 57 47.5t35 107t25 126t27 90.5q40 63 133 69q15 -67 29.5 -180.5t39.5 -208t84 -213.5h13q50 0 77 27t66 104l137 463q3 0 14.5 3t24.5 3q48 0 82.5 -19.5t51 -51.5t23.5 -63t7 -64q0 -46 -11 -96t-36.5 -109t-42 -94 t-52 -102t-42.5 -81l-13 -10q-12 -9 -16 -12.5t-14 -14.5t-14.5 -19.5t-8.5 -22.5t-4 -29q0 -46 -28 -79t-69.5 -47.5t-72 -20t-51.5 -5.5q-82 0 -82 47q0 17 22.5 57.5t22.5 63.5h-8q-4 0 -49 -28.5t-62 -28.5q-5 0 -35.5 64.5t-69.5 141.5t-63 99q-43 -20 -77.5 -79.5 t-34.5 -110.5q0 -50 -43 -91t-99 -41l-49 70q0 82 -109 386t-153 392q24 27 78 27q9 0 81 -11.5t79 -11.5z" />
<glyph unicode="x" horiz-adv-x="997" d="M299 885h16l35 -94q14 -43 64.5 -102.5t85.5 -59.5q9 0 24 9.5t27 20t30 27.5t25 23q140 110 221 110q64 0 96.5 -39.5t32.5 -99.5t-31.5 -165t-31.5 -169q0 -29 -6.5 -65.5t-20.5 -77.5t-33.5 -75t-50 -56.5t-65.5 -22.5q-25 0 -59 32t-63.5 70.5t-68 70.5t-71.5 32 l-9 -5q-172 -83 -172 -159q0 -11 29 -24q0 -7 -58 -53t-71 -46q-41 0 -85 83.5t-44 150.5q24 27 90 83t120.5 109.5t70.5 93.5q-43 70 -74 163t-31 173q0 26 27.5 44t50.5 18zM788 221q69 91 87 154t18 211q0 20 -12 20h-23q-25 0 -124.5 -85t-119.5 -124q5 -7 21.5 -27.5 t23 -28.5t21 -25.5t22.5 -26t21 -21.5t22.5 -20.5t21 -15t21.5 -11.5z" />
<glyph unicode="y" horiz-adv-x="956" d="M59 717q0 114 84 114q37 -25 62.5 -71.5t42 -98.5t37 -105.5t61 -104t100.5 -82.5q29 29 75 111.5t87 163.5t92.5 153.5t92.5 89.5h2q120 -19 120 -94q-61 -159 -94 -362t-39 -345q-1 -1 -22.5 -29.5t-33.5 -43.5t-38 -43t-46.5 -43.5t-47 -28.5t-49.5 -13q-42 0 -95 -68 t-53 -128q0 -33 21 -60l-10 -30q-41 -20 -120 -49t-112 -29q-54 0 -94.5 34.5t-40.5 79.5q0 14 11.5 38.5t37.5 67t53 84t74.5 114.5t85.5 133q-6 51 -84 141q-49 55 -81 116t-48 128.5t-22 124.5t-9 135zM705 139q81 109 98 332q-137 -215 -137 -307q0 -29 26 -29z" />
<glyph unicode="z" horiz-adv-x="935" d="M786 827q22 -22 28.5 -44t6.5 -58q-17 -17 -66 -48t-97.5 -68.5t-77.5 -80.5l28 -18h4q3 0 11 0.5t19.5 1t31.5 0.5h45q97 0 127 49l28 -35q0 -14 -20.5 -41t-47 -56.5t-30.5 -35.5q0 -4 12.5 -9.5t30 -14.5t34.5 -22.5t29.5 -38t12.5 -56.5q0 -66 -57.5 -118.5 t-146.5 -81.5t-193 -34q-4 0 -67.5 -4.5t-153.5 -9t-158 -4.5q-76 76 -76 184q0 19 38.5 46.5t93 59t73.5 48.5q-32 24 -51 41t-35.5 42.5t-16.5 49.5q0 16 11.5 26.5t25.5 10.5q6 0 37 -10.5t53 -10.5q1 0 3.5 1t6.5 2t7 2l182 24q170 147 154 172l-482 -24 q-16 0 -39.5 16.5t-23.5 34.5l8 30q0 9 -6 32.5t-6 25.5q0 16 8 24l76 -32q144 0 334 9t245 23q2 0 10.5 -3t16.5 -3t20 6zM836 324l-21 20q-54 16 -237 16q-50 0 -224 -20q-35 -20 -67 -58.5t-47 -68.5h36q320 0 440 19t120 92z" />
<glyph unicode="{" horiz-adv-x="1032" d="M41 535q0 142 53 297t150 286.5t215 198.5q8 5 10 6t6.5 5.5t6 10t1.5 13.5q0 7 -16 11.5t-35 4.5q-26 0 -51 14q94 76 266 76q50 0 157 -6t114 -6q73 0 73 -47q0 -14 -25 -37.5t-67.5 -54.5t-97 -70.5t-115.5 -90.5t-121.5 -109t-115 -131.5t-97 -153t-67.5 -178 t-25 -201.5q0 -23 22.5 -35.5t52 -15.5t65.5 -11.5t55 -23.5q32 -29 80.5 -124t48.5 -140q0 -8 -4 -12.5t-23 -7.5t-55 -3q-121 0 -211 39.5t-144 112t-80 168t-26 215.5z" />
<glyph unicode="&#xad;" d="M139 514h187q0 -18 2 -20l-2 -13q-6 -39 -56 -69l-8 -9q-12 -12 -119 -12h-71q-33 0 -33 6q0 1 2.5 2t8 7t11.5 16v4q9 31 28.5 56t49.5 32z" />
<glyph unicode="&#x410;" horiz-adv-x="1617" d="M770 1458q68 -10 182 -67q56 -19 76.5 -50.5t44.5 -117.5q7 -24 40 -145.5t60 -214t70.5 -193.5t83.5 -138l53 17q15 0 33 -14t64 -56t100 -82q-12 -12 -45 -12h-12q-37 0 -115 8q-5 0 -10 -1.5t-11 -8.5t-6 -18q0 -39 36.5 -109t73 -132t36.5 -83q0 -41 -56 -41 q-557 85 -872 207q-5 0 -52 3t-69 3q0 -16 -21.5 -62t-57 -89.5t-66.5 -43.5q-44 0 -102 31t-58 62q0 17 15.5 71t15.5 88q-49 10 -95 51t-65 89q0 18 47 27t128.5 12t86.5 4q74 182 223 506.5t244 498.5zM870 1067v2h-16q-65 -99 -215 -467q-11 -27 -53 -119q43 12 232 25 t233 31q10 0 10 22q0 64 -78.5 261.5t-112.5 244.5zM1286 172q-25 25 -41 80q0 37 -37 60.5t-90 23.5q-104 0 -267.5 -36t-285.5 -44v-18q0 -8 121.5 -31t281 -43.5t246.5 -20.5l4 -1q3 -1 12 -2t23 -1q33 0 33 33z" />
<glyph unicode="&#x411;" horiz-adv-x="1335" d="M55 1327v2q99 67 217.5 98t276.5 31q151 0 238 -23t208 -94q9 -6 40 -21t54 -28.5t49.5 -33t41 -44t14.5 -51.5q-192 60 -283 77t-186 17q-1 0 -129 5q-14 -100 -14 -193q0 -34 6 -150.5t6 -156.5q0 -33 37 -33q51 0 126 -11t170.5 -40.5t175.5 -72t135.5 -115 t55.5 -160.5q0 -63 -45 -118.5t-116.5 -93.5t-161 -65.5t-177.5 -40t-167 -12.5q-123 0 -215 30t-149.5 100.5t-57.5 176.5q0 35 16 35q2 0 71 -36t105 -36q19 71 19 181q0 104 -16 209.5t-40 158.5q-105 45 -200 230q-33 25 -76 95t-43 146q0 23 14 37zM1042 438v2 q-39 59 -111.5 92.5t-193.5 45.5q-3 0 -26.5 -10.5t-36.5 -10.5h-39q-7 0 -15 -5.5t-8 -10.5v-90q0 -31 -2 -58t-7 -72t-7 -71q14 -37 59 -37q38 0 95.5 14t121 39.5t112.5 71t58 100.5zM459 1253v13q-29 -11 -75.5 -23.5t-80 -25t-61.5 -33.5v-39q0 -6 50.5 -120t55.5 -114 q6 0 11.5 52.5t5.5 99.5q0 53 7.5 72t37.5 49q49 37 49 69z" />
<glyph unicode="&#x412;" horiz-adv-x="1335" d="M55 1327v2q99 67 217.5 98t276.5 31q106 0 231 -31t233.5 -81t180.5 -123.5t72 -149.5q0 -101 -66.5 -215t-157.5 -168v-12q20 -18 65.5 -54t70.5 -60t56 -63.5t45.5 -89.5t14.5 -112q0 -57 -24.5 -103.5t-64 -77t-97.5 -53t-114.5 -35t-127.5 -19.5t-124 -9t-115 -2 q-124 0 -216 30t-149 100.5t-57 176.5q0 35 16 35q5 0 25 -22t50 -44t60 -22q9 0 17.5 5.5t17 25.5t8.5 51q0 362 -39 483q-105 45 -200 230q-29 21 -74 99.5t-45 141.5q0 23 14 37zM999 1124v2q-53 74 -153 105t-250 31v-48q0 -10 -1 -88t-1 -149v-215q0 -33 37 -33 q21 0 76 37t116 91.5t112.5 128.5t63.5 138zM1042 438v2q-93 138 -305 138q-3 0 -14.5 -5t-34.5 -9.5t-53 -4.5q-23 0 -23 -10v-98q0 -31 -2 -58t-7 -72t-7 -71q14 -37 59 -37q38 0 95.5 14t121 39.5t112.5 71t58 100.5zM459 1253v13q-16 -5 -74 -21.5t-66 -19.5 q-31 -9 -77 -41v-39q0 -27 31 -77t40 -77q18 -34 47 -106q-12 50 -12 149q0 58 13 92t49 58q49 37 49 69z" />
<glyph unicode="&#x413;" horiz-adv-x="1183" d="M41 1163q0 27 31 72t77 88.5t108 75t116 31.5q8 0 37.5 -23t70 -45.5t76.5 -22.5q9 0 72 -4t116 -4q82 0 130 23.5t71 77.5q67 22 98 22q30 0 41 -7t11 -30q0 -5 -3 -14t-5.5 -32.5t-2.5 -63.5q0 -44 29 -96.5t29 -80.5q0 -49 -45 -69q6 -56 14 -227q4 -59 10 -93l-37 2 q0 54 -16 195q0 106 -47 157.5t-129 51.5q-34 0 -141.5 -17.5t-214.5 -17.5q-48 0 -71.5 -34t-23.5 -111v-66q0 -8 -5 -17t-5 -16q0 -4 5 -38.5t5 -43.5q0 -13 -8 -107.5t-8 -127.5q0 -85 17 -194.5t38 -123.5q19 -13 55.5 -17t66.5 -4t53.5 -16.5t23.5 -52.5 q0 -147 -135 -147q-41 0 -112 18.5t-134 53t-63 71.5q0 14 17.5 25.5t49.5 11.5q25 0 31 12q0 4 -1.5 8t-4.5 8t-5.5 7t-8.5 7.5t-8.5 6.5t-10 6.5l-10 6t-11 6.5t-10.5 6q-88 134 -88 334q0 78 33 241t33 246q0 25 -14.5 36t-53.5 11q-12 0 -31 -3t-41 -3q-55 0 -61 51z " />
<glyph unicode="&#x414;" horiz-adv-x="1376" d="M41 1249q0 60 34.5 103t93.5 65t121.5 31.5t133.5 9.5q151 0 347 -71.5t302 -135.5q71 -49 119.5 -120t91.5 -181q4 -10 11.5 -28t11.5 -29.5t8 -29.5t4 -36l-4 -12v-18q0 -1 -1 -2.5t-2 -6t-1 -10.5q0 -22 2 -47.5t4.5 -44t8 -59.5t9.5 -70q-16 -124 -85.5 -230.5 t-173 -177t-230.5 -110t-258 -39.5q-414 0 -455 283h10q20 0 69 -14.5t71 -14.5q61 0 61 65l-29 543q0 113 7 182q0 5 33.5 49t33.5 66q0 16 -20 25q-146 -18 -193 -117q4 -28 45 -154.5t41 -150.5v-17q-42 11 -65 99q-17 49 -21 57q-50 91 -92.5 193.5t-42.5 154.5z M1198 627v2q-12 92 -51.5 169t-92 131.5t-130 103t-150 81t-168.5 66.5l-24 -9q-3 0 -9 -35t-11 -84.5t-5 -84.5q0 -49 11.5 -196t11.5 -198q0 -81 -8 -127.5t-40 -95.5q-26 -58 -26 -80q0 -6 2 -10q8 0 16 2q209 0 394 97t280 268z" />
<glyph unicode="&#x415;" horiz-adv-x="1458" d="M1188 1454h2q36 0 69 -46.5t33 -68.5q0 -8 -2 -20t-9 -33.5t-27 -39.5t-50 -25l-684 -240q44 28 228.5 103t252.5 130q0 11 -14.5 20t-23.5 9q-85 0 -285 -15.5t-240 -15.5q0 -1 2 -7t4.5 -17.5t4.5 -27t4 -41t2 -54.5q0 -6 -2 -13.5t-5.5 -19t-5.5 -20.5 q0 -19 6.5 -45.5t6.5 -48.5q0 -16 22 -25q11 2 116 8.5t250 12.5t236 6q66 0 104 -14t38 -54v-4q2 -6 4.5 -17.5t5 -18.5t6.5 -11q-42 -42 -135.5 -83.5t-196.5 -41.5q-141 0 -241 -53q-5 -3 -30.5 -13t-49 -21.5t-57.5 -40.5t-62 -69v-119q0 -83 27 -102h36q73 0 184 21 t210 46.5t226 46.5t230 21q39 0 39 -22q0 -14 -19.5 -42.5t-21.5 -37.5q-49 -139 -172 -180q-12 -3 -54.5 -20.5t-93.5 -30t-142 -28t-248.5 -24t-366.5 -8.5q-40 0 -72.5 3.5t-68.5 15.5t-60.5 31.5t-40.5 54t-16 81.5q0 23 5.5 42.5t20.5 39.5t22.5 29t32.5 32t30 27 q49 46 65 76.5t16 99.5q0 81 -12 121.5t-55 59.5q-28 4 -42.5 29t-14.5 53t42.5 81.5t75.5 53.5l-12 262q-19 22 -65 31q-24 0 -42.5 20t-27.5 50t-13 56t-4 46q0 36 23 59q22 -3 59.5 -9.5t67.5 -10.5t55 -4q19 0 132.5 7t300 14t380.5 7h17q12 0 45 -2t45 -2zM688 672v4 q-13 -8 -37 -8q-13 0 -52 5t-71 5q-77 0 -77 -70l4 -18q0 -7 13 -15t24 -10q22 0 82 34.5t83 39.5q10 0 22.5 4.5t12.5 11.5q0 5 -4 17zM246 307v31q-3 35 -45 35q-23 0 -45.5 -25.5t-22.5 -50.5q0 -41 60 -41q53 0 53 51z" />
<glyph unicode="&#x416;" horiz-adv-x="1775" d="M797 1452q126 -43 198 -145q24 -246 33 -617q154 -14 199 -14q24 0 35.5 66t11.5 149q0 175 61 547q0 -1 2 0t9.5 2.5t17.5 1.5q15 0 45 -17q5 -3 9.5 -5.5t7.5 -4t8 -3t7 -2.5t9.5 -2.5l10 -2t13 -3t15.5 -3.5q121 -29 121 -84q0 -16 -14.5 -215.5t-14.5 -298.5 q0 -47 14.5 -80t51.5 -70q88 -88 88 -166q0 -61 -82 -61h-43q-27 -41 -27 -129q0 -12 8 -75t8 -97q0 -11 11.5 -34t11.5 -40q0 -19 -23 -34t-57 -15q-37 0 -68 10.5t-74.5 30.5t-84.5 33q-35 13 -105 57q62 27 62 90q0 17 -7.5 64t-7.5 59q0 2 7 37q-47 41 -62 41 q-10 2 -35 2q-14 1 -45 3t-43 3q-2 -11 -23.5 -77.5t-21.5 -104.5q0 -20 22 -36t57 -29.5t40 -16.5q-37 5 -123 31q1 -13 6.5 -37.5t5.5 -46.5q0 -40 -17 -81.5t-50 -41.5q-59 0 -144 43.5t-116 83.5q35 81 47 174q-8 3 -18 5.5t-23 5.5t-21 5q-12 6 -52.5 26.5t-66 30 t-44.5 9.5q-28 0 -43 -26.5t-15 -96.5q0 -3 2 -20t4 -44t2 -55q0 -89 -51 -131q-137 21 -250 143l-20 357q-14 27 -36.5 51t-40.5 38t-31 36.5t-13 50.5q0 37 13 93.5t42 66.5q34 21 54.5 76t26 101.5t5.5 92.5q0 140 -41 332q22 16 66 16q46 0 143 -59t138 -113v-514 l266 -47q0 469 -37 688q2 10 10 16.5t16.5 9.5t24.5 8t25 9zM563 463q0 -45 199 -133q4 46 4 127q-77 14 -164 14q-39 0 -39 -8z" />
<glyph unicode="&#x417;" horiz-adv-x="1660" d="M1477 336v10q-125 182 -717 182q-84 0 -172.5 42t-146.5 110t-58 135q0 23 25 38t54.5 20.5t59.5 5.5q85 0 167.5 -23.5t189.5 -75.5q171 137 397 353v24q-147 0 -592 21t-481 41q-52 32 -64 215q64 0 190.5 -20.5t227.5 -20.5q98 0 490.5 32t412.5 33q56 -50 88 -99.5 t72 -133.5l-6 -37q-32 -29 -114.5 -91t-178 -131.5t-123.5 -91.5q-100 -78 -139 -124q58 -31 98.5 -54t102 -63.5t104.5 -76t91.5 -85.5t78.5 -100t50 -112.5t20 -127.5q0 -39 -71 -64.5t-138 -25.5q-6 0 -49 0.5t-112.5 1t-139.5 0.5q-77 0 -252.5 2t-257.5 2q-97 0 -210 1 l-114 1q-8 -27 -35.5 -38t-107.5 -11q-38 0 -57 48.5t-19 98.5q0 80 133 101q3 1 21 9t42.5 15t102.5 13t195 6q24 0 398.5 -6t498.5 -6q21 0 33 18.5t12 38.5zM813 768v2q-72 41 -138.5 57.5t-160.5 16.5v-25q68 -57 231 -57q19 0 68 6z" />
<glyph unicode="&#x418;" horiz-adv-x="1431" d="M94 1034q0 189 29 295q51 65 96.5 93t114.5 28q27 0 41 -11.5t14 -45.5q0 -216 -25.5 -578.5t-25.5 -441.5q8 0 12.5 -10.5t11.5 -10.5q68 0 139 38t127.5 93t117.5 135t101.5 144.5t88.5 143t70 110.5q10 45 10 133q0 219 112 219q17 0 51.5 -21.5t49.5 -21.5 q16 0 28 21t17.5 45.5t18 45.5t30.5 21q36 0 52 -47.5t16 -97.5q0 -72 -40.5 -165.5t-117.5 -174.5q0 -4 0.5 -34t1 -78.5t0.5 -98.5q0 -55 2 -181.5t2 -189.5q0 -71 1 -168.5t1 -113.5q-100 -109 -219 -109q-28 0 -41.5 15t-13.5 57q0 110 39 184v223q0 25 -5 107 q-68 -50 -147.5 -134t-144.5 -157.5t-141 -143.5t-168.5 -111.5t-194.5 -41.5q-51 0 -85.5 25.5t-50.5 73.5t-22 97.5t-6 116.5q0 44 5 105.5t5 66.5l12 4q13 -26 13 -81q0 -2 -1 -10.5t-2 -22t-1 -27.5q0 -12 8 -35.5t18 -23.5h21q4 0 4 4v28q0 78 -14.5 337.5t-14.5 377.5 z" />
<glyph unicode="&#x419;" horiz-adv-x="1431" d="M94 1034q0 189 29 295q92 117 233 117q4 0 11 -4.5t14.5 -17.5t7.5 -31q0 -187 -25.5 -514t-25.5 -426q0 -107 35 -107q84 0 186.5 75.5t189.5 184.5t155.5 219t101.5 191q10 45 10 133q0 219 112 219q17 0 51.5 -21.5t49.5 -21.5q16 0 28 21t17.5 45.5t18 45.5t30.5 21 q36 0 52 -47.5t16 -97.5q0 -72 -40.5 -165.5t-117.5 -174.5q0 -75 11 -447.5t11 -406.5q-50 -55 -112 -87t-121 -32q-28 0 -40.5 18.5t-12.5 75.5q0 52 8 85.5t29 76.5v330q-68 -50 -148 -134t-146 -157.5t-142.5 -143.5t-169.5 -111.5t-195 -41.5q-64 0 -82 6 q-82 107 -82 307q0 44 5 105.5t5 66.5l12 4q13 -26 13 -81q0 -2 -0.5 -9.5t-1 -20.5t-0.5 -28q0 -14 6 -37.5t18 -23.5h11q8 0 11 5t3 27q0 120 -14.5 360t-14.5 355zM750 1561q7 0 54.5 19t74.5 19q23 0 34 -20q0 -38 -28 -92q-27 -53 -27 -101q-13 0 -19 -5t-7 -11t-1 -20 q0 -36 -36 -91.5t-75.5 -97.5t-88.5 -90.5t-53 -52.5h-21q9 4 41.5 69t78.5 198.5t73 275.5z" />
<glyph unicode="&#x41a;" horiz-adv-x="1204" d="M934 1458q46 -19 101 -87t55 -122q0 -29 -31 -73.5t-91.5 -102t-123.5 -112t-155.5 -126.5t-156.5 -120t-155 -115v-35q23 -17 142.5 -116t198.5 -150t128 -51q22 0 22 24q2 18 -22 69q-10 22 -4 22q8 1 47 -27q90 -51 182 -120t92 -101q0 -46 -28 -80.5t-91 -34.5 q-184 0 -327 75.5t-340 284.5q-16 0 -24.5 -35.5t-8.5 -78.5q0 -38 -31 -138t-69 -100q-24 0 -86 49q-53 30 -85 75t-32 77q0 15 13.5 37t29.5 44t29.5 60.5t13.5 83.5q0 4 -2 17.5t-2 23.5q0 3 -2 5t-2 3l-4 43v39q0 7 -8.5 14.5t-19.5 14t-19.5 23t-8.5 38.5q0 11 32 51 t32 48q0 186 -51 641q14 20 43 20q50 0 90 -33.5t64.5 -84t42 -119t25.5 -129t11 -123.5l33 4q307 196 532 489q0 24 21 39z" />
<glyph unicode="&#x41b;" horiz-adv-x="1312" d="M1241 41l-20 -4q-30 0 -76 -19.5t-60 -19.5q-32 0 -41 57q0 23 -12 43q-104 326 -191.5 520t-226.5 431l-24 12q-61 -139 -180 -553q0 -50 -21 -102q-15 -33 -29 -77.5t-27 -91.5t-18 -61q-131 -112 -227 -127v-14q0 -7 -5 -13t-17 -6q-8 0 -16.5 18.5t-8.5 35.5 q57 219 156 483q30 77 83 188.5t91 190.5t68 171t30 161q0 20 -29.5 60t-29.5 56q0 23 41 41q26 -16 55 -16q14 0 74 24.5t86 24.5q62 0 119 -75.5t57 -121.5q0 -5 -2.5 -6.5t-12.5 -1.5q-17 0 -33.5 19.5t-30 39t-22.5 19.5q-3 0 -20 -12q10 -13 110 -160q4 -27 27.5 -59.5 t73.5 -85.5q140 -274 235 -496q22 -48 49 -156t50 -153q0 -3 3 -17.5t3 -27.5q0 -14 -15.5 -53t-15.5 -66z" />
<glyph unicode="&#x41c;" horiz-adv-x="1581" d="M207 977q0 19 -41 87t-82 148t-41 127q0 18 49 68.5t88 50.5q5 0 49.5 -77t111.5 -192.5t141.5 -236t152.5 -222.5t131 -136q63 72 132 197.5t114.5 230.5t88 184.5t64.5 79.5q68 0 68 -106q0 -123 -28.5 -227t-66.5 -173t-96.5 -191t-99.5 -249q0 -9 8.5 -25t20.5 -16 q6 0 21.5 18.5t34.5 56t30 77.5h4q0 2 4 2q8 0 8 -56q0 -26 -6.5 -51.5t-20.5 -63t-22 -65.5q0 -45 -23 -81t-47 -36q-7 0 -50 21.5t-58 21.5q-7 0 -27 -17t-37 -17q-37 0 -87 50t-50 89q0 23 9.5 55.5t9.5 46.5q0 41 -48 106t-122 152t-109 146q-9 0 -14 -5.5t-8 -24.5 t-3 -56q0 -43 -8.5 -113t-29.5 -162.5t-51.5 -171t-81 -133.5t-111.5 -55q-11 0 -24 30t-13 58q0 93 41.5 284.5t83 361t41.5 210.5zM1255 565v37v49q0 12 -1 87t-1 145v223v324q44 0 111 -37.5t111 -87.5l9.5 -133t17 -244.5t17.5 -284t15 -315.5t6 -275q0 -49 -35 -49 q-15 0 -86 35t-147 84q-17 189 -17 442z" />
<glyph unicode="&#x41d;" horiz-adv-x="1732" d="M41 848q0 11 16 37q17 0 36 -12.5t46.5 -24.5t65.5 -12q16 0 28 15.5t19 42t12 54.5t7 62.5t2.5 54.5t0.5 41q0 169 -32 332q16 16 53 16q21 0 70 -36.5t102 -83t61 -52.5v-514q284 -71 607 -92q39 7 39 108q0 6 13 149t25.5 301.5t12.5 203.5q0 -1 2.5 0t8.5 2.5t13 1.5 q4 0 20.5 -7.5t40.5 -18.5t42 -17q51 -19 75.5 -37.5t24.5 -46.5q0 -22 -3 -143.5t-3 -210.5q0 -17 -11.5 -91.5t-11.5 -128.5q0 -43 26 -66.5t103 -23.5q76 0 99 -53q41 -91 41 -123q0 -47 -176 -49q-32 0 -68 -8q-18 -35 -18 -123q0 -18 30 -246q0 -20 -17 -34.5 t-46 -14.5q-21 0 -57 17.5t-218 113.5q49 27 49 90q0 18 -5 64.5t-5 58.5q0 9 4 37l-39 41q-140 8 -536 53l-4 -12q0 -33 81 -84.5t227.5 -123t178.5 -89.5q-59 14 -160 59q-51 37 -163 66q-25 7 -92 44.5t-95 37.5q-44 0 -47 -123q0 -2 4 -51t4 -68q0 -88 -43 -131 q-113 21 -207 143l-16 357q-23 23 -62.5 50.5t-67.5 46.5t-49.5 47.5t-21.5 60.5q0 15 -8 67.5t-8 75.5z" />
<glyph unicode="&#x41e;" horiz-adv-x="1372" d="M41 680q0 198 103 391.5t272 284.5q10 5 57 14t55 14q51 5 118.5 39.5t111.5 34.5q103 0 195 -46t160 -123.5t118 -175.5t75 -205.5t25 -211.5q0 -70 -6 -127t-24.5 -119.5t-49.5 -104.5t-85.5 -69.5t-127.5 -27.5l-11 -24q-11 -24 -24.5 -48.5t-44.5 -57.5t-70 -58 t-103.5 -42.5t-141.5 -17.5q-111 0 -219 50.5t-193 137.5t-137.5 216.5t-52.5 275.5zM305 508q7 -17 24.5 -42.5t51.5 -60t75 -63t101 -48.5t125 -20q31 0 72.5 7t85.5 21t74 40t30 59q0 14 -14.5 72t-14.5 88l5 14q0 -2 9.5 -12t20 -22t13.5 -17q0 -8 6 -37.5t14 -37.5v-7 q7 -26 22 -61t25 -35q12 0 20.5 36.5t12 88.5t5 86.5t1.5 52.5q0 39 -9.5 107t-37 162.5t-67 175t-108.5 137.5t-153 57q-383 -178 -389 -741z" />
<glyph unicode="&#x41f;" horiz-adv-x="1204" d="M969 1440q34 0 64.5 7t37.5 7q19 0 28.5 -21t10.5 -71q1 -1 8.5 -8t10.5 -10.5t9 -11.5t10.5 -17t8.5 -21q0 -80 -19.5 -402t-19.5 -443q0 -4 15 -10.5t26 -6.5q0 -10 -32.5 -111.5t-32.5 -132.5q0 -2 4 -37.5t4 -54.5q0 -108 -55 -108q-48 0 -89 40.5t-64.5 97.5 t-36.5 111t-13 89q0 15 22.5 403t22.5 418q-42 0 -169 -17.5t-188 -17.5q-104 -3 -104 -145q0 -14 -22.5 -169t-22.5 -245q0 -64 20.5 -279t32.5 -278q-60 0 -118 20t-144 82q-18 9 -18 45l-2 9q0 24 61 24q33 0 33 14q0 11 -19 27t-34 25q-1 0 -4 2t-7 6q-59 104 -59 270 q0 33 55.5 264.5t55.5 292.5q0 41 -64 41q-3 0 -34 -3t-40 -3q-51 0 -57 51q10 11 38 44t49.5 58t56 58t65.5 54.5t70.5 37t76.5 15.5q9 0 40 -23t70 -45.5t68 -22.5q12 0 79 -4t108 -4q77 0 129 25q1 41 15.5 55.5t62.5 28.5z" />
<glyph unicode="&#x420;" horiz-adv-x="1261" d="M119 565q0 148 43 148q18 0 58 -45t50 -45q29 0 29 28q0 5 -8 29t-8 39q0 5 3 20t6 46t3 75q0 3 -1 13t-1 20q0 7 -1 44t-1 71q0 164 78 254q-7 7 -34.5 13.5t-47.5 6.5q-154 0 -154 -129q0 -27 7.5 -59.5t25 -89t22.5 -74.5q10 -27 13 -66l-13 2q-147 189 -147 391 q0 25 28.5 58t80.5 66t142 55t197 22q96 0 195 -20t196 -64t172.5 -106.5t122 -154.5t46.5 -200q0 -125 -50.5 -225.5t-140.5 -167t-204 -107t-251 -55.5q-37 -4 -49 -16.5t-12 -42.5q0 -12 34 -110.5t34 -159.5q0 -18 -18 -23.5t-54 -5.5q-109 0 -203 70q-12 46 -12 137 v108q0 18 -4.5 30t-16.5 20.5t-21 12.5t-28 11q-37 0 -71.5 47.5t-34.5 128.5zM1012 815q0 80 -42.5 157.5t-109 134.5t-149.5 94.5t-162 43.5q0 -28 -11.5 -209.5t-11.5 -199.5q-3 -131 -12 -193l43 -20q149 0 253.5 44.5t201.5 147.5z" />
<glyph unicode="&#x421;" horiz-adv-x="1200" d="M840 1446h78q143 0 143 -141q0 -9 49 -177q0 -112 -83 -198t-185 -94q35 65 35 176q0 62 -29 108.5t-98 98.5q-230 -131 -360 -354.5t-130 -491.5q0 -25 19 -43t50.5 -26.5t62.5 -12.5t63 -4q40 0 184.5 35.5t302.5 98.5t191 120q26 -3 26 -31q0 -80 -57 -170.5 t-146.5 -165.5t-211.5 -124.5t-242 -49.5q-121 0 -211 39.5t-144 112t-80 168t-26 215.5q0 108 29.5 229t82 231.5t133 198.5t173.5 123q9 9 24 35q0 7 -16 11.5t-35 4.5q-26 0 -51 14q94 76 266 76q67 0 193 -12z" />
<glyph unicode="&#x422;" horiz-adv-x="1173" d="M41 1298q0 21 3.5 53.5t16 69.5t31.5 37q14 0 40.5 -27.5t55.5 -27.5q168 0 498.5 9.5t437.5 25.5q3 -5 9 -49q0 -23 -9 -66.5t-20 -65.5q-20 -35 -84.5 -59.5t-132 -33.5t-133.5 -9q-39 0 -39 -41q0 -53 5 -478t5 -454q0 -16 26.5 -70t26.5 -59q0 -19 -9 -30.5 t-27.5 -16t-30.5 -5.5t-33 -1q-31 0 -73 9.5t-85 27t-72.5 47t-29.5 63.5q0 5 30.5 66t30.5 92q-34 234 -69 400t-88 319l4 18q26 -13 35.5 -38t15 -55.5t20.5 -47.5q7 -33 18.5 -63t36 -87.5t40.5 -95.5q1 13 3 71t3 79.5t4 73.5t6 85t8 80t12 91q0 4 -1.5 10t-6.5 12 t-12 6q-11 0 -121.5 -6t-150.5 -6q-44 0 -76 5.5t-60.5 20.5t-43.5 45.5t-15 75.5z" />
<glyph unicode="&#x423;" horiz-adv-x="1484" d="M96 1380q17 10 29 37q13 29 70 29q66 0 114 -34t78 -91.5t54 -128.5t48 -150t53 -151t77 -136t112 -100q9 0 16 2.5t13.5 9t11 12.5t11 18.5t9.5 20t10 24.5t11 26q28 71 117 262t121 248q39 66 111 123t147 57q49 0 92 -16t43 -43q-3 -322 -316 -541 q-156 -390 -352 -604q0 -25 21 -25h4q77 0 202.5 14t145.5 38v-29q0 -39 -98 -127.5t-140 -106.5q-209 -18 -381 -18q-47 0 -93 4.5t-97 15.5t-83 35t-32 58q0 29 22 98t29 100h5q13 0 27 -16t28 -35t50 -35t87 -16q31 0 57 20l9 16q129 221 129 269q0 12 -47 12 q-23 0 -42 -4t-28 -4q-43 0 -91.5 78.5t-92.5 190t-89 223t-97 190t-101 78.5q-3 0 -15 -2t-22 -2q-3 0 17.5 40t35.5 66zM1346 1237v2q-48 -48 -91 -141v-4q0 -16 -10 -37t-22 -36.5t-24 -29.5t-13 -16l8 -8l23 20q129 129 129 250z" />
<glyph unicode="&#x424;" horiz-adv-x="1650" d="M745 1454l37 -12q195 -69 195 -129q0 -7 14.5 -12t39.5 -9.5t30 -5.5q104 -16 201 -62.5t175 -116t125.5 -167t47.5 -207.5q0 -165 -86 -250.5t-271 -85.5q0 -24 -19.5 -46t-60 -42.5t-77.5 -35.5t-97 -37q-27 -10 -41 -15q0 -60 -22 -94q-18 -30 -41 -100 q-6 -25 -53 -25q-62 0 -150.5 38t-118.5 77q6 14 64 104q-71 0 -151.5 22.5t-159 67t-142.5 103.5t-103.5 139.5t-39.5 167.5q0 89 43 174t113.5 149.5t158.5 114t181.5 75.5t177.5 26q0 78 -10 170q0 10 11.5 17t28.5 7zM348 709q0 -33 12.5 -73.5t40.5 -83t66.5 -77.5 t96 -57.5t124.5 -22.5q6 0 13.5 5.5t7.5 9.5q0 12 -7.5 106t-7.5 111q0 90 3.5 177t8.5 184t7 155q-168 -69 -266.5 -178t-98.5 -256zM1290 668q0 42 -22.5 118.5t-60 158t-96 145.5t-120.5 73q0 -33 -11 -355.5t-11 -340.5q15 -26 32 -41q-8 -8 -8 -12q0 -21 21 -21 q28 0 77.5 48.5t49.5 70.5q0 10 -18.5 53t-18.5 66q0 12 4 12q26 0 36.5 -18.5t18.5 -43.5t23 -34v-4q10 -31 57 -72q15 2 25.5 30t14.5 66.5t5.5 63t1.5 37.5z" />
<glyph unicode="&#x425;" horiz-adv-x="1429" d="M1315 1075l-19 51q-204 -171 -305 -275q-150 -157 -151 -228q0 -25 67.5 -116t158 -176t140.5 -85q15 0 26.5 42t24.5 42q29 0 29 -47q0 -9 -2 -25l-10 -80t-17 -149q-23 -29 -81 -29q-60 0 -120.5 32t-113.5 85t-97.5 107t-92 113t-76.5 87l-33 2q-22 -25 -69 -84 t-85 -103.5t-86 -92.5t-95.5 -74.5t-90.5 -26.5q-15 0 -28 2.5t-29 11t-22 11.5t-25.5 16.5t-20.5 13.5q-11 6 -23 40t-12 65q0 42 -16 63q31 29 107 96t119.5 107t100.5 99t95 110v8q0 12 -30.5 96.5t-73 185t-94.5 182t-87 81.5q-4 0 -29 -22.5t-34 -22.5q-7 0 -19 4 q26 71 86 129.5t117 58.5q52 -15 102.5 -74.5t85 -127t79.5 -147t81 -118.5l23 5q55 45 120.5 118t120.5 137t118 127t137 105t153 53q23 0 46.5 -23t23.5 -46q0 -37 -12.5 -97t-14.5 -84q0 -38 -11 -99.5t-36 -61.5v28z" />
<glyph unicode="&#x426;" horiz-adv-x="1306" d="M61 590q0 46 14.5 184.5t14.5 237.5q0 95 -9.5 212.5t-21.5 145.5q-2 4 -7.5 11t-8 12.5t-2.5 13.5q0 20 39 20q83 0 154 -76t71 -173q-31 -119 -31 -439q0 -250 17 -407q62 -39 213 -39q95 0 119 6q27 6 75 6q114 0 160 70v407q0 78 9.5 336t9.5 266q12 31 51 31 q9 0 15.5 -1.5t13 -3.5t19 -9.5t25 -15.5t40.5 -25t57 -35q59 -47 59 -127q0 -27 -24 -96t-48 -162t-24 -178v-428q12 0 76 17.5t96 17.5q13 0 21 -13t8 -28l-240 -336q-9 -13 -188 -50.5t-207 -37.5q0 17 41.5 44t91.5 52.5t91.5 61.5t41.5 69q0 14 -0.5 21t-3.5 17.5 t-11 16.5t-20 9q-70 -79 -170.5 -112.5t-247.5 -33.5q-379 0 -379 541z" />
<glyph unicode="&#x427;" horiz-adv-x="1732" d="M274 1106q0 175 -32 332q10 10 53 10q51 0 114 -50t119 -116v-514q284 -71 607 -92q25 0 32 57t7 158q0 253 49 543q8 8 26 8q9 0 37 -17q4 -2 6.5 -4t5 -3.5t5.5 -3t4.5 -2.5t5.5 -2.5t5.5 -2t6.5 -1.5t7 -2t9.5 -2.5t10.5 -2.5q100 -26 100 -84q0 -47 -14.5 -256 t-14.5 -318q0 -43 26 -66.5t103 -23.5q56 0 98 -54.5t42 -121.5q0 -45 -123 -45q-24 0 -117 -6q-22 -42 -22 -129q0 -11 6 -74t6 -98q0 -11 9 -34t9 -40q0 -20 -17 -34.5t-46 -14.5q-30 0 -131 42t-144 89q49 27 49 90q0 18 -5 64.5t-5 58.5q0 9 4 37q-15 16 -28 25.5 t-30 14.5t-27 6.5t-35.5 2.5t-38.5 2q-30 2 -119 10q-256 25 -297 33l-4 -12q0 -37 -49 -37q-55 0 -168.5 47t-210.5 115.5t-101 116.5q-1 11 -8.5 65t-7.5 78q0 11 16 37q17 0 36 -12.5t46.5 -24.5t65.5 -12q69 0 69 270z" />
<glyph unicode="&#x428;" horiz-adv-x="1691" d="M979 276l201 -22q19 3 24 74q8 55 8 317q0 107 19.5 360.5t48.5 432.5q0 -1 2 0t9.5 2.5t17.5 1.5q15 0 45 -17q5 -3 9.5 -5.5t7.5 -4t8 -3t7 -2.5t9.5 -2.5l10 -2t13 -3t15.5 -3.5q120 -28 120 -84q0 -60 -16 -339.5t-16 -395.5q0 -228 41 -295q15 -9 40 -20.5t30.5 -17 t11.5 -22.5t6 -49q0 -16 -18 -54.5t-38 -45.5q-21 -39 -43 -57.5t-65 -18.5q-7 0 -32.5 4.5t-94 9t-182.5 4.5q-42 0 -90 -4.5t-79.5 -9t-35.5 -4.5h-51q-117 0 -222 18q-54 0 -165 -9t-154 -9l-41 5q-40 5 -52.5 7t-49 12t-56.5 21.5t-46 32.5t-44 49q-5 9 -14.5 10 t-17 1.5t-13.5 18.5t-6 58q0 19 3.5 38.5t10.5 39t12.5 32t14.5 31t10 21.5q23 54 38 161.5t15 184.5q0 71 -1 127t-1.5 96.5t-4 87.5t-4.5 69.5t-8 74t-9 70t-12.5 89.5t-14.5 101q22 16 66 16q31 0 155.5 -72.5t124.5 -99.5q-2 -94 -14 -346.5t-12 -394.5q0 -256 10 -256 q80 -41 178 -41q51 0 104 18q3 9 3 19q0 24 2 47q-23 885 -41 1081q4 22 12.5 29.5t26.5 7.5q37 0 114 -38.5t121 -100.5q6 -56 12 -202.5t10 -268.5t10 -323t7 -237z" />
<glyph unicode="&#x429;" horiz-adv-x="1759" d="M979 276l199 -14q21 59 31 281t10 348q0 175 61 547q0 -1 2 0t9.5 2.5t17.5 1.5q15 0 45 -17q5 -3 9.5 -5.5t7.5 -4t8 -3t7 -2.5t9.5 -2.5l10 -2t13 -3t15.5 -3.5q120 -28 120 -84l-2 -32q-2 -32 -4.5 -85t-6 -119t-7 -138.5t-6 -139.5t-4.5 -126.5t-2 -94.5 q0 -95 16 -198t47 -103q20 0 32 20.5t18 40.5t14 20q16 0 33.5 -22.5t26.5 -45.5l9 -22q0 -5 -0.5 -9.5t-3 -14.5t-5.5 -21.5t-10 -36l-15 -52.5t-21.5 -77t-28.5 -104l-164 -131l-4 29q0 3 13 27.5t26 59t13 62.5q-2 -2 -31 -2q-3 0 -116 9t-193 9q-40 0 -87.5 -4.5t-80 -9 t-37.5 -4.5h-51q-117 0 -222 18q-25 -6 -79 -6q-56 0 -132 -6t-108 -6l-41 5q-40 5 -52.5 7t-49 12t-56.5 21.5t-46 32.5t-44 49q-5 9 -14.5 10t-17 1.5t-13.5 18.5t-6 58q0 72 26 157t52 175.5t26 175.5q0 71 -1 127t-1.5 96.5t-4 87.5t-4.5 69.5t-8 74t-9 70t-12.5 89.5 t-14.5 101q22 16 66 16q40 0 160 -65t120 -107q-2 -94 -14 -346.5t-12 -394.5q0 -256 10 -256q80 -41 178 -41q51 0 104 18q3 9 3 19q0 24 2 47q-23 885 -41 1081q4 22 12.5 29.5t26.5 7.5q37 0 107 -35t128 -104q6 -56 12 -202.5t10 -268.5t10 -323t7 -237z" />
<glyph unicode="&#x42a;" horiz-adv-x="1304" d="M156 891q0 4 1 11t4 23t5 33q7 40 37 75.5t69 35.5q27 0 46.5 19.5t19.5 54.5v127q0 22 -74 22q-26 0 -86.5 -5t-83.5 -5q-27 0 -39 9.5t-12 21.5q0 29 230 87t315 58q2 0 11 -7.5t18.5 -25t9.5 -36.5q0 -50 -35 -133.5t-35 -96.5q0 -31 11 -43t50 -16 q141 -15 256.5 -56.5t203.5 -109.5t137 -170.5t49 -231.5q0 -89 -33.5 -166.5t-90.5 -134.5t-130.5 -102t-156 -73t-164 -42t-157.5 -14q-45 0 -115.5 12.5t-147 36t-131 64t-54.5 88.5q0 54 60 205.5t87 185.5l13 2q-5 -47 -36.5 -148.5t-31.5 -140.5q0 -17 4 -31t9 -24 t18.5 -19t22 -13.5t30 -11t33 -9t40 -8.5t42.5 -9q20 0 37 17q-41 49 -59.5 126t-18.5 230q0 2 2 44t2 81q0 12 -6 32.5t-6 28.5q0 1 4 23t4 37q0 37 -21 37q-31 0 -101 -84l-7 -7q-22 0 -35.5 49.5t-13.5 96.5zM569 522q23 -203 23 -309q444 104 463 430q-85 115 -190 156 t-273 41q-21 0 -34 -11.5t-13 -31.5q24 -164 24 -275z" />
<glyph unicode="&#x42b;" horiz-adv-x="1619" d="M41 201q0 36 26.5 106.5t68.5 164.5t52 120l13 2q-5 -47 -36.5 -148.5t-31.5 -140.5q0 -125 199 -125q20 0 37 17q-41 49 -59.5 126t-18.5 230q0 5 2 53t2 72q0 12 -6 32.5t-6 28.5q0 4 4 27t4 33q0 37 -21 37q-14 0 -41.5 -23t-50 -46.5t-24.5 -23.5q-17 0 -26 51t-9 99 q0 8 3.5 32t11.5 58t26 59t41 25t58.5 24.5t35.5 51.5q0 42 6 132.5t6 113.5q92 69 238 69q4 0 11 -1.5t16.5 -13t9.5 -30.5q0 -49 -34 -144.5t-34 -109.5q0 -30 12 -42.5t49 -16.5q141 -15 256.5 -56.5t203.5 -109.5t137 -170.5t49 -231.5q0 -89 -33.5 -166.5t-90.5 -134.5 t-130.5 -102t-156 -73t-164 -42t-157.5 -14q-37 0 -89.5 6t-116 21.5t-117 37.5t-89.5 57.5t-36 78.5zM1294 1458q1 -1 33.5 -11.5t68.5 -25.5t66.5 -44.5t30.5 -63.5q24 -258 37 -846q21 -16 45 -16q4 0 4 2q0 -8 -25.5 -99.5t-25.5 -140.5q0 -19 6 -45.5t6 -48.5 q0 -42 -17 -82.5t-50 -40.5q-59 0 -144.5 43.5t-116.5 83.5q52 107 52 283q0 37 -4.5 98t-4.5 82q0 511 -36 829q3 39 75 43zM530 598q0 -78 9.5 -200.5t9.5 -184.5q67 16 128 39t123.5 60.5t108.5 83.5t74.5 110t28.5 137q-15 30 -37.5 55t-46 42t-62 31.5t-67 23t-81.5 17 t-85 12.5l-96 12q-6 0 -14 -7t-9 -14q3 -22 7.5 -99t8.5 -118z" />
<glyph unicode="&#x42c;" horiz-adv-x="1261" d="M41 201q0 35 26.5 103t66 156t54.5 132l13 2q-5 -47 -36.5 -148.5t-31.5 -140.5q0 -43 48 -84t151 -41q20 0 37 17q-41 49 -59.5 126t-18.5 230q0 3 1 13.5t1 19.5q0 5 1 35t1 57q0 12 -6 32.5t-6 28.5q0 3 0.5 7t3 19t4.5 34q0 37 -21 37q-31 0 -101 -84l-7 -7 q-23 0 -33 47.5t-10 100.5q0 7 8 32.5t22.5 59t43.5 59t63 25.5q26 10 32.5 23t6.5 51v127q0 67 12 119q92 69 238 69q15 0 26 -11.5t11 -33.5q0 -49 -34 -144.5t-34 -109.5q0 -30 12 -42.5t49 -16.5q141 -15 256.5 -56.5t203.5 -109.5t137 -170.5t49 -231.5 q0 -89 -33.5 -166.5t-90.5 -134.5t-130.5 -102t-156 -73t-164 -42t-157.5 -14q-53 0 -119 8.5t-145 28.5t-131.5 62.5t-52.5 101.5zM526 373q0 -70 23 -160q84 20 160.5 54.5t146 86t112 126.5t44.5 163q-15 43 -36 74t-50 50t-58 30t-71.5 17t-77 8t-88.5 5.5t-94 8.5 q-16 -3 -23 -21q12 -123 12 -442z" />
<glyph unicode="&#x42d;" horiz-adv-x="1200" d="M717 668l141 61q-25 111 -80 209.5t-140.5 174.5t-186.5 106q-69 -52 -98 -101.5t-29 -122.5q0 -103 34 -159q-102 8 -185 94t-83 198q0 69 33 125q4 4 8 17t6 23t2 12q0 73 37.5 107t122.5 34l3 -2q3 -1 8.5 -2.5t11.5 -1.5q1 0 42.5 4.5t97 9t91.5 4.5q172 0 266 -76 q-7 -4 -34 -8.5t-47.5 -10.5t-20.5 -15q0 -1 24.5 -23.5t63.5 -62t86 -93t94 -124.5t86 -148.5t63.5 -172.5t24.5 -189q0 -277 -121.5 -406t-406.5 -129q-76 0 -159 25t-159.5 72.5t-137.5 109t-97.5 141t-36.5 162.5q0 29 61 29q164 -144 305.5 -198t337.5 -54 q177 0 177 305q-17 0 -54.5 -16.5t-96 -33t-126.5 -16.5q-55 0 -101 17t-46 37l28 92q67 -13 123 -13q47 0 68 9z" />
<glyph unicode="&#x42e;" horiz-adv-x="1558" d="M375 647v2l110 84q8 182 86 362t213 271q7 5 45 14.5t43 14.5h2q36 3 65.5 21t48.5 35t32 17q102 0 187 -47t141.5 -124t95.5 -177.5t56.5 -204.5t17.5 -208q0 -52 -1 -85t-5.5 -85t-13.5 -86.5t-26 -74t-41.5 -63t-61.5 -39.5t-85 -16q0 -51 -53.5 -110t-129 -98.5 t-134.5 -39.5q-82 0 -154.5 33t-124.5 86.5t-92.5 125t-65 145.5t-36.5 151q-59 -65 -86 -96q0 -10 -13 -44t-26 -86.5t-13 -105.5q0 -32 3 -89t3 -95q-9 -33 -61 -33q-59 0 -144 43.5t-116 83.5q51 105 51 283v100q0 9 -3.5 35.5t-4.5 44.5q0 502 -37 829q4 22 12.5 29.5 t26.5 7.5q34 0 119 -42.5t117 -96.5q23 -244 32 -653v-25q0 3 21 6zM696 518q0 -59 51 -114.5t120.5 -87t129.5 -31.5q42 0 88 12t84.5 42.5t38.5 72.5q0 15 -11 68.5t-11 78.5l2 25h4q1 -2 15.5 -22.5t15.5 -26.5q0 -1 0.5 -4.5t1.5 -12t2 -18.5q0 -14 7.5 -36t41.5 -108 q10 4 17 41.5t10.5 87.5t4.5 84t1 52q0 56 -9.5 131.5t-32.5 166t-56 165.5t-86.5 125.5t-116.5 50.5q-141 -61 -224 -260t-88 -482z" />
<glyph unicode="&#x42f;" horiz-adv-x="1343" d="M143 995q0 65 35 131.5t104 125.5t162 105.5t218 73.5t264 27q67 0 131.5 -12t120.5 -35.5t90.5 -63t34.5 -90.5q0 -104 -97 -233h-14l6 29q6 29 6 57q-66 66 -155 92.5t-213 26.5q-89 0 -197 -28.5t-182 -69.5t-74 -74q0 -71 67 -156t162.5 -143t171.5 -58q43 0 43 41 q0 3 -4 28.5t-4 41.5q0 65 -12 161t-12 152l1 2q1 3 2 8.5t1 12.5q10 31 41 31q8 0 39.5 -8.5t46.5 -8.5q28 0 49.5 -7t35.5 -17t24 -30.5t15 -37.5t7.5 -49.5t3 -55t0.5 -63.5q0 -35 5 -48t21 -13q2 0 17 2t31 2q4 -4 21.5 -20t23 -23t12 -22.5t6.5 -33.5 q0 -23 -27.5 -46.5t-61 -44t-40.5 -31.5q6 -60 14.5 -227t8.5 -259q0 -34 -7.5 -50.5t-31.5 -16.5q-36 0 -99 24q-36 27 -65 88.5t-29 136.5q8 19 8 48q0 51 -26 77q-1 -1 -26 -22t-47.5 -40t-62.5 -51.5t-76 -60.5t-83 -63t-88.5 -63t-87 -55.5t-84 -46.5t-74.5 -30.5 t-63 -11.5q-28 0 -53.5 51t-39.5 114.5t-14 110.5q0 52 16 52q19 0 56 -70q43 0 136.5 51t192.5 121.5t173 126.5t104 82v25q-225 25 -327 57q-248 81 -251 274z" />
<glyph unicode="&#x430;" horiz-adv-x="1110" d="M750 836q28 -7 88.5 -51t93.5 -44q39 0 50 -42.5t11 -166.5q0 -10 7.5 -101t7.5 -159q22 -22 41 -22q8 0 20 6q0 -21 -10 -71.5t-29.5 -113t-57 -109t-83.5 -46.5q-68 0 -91.5 52t-23.5 155q0 36 6 118t11 107q-3 25 -15 25q-24 0 -39 -15q-228 -317 -481 -317 q-35 0 -60 3t-56.5 16.5t-51 37.5t-33.5 70t-14 111q0 87 61 188.5t152 183.5t205 137.5t213 55.5q42 0 78 -8zM823 713v2h-59q-72 0 -187.5 -72t-206.5 -177.5t-91 -186.5q0 -39 47 -39q66 0 194.5 67t196.5 127q106 106 106 279z" />
<glyph unicode="&#x431;" horiz-adv-x="1216" d="M147 854q0 61 45.5 110t111.5 77t147 47t144 25.5t110 6.5q94 0 201.5 -19.5t178.5 -66.5q41 -29 66 -92.5t25 -132.5q0 -63 -25 -111q-37 78 -212.5 125t-348.5 47q-102 0 -165 -36.5t-63 -102.5q-12 -30 -12 -57q0 -37 25 -37q16 0 58 19.5t100 39t112 19.5 q75 0 164.5 -34.5t165.5 -89.5t127 -130.5t51 -149.5q0 -63 -24.5 -116.5t-61.5 -90.5t-94.5 -67t-110.5 -48.5t-122.5 -33.5t-116.5 -21.5t-107 -13.5q-16 0 -188 33q-16 -4 -19.5 -26t-3.5 -72q0 -25 -13 -39.5t-48 -20.5q-85 12 -144 101.5t-59 195.5v10q0 43 12 43v-4 q0 -9 8 -24.5t17 -16.5q26 0 26 29q0 2 2 22.5t3.5 76t1.5 143.5q0 262 86 434q-3 4 -26.5 18t-23.5 31zM332 190q0 -31 4 -32q0 -52 -12 -90v-2q0 -31 53 -31q65 0 122.5 10t102 23.5t91 42t77 51.5t73 67t67.5 72.5t71 83.5q-64 98 -322 98q-331 0 -331 -168v-63 q1 -4 1.5 -12.5t1 -23.5t1.5 -26z" />
<glyph unicode="&#x432;" horiz-adv-x="1193" d="M147 940q0 72 67.5 146t158 125t177 83.5t130.5 32.5q51 0 99 -6.5t100.5 -26.5t91 -51t63.5 -84.5t25 -122.5q0 -95 -45 -154.5t-160 -131.5q54 -31 100.5 -65t94.5 -79.5t76 -99.5t28 -109q0 -73 -31 -134.5t-84 -103t-118 -72.5t-138.5 -48t-139 -25t-126.5 -8 q-9 0 -79.5 16.5t-108.5 16.5q-27 -9 -27 -59q0 -2 2 -16t2 -23q0 -50 -55 -60q-86 12 -147.5 102t-61.5 195q0 30 12 49q0 -9 8 -24.5t17 -16.5q26 0 26 29q0 5 2.5 33.5t7.5 97t9 156.5q8 148 23.5 233t50.5 156q-3 4 -26.5 18t-23.5 31zM324 154v-2q0 -31 53 -31 q130 0 262.5 41t231.5 123.5t110 185.5q-29 60 -117 93.5t-211 33.5q-49 0 -103.5 -11t-105.5 -32.5t-84.5 -59t-33.5 -83.5q0 -22 7.5 -73.5t8.5 -78.5q0 -50 -18 -106zM645 801q69 0 143 -27q42 46 63 71t42.5 65t21.5 75q0 83 -43.5 122.5t-154.5 39.5 q-136 -18 -243 -128.5t-124 -258.5q0 -37 25 -37q16 0 58 19.5t100 39t112 19.5z" />
<glyph unicode="&#x433;" horiz-adv-x="917" d="M61 717q0 43 35.5 75.5t90 48.5t106.5 23.5t100 7.5q52 0 110 -11.5t112.5 -33.5t90 -61t35.5 -88q0 -75 41 -84q-12 -132 -102 -170q-66 -26 -200 -51t-191 -45l-8 -29q26 -43 83.5 -73t125 -42t111.5 -16t79 -4q43 0 114 26.5t72 26.5q6 0 8 -2q0 -6 -17.5 -47.5 t-51 -90t-64.5 -57.5q-190 -38 -307 -38q-82 0 -150 15.5t-124 48t-87.5 90t-31.5 136.5q0 55 37.5 95.5t94 61.5t125.5 38.5t130.5 28t110.5 28.5t63 41q0 42 -49 75.5t-119 50.5t-132 25.5t-103 8.5q-65 0 -138 -31v23z" />
<glyph unicode="&#x434;" horiz-adv-x="1216" d="M950 950h2q84 0 154 -96.5t70 -202.5q0 -9 -4 -38t-7 -29q-4 0 -4 24q0 10 -6.5 22.5t-15.5 12.5q-27 0 -27 -29q0 -56 -3 -140t-11.5 -205t-29 -214t-48.5 -116q3 -4 26 -19t23 -31q0 -61 -45.5 -110t-111 -77t-146.5 -47t-144 -25.5t-110 -6.5q-62 0 -124 8t-127 29 t-114 52t-80.5 82t-31.5 114q0 68 31 137q20 -39 53 -68.5t78.5 -47.5t91.5 -30t108 -17t112 -7t118 -2q106 0 167.5 46t71.5 151q0 36 -24 36q-16 0 -58 -19t-100.5 -38.5t-112.5 -19.5q-103 0 -221 56.5t-202.5 152.5t-84.5 194q0 65 23.5 120t62.5 94.5t93 70.5t111 50.5 t120.5 32.5t119 18t107.5 5q37 0 95 -16t94 -16q24 12 24 75q0 1 -0.5 3.5t-1 8t-0.5 11.5q0 24 11 42.5t28 18.5zM893 676v2q0 31 -53 31q-66 0 -121.5 -4.5t-121.5 -17t-120 -37.5t-103.5 -62.5t-85 -96t-52.5 -133.5q0 -43 97.5 -70.5t223.5 -27.5q45 0 85.5 3.5t87.5 14 t80.5 28.5t56 49t22.5 73q0 51 -2 61q0 33 -2 64q0 87 8 123z" />
<glyph unicode="&#x435;" horiz-adv-x="1024" d="M545 870h2q87 0 172.5 -48t140.5 -129t55 -169q0 -38 -21 -74t-60 -36q-21 35 -58 35q-10 0 -71 -19.5t-70 -19.5q-4 0 -11 4t-10 4q-55 -8 -174 -8q-24 0 -71.5 7t-67.5 7q-54 0 -57 -39l-4 -55q0 -66 57 -89.5t182 -23.5q210 0 492 113l12 -11q-60 -119 -119 -186.5 t-139.5 -101t-194.5 -33.5q-82 0 -151.5 11t-133.5 37.5t-108 68t-70 107t-26 149.5q0 154 87.5 246.5t279.5 162.5q15 38 50.5 64t86.5 26zM690 621q-31 53 -102.5 82.5t-151.5 29.5q-70 0 -114 -90q-2 -4 -5 -9.5t-4.5 -8t-2.5 -6.5t-1 -9q0 -11 13 -24l331 -13 q37 0 37 48z" />
<glyph unicode="&#x436;" horiz-adv-x="1277" d="M729 178q0 -36 11.5 -69.5t11.5 -69.5q0 -43 -78 -43q-20 0 -52 3t-38 3q-4 0 -7.5 11t-3.5 22q0 4 4.5 93t4.5 112q0 10 -15 10q-18 0 -24 -6q-81 -67 -198 -138t-161 -71q-23 0 -42.5 23t-30.5 55.5t-17 62t-6 47.5q190 0 330 119v23q0 8 -125 133q-25 22 -58 69.5 t-59.5 78t-50.5 30.5q-14 0 -42 -21.5t-34 -21.5t-6 22q16 35 42 81.5t65.5 94.5t66.5 48q29 0 79 -88l9 -13q15 -55 107 -162.5t149 -107.5q2 2 8 2q8 0 11 6l14 387q0 36 12.5 84.5t32.5 48.5q90 -21 90 -57q0 -3 -4 -14.5t-4 -16.5l6 -26q2 -6 2 -25v-16v-361q0 -8 23 -8 q31 0 113.5 90.5t82.5 118.5q6 6 19.5 36t28 58t45 52t69.5 24q33 0 73.5 -35t53.5 -68q-52 -119 -223 -290q-26 -26 -72.5 -75.5t-50.5 -53.5v-23q122 -102 299 -135q13 16 31 16q5 0 8 -16q-2 -2 -16.5 -47t-39 -85t-53.5 -40q-31 0 -105.5 44t-163 103t-122.5 76v-84z " />
<glyph unicode="&#x437;" horiz-adv-x="1134" d="M391 469q0 72 30 136.5t76 107t99.5 67.5t101.5 25q52 0 94 -10.5t71 -26.5t53 -44.5t38 -55t27 -67.5t20.5 -72t18.5 -79t20 -79q0 -21 -29.5 -41t-64.5 -33.5t-64.5 -29t-29.5 -27.5q0 -8 10 -15q10 -6 37.5 -14.5t55.5 -18.5t56.5 -25.5t46 -43t17.5 -64.5 q0 -210 -120 -323t-316 -113q-47 0 -138 13.5t-185.5 49.5t-94.5 83q0 42 33.5 143.5t62.5 101.5t50.5 -28.5t31.5 -62.5t23 -62.5t27 -28.5q4 0 77 -12.5t121 -12.5q101 0 162 65t61 202q0 23 -31 42t-68 31.5t-68 41t-31 69.5q38 18 61.5 33.5t50 42t39.5 66t13 92.5 q0 13 -8 42t-25 67.5t-53.5 66.5t-83.5 28q-33 0 -60.5 -13.5t-44.5 -32t-33.5 -51t-25 -57.5t-21.5 -64.5t-20 -59.5q-70 21 -70 51z" />
<glyph unicode="&#x438;" horiz-adv-x="1007" d="M236 870q20 -14 34 -61q1 -10 7.5 -83.5t9 -107t5.5 -108t3 -152.5q6 -16 29 -16q57 0 128 60.5t127.5 143t98 159.5t51.5 118q33 33 70 33q29 0 95.5 -31.5t66.5 -48.5q0 -8 -3 -22.5t-14.5 -42t-30.5 -52.5q-16 -31 -16 -159q0 -149 43 -492q1 -17 14 -43t13 -37 q0 -9 -24 -13.5t-38 -4.5q-27 0 -45 6q-97 0 -139.5 40.5t-42.5 104.5q0 1 0.5 14.5t1.5 34.5t2 44.5t1.5 49.5t0.5 44q0 15 -12 35l-25 4q-19 -21 -64 -75.5t-67.5 -78t-60 -57t-73 -48.5t-75.5 -18q-54 24 -114 72t-82 108q0 180 -18.5 410.5t-51.5 321.5q19 8 39 8 q17 0 45.5 -11t62.5 -27.5t48 -21.5z" />
<glyph unicode="&#x439;" horiz-adv-x="1007" d="M94 442q0 283 -53 480q19 8 39 8q29 0 97 -36t97 -79q13 -151 21 -457q6 -16 29 -16q57 0 128 60.5t127.5 143t98 159.5t51.5 118q33 33 70 33q32 0 97 -28t65 -52q0 -8 -3 -22.5t-14.5 -42t-30.5 -52.5q-16 -31 -16 -159q0 -149 43 -492q1 -17 14 -43t13 -37t-62 -18 q-110 0 -168.5 39t-58.5 112q0 11 3 88.5t3 98.5q0 12 -10.5 25.5t-26.5 13.5q-109 -124 -189.5 -195t-150.5 -82q-35 13 -75.5 36t-80.5 64t-40 80q-5 39 -17 252zM383 797l207 149q31 0 46 -13t15 -56q0 -27 -12.5 -45t-81.5 -91q-10 -10 -40.5 -18t-57.5 -8q-37 0 -37 14 q0 4 8 35q0 13 -27.5 18.5t-27.5 8.5t8 6z" />
<glyph unicode="&#x43a;" horiz-adv-x="962" d="M100 981l33 41l41 12q28 -4 47.5 -11t30 -13t17.5 -19.5t9 -20.5t4.5 -26.5t4.5 -28.5v-397q8 -8 28 -8q35 0 145.5 81t110.5 114q0 5 -5.5 10.5t-10.5 5.5q-13 0 -40 -18t-36 -27q25 32 69.5 76.5t109 89.5t106.5 45q45 0 89.5 -31.5t68.5 -69.5q-46 -102 -433 -419v-23 q151 -103 373 -135q16 16 39 16q7 0 10 -16q-1 -1 -20.5 -47t-49.5 -85.5t-65 -39.5q-27 0 -67 13t-95 40t-96.5 49t-110 60t-96.5 53q-43 0 -67 -113q0 -11 -31 -90l-109 -49q-5 0 -8.5 11.5t-3.5 21.5q1 3 1.5 11t2 15.5t4.5 14.5q0 25 -4 41l4 118q0 15 -4 36.5t-4 29.5 q0 5 -25.5 26t-25.5 25v6q0 15 27.5 49.5t31.5 43.5v532z" />
<glyph unicode="&#x43b;" horiz-adv-x="872" d="M104 0l-22 -16h-29q-10 3 -10 32q0 34 18.5 103.5t39.5 130t45 126.5t26 73q12 27 31 72t29.5 68t27 51t36.5 43.5t46 23.5q23 23 37.5 52t20.5 48.5t24.5 39t50.5 30.5q38 22 57 22q28 0 62 -52.5t58 -112.5t49 -130t30 -80q11 -30 42 -101t44.5 -121t13.5 -109 q0 -70 -53 -119t-147 -49q-24 0 -50 13.5t-51.5 41t-42 78.5t-16.5 116v9q20 -20 64 -75t63 -69q-5 58 -37 154.5t-121 304.5l-26 16q-29 -83 -66 -200t-63.5 -196t-48.5 -130z" />
<glyph unicode="&#x43c;" horiz-adv-x="1445" d="M1171 -57q-4 0 -29 64q-17 44 -30.5 78t-46 115t-70.5 173q-6 14 -28 14q-33 0 -57 -47.5t-35 -107t-25 -126t-27 -90.5q-40 -63 -133 -69q-20 66 -31 146.5t-16 138t-34 142.5t-85 175q-55 0 -120.5 -138t-159.5 -456q-3 0 -14.5 -3t-24.5 -3q-48 0 -82.5 19.5t-51 51.5 t-23.5 63t-7 64q0 55 12.5 112.5t28.5 101.5t46.5 101.5t51.5 92t59.5 94.5t55.5 88q34 62 109 104.5t112 47.5q82 0 82 -47q0 -16 -22.5 -57t-22.5 -64l65 29q8 6 17 11.5t17 8t14.5 4.5t9.5 3l4 1q19 0 29 -8q73 -117 131 -297q21 0 55.5 64.5t56.5 126.5q20 55 51 93 t70 38q38 0 70 -70q9 -47 130 -393t132 -385q-24 -27 -78 -27q-12 0 -156 23z" />
<glyph unicode="&#x43d;" horiz-adv-x="952" d="M899 98q0 -31 -42 -57.5t-105 -26.5q-107 0 -107 45q0 9 4 30.5t13.5 77t19.5 126.5q0 44 -63 70t-148 26q-66 0 -113 -21t-53 -61q-24 -108 -24 -217q0 -12 28 -24q0 -16 -57 -57.5t-72 -41.5q-38 0 -85.5 64t-47.5 127q0 27 10.5 111.5t20.5 159t10 77.5 q0 33 -19.5 174.5t-19.5 167.5q0 37 162 37q106 0 106 -64q0 -35 -8 -131q0 -34 20 -113t44 -79q3 0 16.5 9t26.5 9h131q69 0 116.5 65t47.5 214q0 59 26 59q11 0 45 -17.5t52 -17.5q52 0 64.5 -21t12.5 -91q0 -22 -12 -101v-508z" />
<glyph unicode="&#x43e;" horiz-adv-x="966" d="M41 426v2q0 76 37 159.5t101.5 155.5t164.5 119t213 47q-20 -13 -60.5 -39t-61.5 -40t-54.5 -39t-51.5 -43t-41.5 -46t-34.5 -54t-19.5 -60t-8.5 -72q0 -40 6.5 -90.5t21 -107t44 -94.5t68.5 -38q332 0 344 435q-41 18 -91 18q-77 0 -217 -57q-12 0 -24 11t-12 23 q0 67 43.5 118.5t106.5 76.5t132 25q68 0 119 -23t81 -59.5t48.5 -91t24.5 -107t6 -117.5q0 -87 -44.5 -170.5t-115 -143t-160.5 -96t-178 -36.5q-173 0 -280 120.5t-107 313.5z" />
<glyph unicode="&#x43f;" horiz-adv-x="976" d="M41 866v2q37 11 63 11q63 0 109.5 -37t46.5 -105q0 -32 16.5 -55t49.5 -23q11 0 46 26.5t74 57.5t92.5 57.5t98.5 26.5q70 0 116 -43.5t52 -107.5q8 -79 16 -181.5t14.5 -160.5t18.5 -113q1 -4 12.5 -9t16.5 -5q8 0 23 14.5t28 36.5l2 -16q0 -13 -15 -50t-39 -79.5 t-61.5 -75.5t-75.5 -33q-32 0 -59 22t-43 57.5t-25.5 69.5t-13.5 68q-16 149 -26 438q-1 7 -13.5 12t-25.5 5q-17 0 -39 -25q-203 -244 -203 -309v-94q0 -114 -41 -248q-6 -2 -18 -2h-17q-80 0 -119 45.5t-39 142.5q0 69 25 105q-8 304 -21 416q-10 84 -26 159z" />
<glyph unicode="&#x440;" horiz-adv-x="1054" d="M45 895h35q49 0 85 -23.5t59.5 -68.5t37.5 -94t25 -117q9 -55 26 -55q7 18 20 51.5t22 55.5t23.5 53.5t27 52.5t31.5 44t39 36.5t46 22.5t56 9q98 0 175 -31.5t125 -82t79.5 -120t44 -140t12.5 -146.5q0 -70 -38 -132.5t-97.5 -105t-131 -73.5t-139 -45.5t-121.5 -14.5 q-72 0 -137 19l-20 -23l24 -364q-17 -17 -43 -17q-81 0 -131.5 66.5t-50.5 142.5q0 33 8 156q0 51 -8 78q-28 20 -51 58t-23 69q0 11 5 28t16 21q3 0 20 -18.5t21 -18.5q12 0 12 45q0 302 -45 588q0 14 -21 43q-24 24 -24 39q0 6 6 12zM322 342q0 -22 16 -233h20 q47 0 117.5 33t137.5 84.5t115 124t48 141.5q0 92 -54.5 132t-176.5 40q-70 0 -122 -47t-76.5 -118.5t-24.5 -156.5z" />
<glyph unicode="&#x441;" horiz-adv-x="913" d="M553 831l82 41q37 0 91 -54t96 -134.5t42 -146.5q0 -45 -35 -45q-31 0 -56.5 18t-45 43.5l-39 51t-46 43.5t-58.5 18q-83 0 -154.5 -25t-120 -65t-83 -89.5t-50.5 -98.5t-16 -93q0 -50 59.5 -84.5t112.5 -34.5q72 0 164.5 18t199.5 68t160 123q16 0 16 -35 q0 -15 -12.5 -61t-15.5 -60q-69 -127 -192.5 -180t-297.5 -53q-99 0 -172 53.5t-107 135.5t-34 180q0 210 145 338t367 128z" />
<glyph unicode="&#x442;" horiz-adv-x="1419" d="M49 944v2q146 -21 207 -123q17 -78 25 -202q0 -16 2 -52.5t2 -68.5v-68q0 -10 12 -10l6 2h8q60 159 136.5 275t189.5 192l4 -1q4 0 10.5 -0.5t14.5 -0.5q90 0 114.5 -37t24.5 -158q0 -97 26 -162q114 92 214.5 148.5t193.5 56.5q26 0 45 -17.5t30.5 -53t18.5 -71.5 t10 -91.5t4 -93.5t1 -95q0 -54 9 -137t21 -133q-41 -78 -182 -121q-26 0 -46 8t-33.5 19t-22.5 32.5t-13.5 38t-6.5 47.5t-2.5 48.5t-0.5 52.5q0 38 3 122.5t3 135.5q0 17 -7.5 34t-22.5 17q-35 -9 -80 -53t-87 -101t-83 -113t-79.5 -94t-64.5 -38q-21 0 -37.5 6.5t-28 21 t-20 29t-14 40.5t-8.5 46t-4 53.5t-1.5 54.5t-0.5 58q0 3 0.5 12t1.5 32.5t2 58.5q0 49 -45 49q-52 -57 -165.5 -280t-137.5 -259q-11 -20 -33 -20q-9 0 -18 5t-35.5 32t-67.5 79q0 22 -8 280t-8 308q0 24 12 132t12 126z" />
<glyph unicode="&#x443;" horiz-adv-x="956" d="M59 717q0 114 84 114q37 -25 62.5 -71.5t42 -98.5t37 -105.5t61 -104t100.5 -82.5q29 29 75 111.5t87 163.5t92.5 153.5t92.5 89.5h2q120 -19 120 -94q-61 -159 -94 -362t-39 -345q-1 -1 -22.5 -29.5t-33.5 -43.5t-38 -43t-46.5 -43.5t-47 -28.5t-49.5 -13q-42 0 -95 -68 t-53 -128q0 -33 21 -60l-10 -30q-41 -20 -120 -49t-112 -29q-54 0 -94.5 34.5t-40.5 79.5q0 14 11.5 38.5t37.5 67t53 84t74.5 114.5t85.5 133q-6 51 -84 141q-49 55 -81 116t-48 128.5t-22 124.5t-9 135zM705 139q81 109 98 332q-137 -215 -137 -307q0 -29 26 -29z" />
<glyph unicode="&#x444;" horiz-adv-x="1056" d="M41 358q0 208 209 324q18 13 68 29.5t98 29.5l47 13q-1 4 -5 21t-5 30h12q66 0 106 -33q19 -15 36 -30.5t22 -20.5t16.5 -10t23.5 -5.5t40 -0.5q184 0 229 -70q32 -49 55 -127t23 -137q0 -52 -19 -107q-44 -75 -158.5 -152.5t-203.5 -95.5q-6 -42 -8 -94q-2 -27 -2.5 -36 t-3 -41t-5 -47.5t-7.5 -46t-11 -48t-15 -42.5t-20.5 -39t-25.5 -28.5t-32.5 -21t-39.5 -6.5q-29 0 -43 29.5t-14 70.5q0 54 12.5 92.5t27 55t27 37.5t12.5 43q0 11 -2 24.5t-5 23t-7.5 27t-7.5 27.5q-75 0 -149.5 25t-136 69.5t-100 115t-38.5 152.5zM240 455 q0 -19 0.5 -35.5t4.5 -50.5t11.5 -61t22.5 -59.5t35 -54t53 -36.5t73 -15q35 0 35 52q0 10 1 44t1 60q0 25 1 85t1 81q0 17 -3.5 24t-8 7t-14 -2t-15.5 -2q-14 0 -27.5 9t-13.5 21q0 38 20.5 75.5t53.5 61.5q0 7 -8 7q-93 0 -158 -68.5t-65 -142.5zM680 508 q0 -34 -1.5 -66.5t-4.5 -71t-5.5 -64t-7.5 -77t-8 -77.5q48 11 83.5 46.5t53 74.5t27.5 87t12 72.5t2 42.5q0 105 -96 105q-33 0 -44 -18.5t-11 -53.5z" />
<glyph unicode="&#x445;" horiz-adv-x="997" d="M299 885h16l35 -94q14 -43 64.5 -102.5t85.5 -59.5q9 0 24 9.5t27 20t30 27.5t25 23q140 110 221 110q64 0 96.5 -39.5t32.5 -99.5t-31.5 -165t-31.5 -169q0 -29 -6.5 -65.5t-20.5 -77.5t-33.5 -75t-50 -56.5t-65.5 -22.5q-25 0 -59 32t-63.5 70.5t-68 70.5t-71.5 32 l-9 -5q-172 -83 -172 -159q0 -11 29 -24q0 -7 -58 -53t-71 -46q-41 0 -85 83.5t-44 150.5q24 27 90 83t120.5 109.5t70.5 93.5q-43 70 -74 163t-31 173q0 26 27.5 44t50.5 18zM788 221q69 91 87 154t18 211q0 20 -12 20h-23q-25 0 -124.5 -85t-119.5 -124q5 -7 21.5 -27.5 t23 -28.5t21 -25.5t22.5 -26t21 -21.5t22.5 -20.5t21 -15t21.5 -11.5z" />
<glyph unicode="&#x446;" horiz-adv-x="1050" d="M889 586l-21 -383q10 0 48.5 30.5t56.5 30.5q13 0 25 -22t12 -58q0 -11 -33 -28l-39 -142l-150 -137l-4 29q0 50 35 100q-43 20 -63.5 42t-20.5 61q0 29 -1.5 43t-9 32t-25.5 25.5t-48 7.5q-11 0 -46 -26.5t-74 -57.5t-92.5 -57.5t-98.5 -26.5q-71 0 -119.5 44.5 t-48.5 107.5q0 353 -49 454q-4 7 -16 11t-19 4q-8 0 -45 -52l-2 17q0 13 15 49.5t38.5 79.5t61 75.5t75.5 32.5q32 0 59 -22.5t43 -57.5t26 -69.5t14 -67.5q7 -65 11 -128t8 -157t7 -153q3 -16 52 -16q3 0 6 2.5t9 9.5t11 12q15 15 54 42.5t71 49.5t58 53.5t26 59.5 q0 22 -3 73t-3 79q0 179 41 295l35 2q80 0 118.5 -45.5t38.5 -143.5q0 -70 -24 -104z" />
<glyph unicode="&#x447;" horiz-adv-x="917" d="M139 639l72 182q32 -9 63.5 -27.5t57.5 -37.5t56 -37t70.5 -29.5t88.5 -11.5q43 0 89 24.5t82 49t54 24.5q31 0 31 -24q-3 -19 -24 -66.5t-21 -58.5q0 -27 24 -33q0 -63 -27.5 -106.5t-74.5 -63.5q-94 -37 -207 -53q-115 -16 -151 -33q-34 -16 -41 -39q34 -45 79 -74 t102.5 -41.5t104.5 -16t117 -3.5q31 0 74.5 13t74.5 26.5t33 13.5q4 0 -14.5 -35t-51 -83.5t-59.5 -78.5q-120 -38 -307 -38q-82 0 -150 15.5t-124 48t-87.5 90t-31.5 136.5q0 57 46.5 105t125.5 82q65 26 141.5 37t125 12.5t94 22t69.5 67.5q-164 -8 -176 -8 q-167 0 -186 55q-3 10 -15 10q-16 0 -53 -18.5t-53 -18.5q-21 0 -21 21z" />
<glyph unicode="&#x448;" horiz-adv-x="1540" d="M1499 98l-78 -176q-146 21 -207 123q-28 150 -28 391q0 5 -5 10t-7 5q-8 0 -15 -7q-17 -29 -47.5 -97t-59 -124.5t-66 -115.5t-84 -93t-97.5 -34q-32 0 -53 3t-36.5 13t-24 22t-14 37t-7.5 50t-4 69q-6 112 -27 162q-41 -16 -84.5 -55t-80 -81t-75.5 -82.5t-87 -66.5 t-99 -26q-113 0 -113 241q0 11 15.5 190.5t15.5 192.5q0 26 -11.5 41.5t-26 21.5t-30 20.5t-22.5 37.5q26 53 96.5 113.5t136.5 60.5q27 0 48 -23.5t33.5 -68t20.5 -91.5t11.5 -111.5t4.5 -108.5t1 -101q0 -15 7.5 -33t19.5 -18q58 24 110.5 89.5t90 140t73 146t73.5 118.5 t77 47q62 0 81 -39.5t19 -132.5q0 -43 -6.5 -162.5t-9.5 -218.5q0 -49 45 -49q50 48 99 128.5t80.5 152t66.5 148t57 109.5q12 21 33 21q17 0 56 -32t65 -85q-3 -3 -3 -41q0 -18 -1 -90.5t-1 -124.5v-141v-137v-119q0 -23 17 -23q7 0 22.5 10.5t22.5 10.5q12 0 12 -17z" />
<glyph unicode="&#x449;" horiz-adv-x="1597" d="M41 770q26 53 96.5 113.5t136.5 60.5q30 0 52.5 -36t34.5 -88.5t20 -125t10 -132t2 -122.5q0 -15 7.5 -33t19.5 -18q32 0 86 59.5t111.5 150.5t103.5 171t80 148q28 12 43 12q61 0 80.5 -40.5t19.5 -131.5q0 -43 -6.5 -162.5t-9.5 -218.5q0 -49 45 -49q21 3 31 16 q196 233 272 522q12 21 33 21q11 0 35 -11.5t51.5 -40.5t34.5 -65q0 -11 -7.5 -161t-7.5 -259q0 -50 9 -139.5t22 -89.5q15 0 35 19.5t37 19.5q18 0 28 -25t10 -63q0 -29 -34 -56q-6 -38 -10.5 -60.5t-14 -50.5t-21.5 -43.5t-32 -32.5t-46.5 -25t-64 -13.5t-86.5 -5.5 q-12 0 -12 27q0 10 1 20t1 12q0 9 22.5 22.5t49 26t49 33t22.5 41.5q-108 18 -149 84.5t-41 196.5q0 12 -1 34.5t-1 36.5q0 10 -1 48t-1 69q0 10 -12 10q-11 -2 -31.5 -37.5t-43.5 -87t-55.5 -111.5t-67 -111t-80 -85t-91.5 -34q-32 0 -53 3t-36.5 13t-24 22t-14 37t-7.5 50 t-4 69q-6 112 -27 162q-41 -16 -84.5 -55t-80 -81t-75.5 -82.5t-87 -66.5t-99 -26q-88 0 -88 342q0 63 3 160t3 122q0 26 -11.5 41.5t-26 21.5t-30 20.5t-22.5 37.5z" />
<glyph unicode="&#x44a;" horiz-adv-x="1036" d="M328 1065l65 -27l-24 -374q0 -94 12 -156l29 2q35 44 51.5 63.5t43.5 44t52.5 33t58.5 8.5q92 0 179 -41t143.5 -116.5t56.5 -165.5q0 -75 -52.5 -139.5t-131 -103t-161 -60t-150.5 -21.5q-34 0 -65.5 18.5t-57 41t-39.5 26.5q-21 0 -64.5 -30.5t-68.5 -30.5t-43 41 l31 217q-31 87 -31 313q0 27 3.5 57.5t10 59.5t13.5 55t16 52t15 42t12.5 33.5t7.5 18.5q0 10 -13 10q-15 0 -77 -23.5t-82 -23.5q-23 0 -23 18q0 41 51.5 79t117 58.5t114.5 20.5zM377 371q0 -30 16 -78l82 53l17 -10q-58 -52 -58 -107q0 -28 8 -36q52 3 101 11t98 23.5 t79 44.5t30 68q0 62 -76 134.5t-144 72.5q-48 0 -85 -31t-52.5 -70t-15.5 -75z" />
<glyph unicode="&#x44b;" horiz-adv-x="1249" d="M41 567q0 96 22 262q0 207 177 238h2q12 0 23 -7t11 -18l-4 -41q-7 -96 -8 -120q-12 -111 -12 -213q0 -94 12 -156l29 2q35 44 51.5 64t43.5 44t53 33t59 9q93 0 180 -41.5t143 -117t56 -165.5q0 -61 -35 -115t-90 -91.5t-122 -64.5t-131.5 -40t-117.5 -13q-27 0 -53 12 t-43.5 27t-36 29.5t-29.5 17.5q-27 0 -61 -30q-36 -31 -72 -31q-25 0 -43 41l31 217q-16 42 -25.5 120.5t-9.5 147.5zM1139 1059q45 -35 45 -133q0 -21 -24.5 -56.5t-37.5 -68.5q0 -93 6 -264.5t17 -257.5q15 -5 22 -5q13 1 25.5 7t15.5 6q-10 -38 -41.5 -97.5t-84 -114.5 t-99.5 -55q-88 0 -88 392q0 121 1 170.5t9.5 134.5t26.5 157q34 99 85.5 139.5t121.5 45.5zM260 375q0 -10 7.5 -40.5t8.5 -37.5l82 53l17 -10q-58 -52 -58 -107q0 -12 9 -36q39 2 66.5 4.5t67 8t67 16t53.5 25.5t39.5 38.5t13.5 54.5q0 36 -8 67.5t-29.5 65.5t-68 54 t-113.5 20q-71 0 -112.5 -58.5t-41.5 -117.5z" />
<glyph unicode="&#x44c;" horiz-adv-x="919" d="M41 567q0 57 3.5 110.5t16 123.5t33 122.5t59 93.5t89.5 50h4q30 0 30 -25l-24 -374q0 -94 12 -156l29 2q35 44 51.5 64t43.5 44t53 33t59 9q93 0 180 -41.5t143 -117t56 -165.5q0 -62 -35 -116t-90 -91t-122 -64.5t-131.5 -40t-117.5 -12.5q-31 0 -63 19t-59 41t-40 26 q-27 0 -61 -30q-36 -31 -72 -31q-25 0 -43 41l31 217q-16 42 -25.5 120.5t-9.5 147.5zM260 375q0 -10 7.5 -40.5t8.5 -37.5l82 53l17 -10q-58 -52 -58 -107q0 -21 9 -36q37 2 56.5 3t57.5 5.5t59.5 10t50.5 16.5t44.5 25.5t27 36.5t11.5 50q0 54 -21 96t-54.5 65t-70 34.5 t-73.5 11.5q-71 0 -112.5 -58.5t-41.5 -117.5z" />
<glyph unicode="&#x44d;" horiz-adv-x="913" d="M53 547q0 57 36 134t91 134t103 57q12 0 22.5 -7t22.5 -18t20 -16h60q197 0 330.5 -138.5t133.5 -344.5q0 -158 -98 -256t-258 -98q-83 0 -165.5 23t-152.5 66t-113.5 112.5t-43.5 154.5q0 35 16 35q36 -36 75.5 -63t105 -56t163.5 -45t222 -16q13 0 31 3.5t42.5 12 t41 30t16.5 52.5q0 8 -13 8t-41 -8t-30 -8l-107 18q-32 4 -53 4q-23 0 -47 17l-111 90q0 6 12 15.5t15 9.5l151 -31q12 0 74.5 -25t126.5 -33l2 13q-114 114 -165 155q-138 109 -259 109q-26 0 -49.5 -15t-41.5 -36.5t-36.5 -42.5t-41.5 -36t-48 -15q-39 0 -39 55z" />
<glyph unicode="&#x44e;" horiz-adv-x="1097" d="M74 764v4q25 31 56 49.5t83 28.5q36 0 57 -21v-125v-120q0 -144 17 -269l65 29q0 3 -2 32.5t-2 63.5q0 202 115.5 336t298.5 146q-14 -12 -47.5 -38.5t-49 -39.5t-43.5 -38.5t-42 -42t-33 -43t-28 -50t-16 -53.5t-7 -62q0 -63 6.5 -124t33.5 -133t72 -99q65 0 108.5 13.5 t73.5 41t48 82t28 121.5t17 176q-30 18 -72 18q-69 0 -174 -57q-10 0 -19.5 11.5t-9.5 23.5q0 99 69.5 159t156.5 60q130 0 167 -86q24 -55 40 -148.5t16 -163.5q0 -106 -53.5 -209t-147 -170t-199.5 -67q-100 0 -179 71t-109 179q-60 -105 -125.5 -180.5t-112.5 -75.5 q-88 0 -88 391q0 239 31 379z" />
<glyph unicode="&#x44f;" horiz-adv-x="919" d="M41 741q0 61 35 115t90 91.5t122 64.5t131.5 40t117.5 13q34 0 65 -18.5t56.5 -41t39.5 -26.5q21 0 64.5 30.5t68.5 30.5t43 -41l-30 -217q16 -42 25.5 -120.5t9.5 -147.5q0 -58 -3 -110t-15.5 -121.5t-33.5 -121t-60.5 -92t-92.5 -49.5q-9 0 -20 6t-11 13l4 41 q2 27 8 100t9.5 132.5t3.5 101.5v39q0 24 -2 34q-60 -202 -94 -276q-72 -157 -189 -202q-54 -21 -123 -21q-45 0 -68.5 42t-23.5 103q0 38 7.5 48.5t17.5 2t28 -23t31 -17.5q53 7 102.5 36.5t86.5 68t75.5 97.5t63 107.5t55.5 114.5h-8q-19 0 -100.5 -74.5t-86.5 -74.5 q-95 0 -186 40t-152 116t-61 167zM283 737q0 -59 68.5 -133t154.5 -74q48 0 85 31.5t52.5 70.5t15.5 75q0 29 -16 77l-82 -53l-16 10q57 51 57 107q0 3 -4 18t-4 19q-49 -2 -100 -12t-100 -27t-80 -45.5t-31 -63.5z" />
<glyph unicode="&#x2000;" horiz-adv-x="799" />
<glyph unicode="&#x2001;" horiz-adv-x="1599" />
<glyph unicode="&#x2002;" horiz-adv-x="799" />
<glyph unicode="&#x2003;" horiz-adv-x="1599" />
<glyph unicode="&#x2004;" horiz-adv-x="533" />
<glyph unicode="&#x2005;" horiz-adv-x="399" />
<glyph unicode="&#x2006;" horiz-adv-x="266" />
<glyph unicode="&#x2007;" horiz-adv-x="266" />
<glyph unicode="&#x2008;" horiz-adv-x="199" />
<glyph unicode="&#x2009;" horiz-adv-x="319" />
<glyph unicode="&#x200a;" horiz-adv-x="88" />
<glyph unicode="&#x2010;" d="M139 514h187q0 -18 2 -20l-2 -13q-6 -39 -56 -69l-8 -9q-12 -12 -119 -12h-71q-33 0 -33 6q0 1 2.5 2t8 7t11.5 16v4q9 31 28.5 56t49.5 32z" />
<glyph unicode="&#x2011;" d="M139 514h187q0 -18 2 -20l-2 -13q-6 -39 -56 -69l-8 -9q-12 -12 -119 -12h-71q-33 0 -33 6q0 1 2.5 2t8 7t11.5 16v4q9 31 28.5 56t49.5 32z" />
<glyph unicode="&#x2012;" d="M139 514h187q0 -18 2 -20l-2 -13q-6 -39 -56 -69l-8 -9q-12 -12 -119 -12h-71q-33 0 -33 6q0 1 2.5 2t8 7t11.5 16v4q9 31 28.5 56t49.5 32z" />
<glyph unicode="&#x2013;" horiz-adv-x="1103" d="M393 514h663q0 -18 7 -20l-7 -13q-21 -39 -199 -69l-28 -9q-42 -12 -422 -12h-251q-117 0 -117 6q0 1 9 2t28.5 7t40.5 16v4q32 31 101 56t175 32z" />
<glyph unicode="&#x2014;" horiz-adv-x="2127" d="M748 514h1325q0 -18 14 -20l-14 -13q-43 -39 -397 -69l-57 -9q-85 -12 -843 -12h-503q-234 0 -234 6q0 1 17.5 2t56.5 7t82 16v4q64 31 202 56t351 32z" />
<glyph unicode="&#x202f;" horiz-adv-x="319" />
<glyph unicode="&#x205f;" horiz-adv-x="399" />
<glyph unicode="&#xe000;" horiz-adv-x="880" d="M0 881h881v-881h-881v881z" />
</font>
</defs>
</svg>
