<?xml version="1.0" standalone="no"?>
<!DOCTYPE svg PUBLIC "-//W3C//DTD SVG 1.1//EN" "http://www.w3.org/Graphics/SVG/1.1/DTD/svg11.dtd" >
<svg xmlns="http://www.w3.org/2000/svg">
<metadata></metadata>
<defs>
<font id="helioslightcitalic" horiz-adv-x="1138" >
<font-face units-per-em="2048" ascent="1614" descent="-434" />
<missing-glyph horiz-adv-x="569" />
<glyph horiz-adv-x="2048" />
<glyph horiz-adv-x="2048" />
<glyph unicode="&#xd;" horiz-adv-x="2048" />
<glyph unicode=" "  horiz-adv-x="569" />
<glyph unicode="&#x09;" horiz-adv-x="569" />
<glyph unicode="&#xa0;" horiz-adv-x="569" />
<glyph unicode="!" horiz-adv-x="681" d="M252 371l108 645l99 459h149l-98 -459l-166 -645h-92zM293 0h-150l37 180h150z" />
<glyph unicode="&#x22;" horiz-adv-x="569" d="M68 1012l98 463h106l-98 -463h-106zM295 1012l98 463h107l-99 -463h-106z" />
<glyph unicode="#" d="M1006 588l-27 -121h-227l-164 -467h-121l162 467h-281l-168 -467h-121l168 467h-225l27 121h243l105 286h-230l25 121h246l157 435h123l-157 -435h278l156 435h121l-156 -435h205l-25 -121h-221l-102 -286h209zM778 874h-278l-107 -286h283z" />
<glyph unicode="$" d="M592 807l110 526q-135 0 -236 -94t-101 -227q0 -37 12.5 -66.5t31 -49.5t50.5 -37.5t61 -28t72 -23.5zM655 659l-125 -587q97 0 185 48.5t143 135t55 186.5q0 52 -19 89t-58 61.5t-79 38.5t-102 28zM508 -39l-33 -156h-96l33 156q-153 0 -259 94.5t-106 229.5 q0 37 21 131h127q-9 -40 -9 -80q0 -112 66 -185t182 -79l129 608q-77 20 -131 41.5t-103.5 56t-74.5 85t-25 116.5q0 131 72 239.5t186 167t240 58.5l27 125h96l-27 -125q152 0 241 -74.5t89 -208.5q0 -42 -8 -78h-133q6 30 6 58q0 88 -60.5 140t-158.5 52l-115 -545 q73 -18 121.5 -34t98 -41.5t78.5 -57t47 -78t18 -106.5q0 -93 -30 -175t-82 -142.5t-120.5 -104.5t-147 -66t-159.5 -22z" />
<glyph unicode="%" horiz-adv-x="1820" d="M1341 678q121 0 199 -77t78 -193q0 -103 -59.5 -198t-157.5 -152.5t-203 -57.5q-120 0 -197 76.5t-77 191.5q0 104 60.5 199.5t157.5 153t199 57.5zM1317 561q-104 0 -188.5 -82.5t-84.5 -185.5q0 -75 50.5 -125.5t128.5 -50.5q104 0 189 81t85 183q0 76 -51 128t-129 52 zM629 1430q121 0 198.5 -77.5t77.5 -193.5q0 -77 -35.5 -152t-93.5 -131t-135 -90t-156 -34q-120 0 -197 76.5t-77 191.5q0 104 61 199.5t158 153t199 57.5zM604 1313q-103 0 -187.5 -82.5t-84.5 -186.5q0 -76 50 -126t128 -50q104 0 189 81.5t85 183.5q0 76 -51 128 t-129 52zM1526 1444l-1127 -1473h-106l1126 1473h107z" />
<glyph unicode="&#x26;" horiz-adv-x="1366" d="M879 268l-314 500q-162 -70 -268.5 -191.5t-106.5 -261.5q0 -113 74.5 -178t198.5 -65q210 0 416 196zM782 1364q-86 0 -160.5 -58t-74.5 -153q0 -93 96 -242q142 73 217.5 145t75.5 158q0 61 -36 105.5t-118 44.5zM1096 668h121q-64 -243 -185 -385l180 -283h-165 l-107 174q-118 -114 -239 -163.5t-271 -49.5q-169 0 -274 92.5t-105 247.5q0 98 36 186t101 156t145 121t177 92q-94 146 -94 260q0 109 59.5 192.5t149.5 125t192 41.5q117 0 185.5 -64.5t68.5 -163.5q0 -52 -11.5 -96t-38 -82.5t-55 -68.5t-77 -63.5t-88.5 -57.5t-105 -60 l277 -438q48 59 75 128t48 159z" />
<glyph unicode="'" horiz-adv-x="454" d="M125 1012l98 463h107l-99 -463h-106z" />
<glyph unicode="(" horiz-adv-x="681" d="M666 1513h104q-551 -621 -551 -1259q0 -325 146 -645h-105q-92 176 -137 329t-45 320q0 184 41.5 355.5t122 327t183.5 293.5t241 279z" />
<glyph unicode=")" horiz-adv-x="681" d="M317 1513h105q91 -175 135.5 -327.5t44.5 -319.5q0 -184 -41.5 -356t-121.5 -327.5t-183 -294t-240 -279.5h-104q549 615 549 1257q0 332 -144 647z" />
<glyph unicode="*" horiz-adv-x="796" d="M158 1323l209 -88l49 240h86l-49 -240l249 86l13 -90l-250 -76l108 -217l-90 -49l-104 221l-207 -217l-59 55l200 207l-211 82z" />
<glyph unicode="+" horiz-adv-x="1351" d="M627 573l96 451h123l-96 -451h450l-24 -122h-451l-96 -451h-123l96 451h-450l24 122h451z" />
<glyph unicode="," horiz-adv-x="569" d="M258 180h150l-52 -241q-20 -86 -72 -142.5t-124 -77.5l16 76q78 42 98 135l15 70h-70z" />
<glyph unicode="-" horiz-adv-x="681" d="M131 573h516l-26 -122h-519z" />
<glyph unicode="." horiz-adv-x="569" d="M340 0h-150l37 180h150z" />
<glyph unicode="/" horiz-adv-x="569" d="M770 1513l-842 -1697h-114l841 1697h115z" />
<glyph unicode="0" d="M969 711q39 176 39 301q0 321 -267 321q-353 0 -489 -637q-39 -176 -39 -299q0 -154 63 -234.5t203 -80.5q90 0 164.5 38.5t125 98t91.5 146.5t64.5 167.5t44.5 178.5zM770 1444q371 0 371 -414q0 -130 -43 -334q-26 -123 -59.5 -223.5t-87 -196.5t-120.5 -161 t-163 -104.5t-211 -39.5q-83 0 -147.5 20t-107 55t-70 87t-39 113t-11.5 135q0 138 41 330q21 99 46.5 182t63 169.5t87.5 152.5t114 119.5t149.5 81.5t186.5 28z" />
<glyph unicode="1" d="M842 1444h104l-307 -1444h-131l229 1073h-372l16 86q55 3 91 7t80.5 12.5t74 20.5t63 33t58.5 49.5t49.5 69.5t44.5 93z" />
<glyph unicode="2" d="M379 971h-139q44 214 199.5 343.5t369.5 129.5q181 0 276 -84.5t95 -222.5q0 -36 -11 -93q-20 -91 -69 -169t-109.5 -131t-142.5 -104t-153 -84.5t-155 -77t-137 -77.5q-100 -65 -162.5 -131t-86.5 -159h804l-24 -111h-944q24 112 65.5 194.5t122.5 157.5 q85 79 187 147.5t183.5 109.5t164.5 87.5t142.5 88.5t105 106t63.5 145q8 33 8 70q0 107 -71.5 167t-190.5 60q-138 0 -248.5 -106t-142.5 -256z" />
<glyph unicode="3" d="M360 1024h-131q11 55 34.5 108.5t68 111.5t104 101t150.5 71t200 28q156 0 251.5 -69t95.5 -201q0 -137 -77 -247t-208 -161q192 -64 192 -258q0 -105 -43 -202.5t-117 -171.5t-181 -118.5t-228 -44.5q-225 0 -326.5 76t-101.5 260q0 29 8 111h131q-10 -55 -10 -88 q0 -120 79 -184t218 -64q114 0 215 55t161 146t60 192q0 64 -31 109t-90 68.5t-129 33.5t-161 10l22 107q99 0 184 20.5t152 60.5t105 105.5t38 149.5q0 97 -72 145.5t-188 48.5q-137 0 -241.5 -86.5t-133.5 -222.5z" />
<glyph unicode="4" d="M942 1430h119l-205 -963h201l-23 -111h-200l-76 -356h-131l75 356h-659l23 113zM889 1233l-694 -766h530z" />
<glyph unicode="5" d="M442 1430h717l-24 -111h-607l-192 -485q94 55 166 74.5t172 19.5q169 0 268.5 -93t99.5 -257q0 -108 -33.5 -205t-91 -169t-131 -125.5t-155 -80.5t-162.5 -27q-96 0 -172 17.5t-134.5 55t-90 101.5t-31.5 152q0 37 6 78h131q0 -293 295 -293q119 0 219.5 64t157.5 170 t57 227q0 125 -77 199.5t-214 74.5q-201 0 -344 -149l-106 14z" />
<glyph unicode="6" d="M1157 1090h-135q2 114 -54.5 178.5t-168.5 64.5q-261 0 -410 -285q-61 -117 -131 -354q-1 -3 -4 -14q52 55 84.5 84.5t87.5 67.5t118 55.5t138 17.5q181 0 277 -87t96 -245q0 -133 -44 -245.5t-121 -190.5t-183 -122t-228 -44q-184 0 -288.5 101t-104.5 321q0 123 33 269 q24 111 59.5 213.5t94.5 209t132 183.5t178.5 126.5t227.5 49.5q161 0 254.5 -79.5t93.5 -227.5q0 -31 -2 -47zM653 795q-86 0 -163.5 -38t-131 -100t-85 -144t-31.5 -169q0 -53 14 -98.5t44 -83t82 -59t122 -21.5q105 0 188.5 45t132 116.5t74 152.5t25.5 161 q0 238 -271 238z" />
<glyph unicode="7" d="M291 1298l26 132h920l-27 -123q-182 -166 -338 -358.5t-258.5 -367t-168.5 -320.5t-97 -261h-143q56 201 193 444t307 462t348 392h-762z" />
<glyph unicode="8" d="M616 707q-77 0 -150.5 -23.5t-135.5 -68.5t-99.5 -119t-37.5 -166q0 -110 80 -179t219 -69q105 0 200 50.5t155 142.5t60 202q0 112 -80 171t-211 59zM743 1333q-89 0 -168 -36t-132.5 -110t-53.5 -171q0 -98 72.5 -148.5t185.5 -50.5q62 0 121 20t110.5 59.5t83 108.5 t31.5 156q0 172 -250 172zM401 776q-80 59 -112.5 103t-32.5 114q0 121 69 225.5t184.5 165t246.5 60.5q102 0 183 -27.5t133 -91t52 -154.5q0 -136 -72 -239.5t-202 -163.5q91 -35 140.5 -107t49.5 -167q0 -104 -44.5 -199t-122.5 -167t-193.5 -114.5t-249.5 -42.5 q-95 0 -177.5 35.5t-138 113t-55.5 183.5q0 98 40 191.5t118.5 169t183.5 112.5z" />
<glyph unicode="9" d="M72 317h133q0 -119 55 -177t174 -58q71 0 134 22.5t110.5 58.5t90 90.5t71.5 107.5t56 122t43.5 122t33.5 118l-4 4q-185 -225 -437 -225q-171 0 -266.5 91.5t-95.5 250.5q0 167 71.5 303t205.5 216.5t305 80.5q387 0 387 -428q0 -126 -37 -301q-76 -357 -262 -550.5 t-422 -193.5q-161 0 -255.5 74t-94.5 217q0 19 4 55zM727 1333q-182 0 -303 -138t-121 -337q0 -118 69.5 -182t200.5 -64q117 0 213 67t147.5 173.5t51.5 224.5q0 119 -67 187.5t-191 68.5z" />
<glyph unicode=":" horiz-adv-x="569" d="M252 0h-150l37 180h150zM428 827h-149l36 181h150z" />
<glyph unicode=";" horiz-adv-x="569" d="M170 180h149l-51 -241q-20 -86 -72 -142.5t-124 -77.5l16 76q78 42 98 135l15 70h-70zM457 827h-150l37 181h150z" />
<glyph unicode="&#x3c;" horiz-adv-x="1351" d="M328 522l776 -403l-27 -131l-921 481l22 109l1120 456l-26 -131z" />
<glyph unicode="=" horiz-adv-x="1351" d="M1243 774l-26 -123h-1024l26 123h1024zM1159 377l-26 -123h-1024l26 123h1024z" />
<glyph unicode="&#x3e;" horiz-adv-x="1351" d="M1202 578l-22 -109l-1127 -481l27 131l948 403l-780 381l26 131z" />
<glyph unicode="?" horiz-adv-x="1024" d="M543 373h-119q30 138 67.5 221t126.5 160q33 28 98.5 79t103.5 84t81.5 79.5t64.5 94.5t21 101q0 94 -70.5 152.5t-199.5 58.5q-147 0 -250.5 -96.5t-136.5 -249.5h-125q44 205 192.5 330.5t347.5 125.5q179 0 277 -78.5t98 -215.5q0 -84 -30.5 -155.5t-85.5 -129.5 t-112 -104t-131.5 -105.5t-121.5 -108.5q-55 -58 -96 -243zM483 0h-149l37 180h149z" />
<glyph unicode="@" horiz-adv-x="1638" d="M1317 342h121q-133 -176 -337.5 -278.5t-408.5 -102.5q-140 0 -257.5 46.5t-198 128t-125.5 194.5t-45 243q0 122 37.5 242.5t103.5 223t157 191t195.5 150.5t222.5 97.5t234 35.5q258 0 419.5 -142.5t161.5 -369.5q0 -134 -60 -270t-151 -235t-200 -161.5t-205 -62.5 q-60 0 -104.5 25.5t-51.5 77.5q-55 -47 -127 -75t-137 -28q-107 0 -167 64t-60 166q0 85 36 183t100.5 188t144.5 164t177 118.5t189 44.5q74 0 129 -35.5t72 -99.5l51 94h137l-358 -661q-31 -56 -31 -84q0 -39 49 -39q77 0 159.5 64t144 157.5t101.5 201.5t40 193 q0 192 -135 306t-343 114q-128 0 -252 -46.5t-223.5 -127.5t-176 -185t-118 -225.5t-41.5 -242.5q0 -149 65 -267t186 -186t278 -68q160 0 321.5 74t280.5 205zM618 401q66 0 149 64.5t149 154.5t111.5 187t45.5 160q0 43 -29.5 77.5t-85.5 34.5q-82 0 -169 -59t-150.5 -143 t-104 -177.5t-40.5 -162.5q0 -60 32 -98t92 -38z" />
<glyph unicode="A" horiz-adv-x="1333" d="M793 1475h157l250 -1475h-143l-70 463h-672l-274 -463h-143zM840 1356l-453 -774h578z" />
<glyph unicode="B" horiz-adv-x="1357" d="M344 705l-125 -586h354q99 0 167 6.5t130 24.5t101.5 51t69.5 86t46 129q11 57 11 82q0 63 -26.5 104.5t-80.5 63.5t-118.5 30.5t-157.5 8.5h-371zM481 1356l-112 -533h352q118 0 205.5 27.5t133.5 65.5t73.5 90.5t34 90.5t6.5 77q0 98 -87 140t-284 42h-322zM53 0 l316 1475h532q213 0 313.5 -72.5t100.5 -204.5q0 -88 -29 -164.5t-75.5 -127.5t-101 -82.5t-108.5 -37.5v-4q117 -18 176.5 -88t59.5 -178q0 -59 -12.5 -120t-51.5 -134.5t-100 -129.5t-169.5 -94t-248.5 -38h-602z" />
<glyph unicode="C" horiz-adv-x="1488" d="M1479 1047h-144q0 180 -98.5 264t-292.5 84q-124 0 -234 -51.5t-189.5 -138.5t-137.5 -200.5t-86.5 -239.5t-28.5 -253q0 -94 21.5 -169.5t68 -136t127.5 -93.5t193 -33q184 0 327.5 111t225.5 294h145q-50 -113 -116.5 -203.5t-157 -164.5t-212.5 -115t-265 -41 q-131 0 -228.5 39t-155.5 110.5t-86 164.5t-28 208q0 77 11 162.5t39 187.5t71 196t113.5 183.5t159 155t214 105.5t273.5 40q471 0 471 -466z" />
<glyph unicode="D" horiz-adv-x="1478" d="M53 0l316 1475h544q263 0 396 -117.5t133 -380.5q0 -219 -81.5 -435.5t-242.5 -361.5q-116 -105 -253.5 -142.5t-307.5 -37.5h-504zM481 1356l-262 -1237h334q109 0 191.5 13t168.5 54q102 48 181 141.5t122.5 205t65 220.5t21.5 208q0 211 -115.5 303t-345.5 92h-361z " />
<glyph unicode="E" horiz-adv-x="1251" d="M369 1475h981l-27 -119h-842l-108 -514h760l-25 -119h-760l-129 -604h862l-26 -119h-1002z" />
<glyph unicode="F" horiz-adv-x="1153" d="M369 1475h950l-27 -119h-811l-108 -514h737l-25 -119h-737l-155 -723h-140z" />
<glyph unicode="G" horiz-adv-x="1589" d="M1520 1047h-144q0 161 -110 254.5t-279 93.5q-118 0 -220 -37t-174 -97.5t-130 -140.5t-94 -162t-60 -165.5t-33.5 -148.5t-9.5 -114q0 -199 110.5 -324.5t313.5 -125.5q77 0 153.5 20t152.5 64t139 108t111.5 159.5t70.5 211.5h-498l27 119h631l-164 -762h-119l55 252 q-113 -141 -260 -216t-354 -75q-235 0 -371.5 135t-136.5 393q0 116 23.5 234.5t69.5 234t120 215.5t168.5 176t222 120t273.5 44q240 0 378 -117.5t138 -348.5z" />
<glyph unicode="H" horiz-adv-x="1482" d="M508 1475l-135 -633h872l135 633h140l-316 -1475h-139l156 723h-873l-155 -723h-140l316 1475h139z" />
<glyph unicode="I" horiz-adv-x="471" d="M508 1475l-315 -1475h-140l316 1475h139z" />
<glyph unicode="J" horiz-adv-x="1024" d="M922 1475h139l-230 -1072q-92 -442 -507 -442q-169 0 -239.5 78.5t-70.5 216.5q0 86 27 211h139q-26 -117 -26 -186q0 -91 47.5 -142t165.5 -51q138 0 215 79.5t112 240.5z" />
<glyph unicode="K" horiz-adv-x="1357" d="M508 1475l-160 -744l891 744h182l-706 -588l493 -887h-170l-442 801l-281 -232l-122 -569h-140l316 1475h139z" />
<glyph unicode="L" d="M508 1475l-289 -1356h791l-27 -119h-930l316 1475h139z" />
<glyph unicode="M" horiz-adv-x="1718" d="M369 1475h213l206 -1301h5l751 1301h211l-315 -1475h-140l281 1315h-4l-764 -1315h-131l-205 1315h-4l-280 -1315h-140z" />
<glyph unicode="N" horiz-adv-x="1484" d="M369 1475h157l578 -1289h4l274 1289h140l-316 -1475h-162l-573 1286h-4l-274 -1286h-140z" />
<glyph unicode="O" horiz-adv-x="1591" d="M997 1513q139 0 246 -41t173.5 -116t100 -175t33.5 -223q0 -152 -40 -299t-118 -272.5t-183 -221t-244 -150t-293 -54.5q-137 0 -242 41.5t-171 116.5t-99 175t-33 222q0 151 41 298t119 272.5t183 221.5t241.5 150.5t285.5 54.5zM975 1395q-137 0 -254.5 -54t-199 -142 t-140 -201t-86 -232t-27.5 -234q0 -99 25 -179.5t75.5 -142.5t135 -96t196.5 -34q110 0 209.5 35.5t176 97t138.5 144.5t102 179t61.5 199t21.5 205q0 216 -113 335.5t-321 119.5z" />
<glyph unicode="P" horiz-adv-x="1294" d="M332 651l-139 -651h-140l316 1475h528q416 0 416 -297q0 -118 -37 -211t-97.5 -151t-144.5 -96.5t-170.5 -53.5t-183.5 -15h-348zM481 1356l-125 -586h308q118 0 205.5 18t158 60t107 119.5t36.5 189.5q0 50 -17 85.5t-47.5 57.5t-81.5 34.5t-110 17t-143 4.5h-291z" />
<glyph unicode="Q" horiz-adv-x="1591" d="M1180 139l163 -151l-98 -94l-182 167q-179 -100 -389 -100q-137 0 -242.5 41.5t-171.5 116.5t-99.5 175.5t-33.5 221.5q0 145 39 289.5t115.5 271.5t180 224.5t242.5 154.5t293 57q261 0 408 -141.5t147 -402.5q0 -234 -100.5 -464.5t-271.5 -365.5zM928 371l166 -152 q145 114 231 319t86 408q0 219 -117 334t-317 115q-129 0 -244 -51t-198.5 -137t-144.5 -197t-91.5 -233.5t-30.5 -244.5q0 -99 25 -180t75.5 -142.5t135 -95.5t196.5 -34q149 0 273 65l-139 129z" />
<glyph unicode="R" horiz-adv-x="1392" d="M481 1356l-121 -568h435q85 0 162 22t139.5 65t99.5 114.5t37 163.5q0 203 -309 203h-443zM336 670l-143 -670h-140l316 1475h577q214 0 322 -68t108 -213q0 -162 -80 -282.5t-247 -184.5q127 -45 127 -217q0 -59 -27 -189.5t-27 -211.5q0 -83 25 -95l-4 -14h-154 q-8 21 -8 74q0 84 24.5 214.5t24.5 186.5q0 62 -17 102t-53 59.5t-78.5 26.5t-107.5 7h-438z" />
<glyph unicode="S" horiz-adv-x="1284" d="M68 440h135q-4 -36 -4 -67q0 -152 94 -222.5t258 -70.5q106 0 192 30.5t140 82t83 116.5t29 137q0 69 -41.5 117t-108.5 73.5t-147.5 45.5t-161.5 43.5t-148 56t-108.5 93.5t-41.5 147q0 93 40 180.5t113 157t187.5 111.5t252.5 42q204 0 309 -92.5t105 -244.5 q0 -50 -12 -103h-133q8 39 8 78q0 121 -85 182.5t-218 61.5q-106 0 -191.5 -32t-135.5 -83t-76.5 -109t-26.5 -116q0 -68 42.5 -113.5t110 -69.5t149.5 -42.5t164 -40.5t149.5 -54t110 -93.5t42.5 -149.5q0 -231 -176 -381t-467 -150q-206 0 -326.5 91.5t-120.5 266.5 q0 40 15 121z" />
<glyph unicode="T" d="M811 1356l-289 -1356h-139l289 1356h-467l26 119h1074l-27 -119h-467z" />
<glyph unicode="U" horiz-adv-x="1474" d="M369 1475h139l-189 -879q-24 -120 -24 -205q0 -162 84.5 -236.5t263.5 -74.5q233 0 358.5 124.5t182.5 391.5l188 879h139l-196 -920q-62 -290 -238 -442t-459 -152q-233 0 -349.5 105t-116.5 303q0 89 20 186z" />
<glyph unicode="V" horiz-adv-x="1251" d="M236 1475h145l164 -1311l723 1311h145l-827 -1475h-154z" />
<glyph unicode="W" horiz-adv-x="1820" d="M227 1475h140l45 -1278h4l614 1278h156l63 -1278h4l594 1278h144l-703 -1475h-153l-64 1303h-4l-621 -1303h-153z" />
<glyph unicode="X" horiz-adv-x="1251" d="M260 1475h162l270 -621l539 621h162l-637 -717l344 -758h-160l-291 651l-567 -651h-158l670 758z" />
<glyph unicode="Y" horiz-adv-x="1251" d="M225 1475h160l283 -711l596 711h161l-712 -832l-138 -643h-139l135 633z" />
<glyph unicode="Z" horiz-adv-x="1251" d="M346 1475h1036l-26 -117l-1206 -1239h950l-27 -119h-1122l26 117l1207 1239h-865z" />
<glyph unicode="[" horiz-adv-x="681" d="M389 1513h391l-22 -102h-260l-361 -1700h260l-22 -102h-391z" />
<glyph unicode="\" horiz-adv-x="569" d="M381 0l-313 1513h122l314 -1513h-123z" />
<glyph unicode="]" horiz-adv-x="681" d="M307 1513h391l-405 -1904h-391l22 102h260l361 1700h-260z" />
<glyph unicode="^" horiz-adv-x="1351" d="M170 502h-119l668 928h106l277 -928h-117l-242 803z" />
<glyph unicode="_" horiz-adv-x="1024" d="M1012 -244h-1024l24 119h1024z" />
<glyph unicode="`" horiz-adv-x="681" d="M344 1176l-221 284h160l166 -284h-105z" />
<glyph unicode="a" horiz-adv-x="1142" d="M852 557q-95 -47 -330 -59q-167 -9 -259.5 -82.5t-92.5 -184.5q0 -73 54.5 -111t137.5 -38q102 0 194 31t165.5 103.5t95.5 174.5zM317 739h-124q35 121 113 201.5t177 115t219 34.5q151 0 238.5 -57t87.5 -183q0 -35 -10 -90l-123 -578q-8 -36 -8 -55q0 -45 41 -45 q19 0 78 18l-21 -96q-66 -20 -100 -20q-68 0 -96.5 23.5t-28.5 88.5q0 23 4 51h-4q-87 -84 -198.5 -130t-227.5 -46q-130 0 -213.5 60t-83.5 174q0 147 108 254.5t338 136.5l242 31q99 13 137.5 60t38.5 132q0 75 -54 117.5t-169 42.5q-137 0 -227.5 -54.5t-133.5 -185.5z " />
<glyph unicode="b" horiz-adv-x="1220" d="M725 979q-86 0 -170.5 -43.5t-151 -119t-108 -187t-41.5 -236.5q0 -137 71.5 -224t206.5 -87q97 0 186 50t151.5 132t99.5 189t37 219q0 141 -69 224t-212 83zM197 186l-39 -186h-123l313 1475h123l-125 -584q78 94 192 146.5t230 52.5q187 0 280 -109t93 -287 q0 -143 -42.5 -273t-120 -230.5t-195.5 -160t-259 -59.5q-107 0 -199.5 57.5t-123.5 157.5h-4z" />
<glyph unicode="c" horiz-adv-x="1140" d="M1067 727h-125q0 114 -69.5 183t-190.5 69q-92 0 -171 -40t-132.5 -103t-92 -142t-56 -157t-17.5 -148q0 -137 67 -222t209 -85q135 0 236.5 75.5t151.5 209.5h131q-72 -184 -210 -290t-331 -106q-196 0 -292.5 103t-96.5 280q0 106 28 212t83.5 200t130 166.5t174.5 115 t211 42.5q184 0 273 -87.5t89 -275.5z" />
<glyph unicode="d" horiz-adv-x="1220" d="M684 979q-86 0 -170.5 -43.5t-151 -119t-108 -187t-41.5 -236.5q0 -137 72 -224t207 -87q129 0 239 84.5t172 220t62 285.5q0 141 -69 224t-212 83zM1026 891l125 584h123l-313 -1475h-123l39 186h-5q-72 -100 -189 -157.5t-224 -57.5q-196 0 -288.5 100t-92.5 275 q0 107 26 213.5t78.5 202t124.5 169t171.5 116.5t211.5 43q116 0 208 -52.5t128 -146.5z" />
<glyph unicode="e" horiz-adv-x="1150" d="M246 604h692q12 56 12 105q0 122 -68 196t-200 74q-154 0 -268.5 -106.5t-167.5 -268.5zM1047 502h-824q-14 -75 -14 -123q0 -134 70.5 -215.5t209.5 -81.5q122 0 222.5 64.5t152.5 179.5h137q-184 -355 -534 -355q-196 0 -292.5 102t-96.5 277q0 140 47.5 274t129.5 237 t200 166t250 63q176 0 271 -97.5t95 -285.5q0 -91 -24 -205z" />
<glyph unicode="f" horiz-adv-x="569" d="M276 958h-157l20 103h158l37 168q56 270 282 270q64 0 101 -12l-23 -105q-46 11 -71 11q-45 0 -77 -16.5t-51 -50t-28 -61t-18 -73.5l-29 -131h205l-21 -103h-205l-204 -958h-123z" />
<glyph unicode="g" horiz-adv-x="1220" d="M684 979q-106 0 -196.5 -52.5t-149.5 -137t-92 -188t-33 -208.5q0 -137 72 -224t207 -87q129 0 239 84.5t172 220t62 285.5q0 141 -69 224t-212 83zM1063 1061h123l-203 -959q-20 -91 -48.5 -165.5t-77.5 -145.5t-114 -119t-160 -77t-212 -29q-103 0 -180.5 25 t-120.5 66.5t-63.5 88.5t-20.5 98v27h133q0 -58 21.5 -97.5t62 -60t86 -29t104.5 -8.5q70 0 129.5 15t104 40t81 63.5t61.5 79t46 93t34 99.5t25 104q-78 -94 -191.5 -146.5t-229.5 -52.5q-187 0 -280 109t-93 287q0 114 26.5 220.5t79.5 197.5t126 159.5t172 107t212 38.5 q107 0 200 -58t124 -158h4z" />
<glyph unicode="h" horiz-adv-x="1136" d="M471 1475l-119 -562q102 88 190.5 132.5t190.5 44.5q148 0 227.5 -67.5t79.5 -203.5q0 -62 -14 -125l-149 -694h-123l147 692q12 59 12 103q0 93 -54 138.5t-171 45.5q-83 0 -153.5 -33t-119.5 -90t-82 -126t-50 -148l-125 -582h-123l313 1475h123z" />
<glyph unicode="i" horiz-adv-x="417" d="M383 1061l-225 -1061h-123l225 1061h123zM432 1292h-123l39 181h123z" />
<glyph unicode="j" horiz-adv-x="450" d="M293 1061h123l-256 -1202q-12 -54 -21 -87t-23.5 -68.5t-32.5 -55t-45 -36.5t-63.5 -23.5t-85.5 -6.5q-44 0 -77 8l22 109q28 -4 49 -4q68 0 102 35.5t50 111.5zM465 1292h-123l39 181h123z" />
<glyph unicode="k" horiz-adv-x="1032" d="M471 1475l-195 -918l627 504h168l-479 -383l301 -678h-137l-273 592l-239 -191l-86 -401h-123l313 1475h123z" />
<glyph unicode="l" horiz-adv-x="417" d="M469 1475l-313 -1475h-123l313 1475h123z" />
<glyph unicode="m" horiz-adv-x="1736" d="M383 1061l-33 -160h4q66 89 165.5 139t203.5 50q71 0 121 -15.5t79 -45.5t43.5 -63.5t22.5 -80.5q74 101 174.5 153t216.5 52q144 0 203 -64.5t59 -177.5q0 -66 -22 -178l-143 -670h-123l157 733q11 48 11 88q0 77 -44 117.5t-143 40.5q-148 0 -252 -110.5t-143 -297.5 l-123 -571h-123l158 733q10 55 10 88q0 77 -43.5 117.5t-142.5 40.5q-79 0 -146.5 -33t-115.5 -90t-81.5 -129t-51.5 -156l-123 -571h-123l225 1061h123z" />
<glyph unicode="n" horiz-adv-x="1136" d="M381 1061l-31 -148q102 88 190.5 132.5t190.5 44.5q148 0 227.5 -67.5t79.5 -203.5q0 -62 -14 -125l-150 -694h-122l147 692q12 59 12 103q0 93 -54 138.5t-171 45.5q-83 0 -153.5 -33t-119.5 -90t-82 -126t-50 -148l-125 -582h-123l225 1061h123z" />
<glyph unicode="o" horiz-adv-x="1179" d="M709 1090q195 0 293 -107t98 -287q0 -75 -17 -155t-49.5 -162t-85.5 -155t-120.5 -129.5t-159.5 -90t-197 -33.5q-176 0 -283.5 102.5t-107.5 293.5q0 107 27.5 211.5t82 196.5t129 162.5t175.5 111.5t215 41zM686 979q-89 0 -166.5 -35.5t-133 -95t-95 -136.5 t-59 -160.5t-19.5 -166.5q0 -142 71.5 -222.5t209.5 -80.5q91 0 169.5 37t133.5 98t94.5 139.5t58.5 163t19 166.5q0 136 -68.5 214.5t-214.5 78.5z" />
<glyph unicode="p" horiz-adv-x="1220" d="M725 979q-86 0 -170.5 -43.5t-151 -119t-108 -187t-41.5 -236.5q0 -137 71.5 -224t206.5 -87q97 0 186 50t151.5 132t99.5 189t37 219q0 141 -69 224t-212 83zM195 170l-125 -588h-123l313 1479h123l-39 -187h4q72 100 189.5 158t224.5 58q196 0 288.5 -100t92.5 -275 q0 -108 -26 -214t-78.5 -201.5t-124.5 -169t-171.5 -116.5t-212.5 -43q-116 0 -207.5 52.5t-127.5 146.5z" />
<glyph unicode="q" horiz-adv-x="1220" d="M684 979q-86 0 -170.5 -43.5t-151 -119t-108 -187t-41.5 -236.5q0 -137 72 -224t207 -87q129 0 239 84.5t172 220t62 285.5q0 141 -69 224t-212 83zM1063 1061h123l-314 -1479h-122l124 588q-78 -94 -191.5 -146.5t-229.5 -52.5q-187 0 -280 110t-93 288q0 52 8.5 111.5 t29.5 130.5t52 137.5t81 129t111.5 109.5t147.5 75t186 28q107 0 200 -58t124 -158h4z" />
<glyph unicode="r" horiz-adv-x="675" d="M381 1061l-43 -199h4q77 125 168 176.5t227 51.5l-28 -134q-352 0 -445 -436l-108 -520h-123l225 1061h123z" />
<glyph unicode="s" horiz-adv-x="1007" d="M930 756h-127v43q0 90 -63.5 135t-174.5 45q-120 0 -201 -59.5t-81 -157.5q0 -28 14.5 -51.5t35 -39.5t57.5 -30.5t68 -23.5t79 -21q42 -10 68 -17.5t64.5 -20.5t62.5 -25.5t51.5 -32t43.5 -41t26.5 -51t10.5 -64.5q0 -117 -72 -203.5t-185 -128t-249 -41.5 q-162 0 -246.5 81t-84.5 214q0 42 4 66h125q0 -135 62 -192.5t202 -57.5q132 0 220.5 68t88.5 163q0 68 -65.5 107.5t-210.5 64.5q-161 28 -234.5 86.5t-73.5 147.5q0 160 126 265.5t319 105.5q340 0 340 -287v-47z" />
<glyph unicode="t" horiz-adv-x="569" d="M414 96l-21 -100q-6 -1 -35.5 -8.5t-57.5 -12t-54 -4.5q-76 0 -115 30.5t-39 100.5q0 28 10 80l166 776h-149l20 103h150l63 295h123l-63 -295h198l-20 -103h-199l-155 -727q-13 -57 -13 -86q0 -33 19.5 -48t68.5 -15q42 0 103 14z" />
<glyph unicode="u" horiz-adv-x="1136" d="M244 1061h123l-146 -686q-16 -70 -16 -107q0 -186 225 -186q149 0 259.5 112.5t148.5 290.5l123 576h122l-225 -1061h-123l33 147h-2q-180 -176 -379 -176q-307 0 -307 265q0 57 16 129z" />
<glyph unicode="v" horiz-adv-x="1024" d="M147 1061h134l151 -909l537 909h133l-637 -1061h-137z" />
<glyph unicode="w" horiz-adv-x="1478" d="M143 1061h123l82 -905l438 905h138l43 -897l469 897h125l-570 -1061h-131l-43 891h-4l-424 -891h-147z" />
<glyph unicode="x" horiz-adv-x="1024" d="M182 1061h152l203 -422l391 422h155l-491 -512l280 -549h-147l-223 459l-428 -459h-150l525 549z" />
<glyph unicode="y" horiz-adv-x="1003" d="M137 1061h137l146 -911l534 911h133l-618 -1047q-47 -81 -75 -126t-67 -103t-68 -88.5t-65.5 -60.5t-73.5 -42t-79 -12q-55 0 -113 15l25 114q62 -12 98 -12q62 0 117 59t154 234z" />
<glyph unicode="z" horiz-adv-x="1024" d="M227 1061h815l-22 -109l-885 -850h731l-22 -102h-889l22 109l885 849h-657z" />
<glyph unicode="{" horiz-adv-x="681" d="M786 1522l-2 -4q-101 -28 -155 -86.5t-76 -161.5l-90 -422q-26 -123 -76 -189t-151 -88v-4q65 -19 92.5 -60t27.5 -106q0 -53 -56 -309t-56 -303q0 -133 133 -170v-2q-138 0 -197 41t-59 139q0 69 56 327t56 304q0 52 -28.5 84t-100.5 55v4q102 19 150 77t70 161l88 418 q23 109 63 171t115 93t196 31z" />
<glyph unicode="|" horiz-adv-x="454" d="M6 0l322 1513h123l-322 -1513h-123z" />
<glyph unicode="}" horiz-adv-x="681" d="M305 1518l2 4q142 0 202 -41t60 -135q0 -61 -58 -329.5t-58 -301.5q0 -119 131 -144v-4q-60 -16 -98.5 -36.5t-62.5 -52.5t-36.5 -66t-24.5 -90l-77 -373q-27 -127 -68.5 -196.5t-114.5 -102.5t-196 -33v2q102 25 155.5 88.5t73.5 161.5l84 393q27 132 77.5 205 t156.5 100v4q-66 17 -94.5 55.5t-28.5 102.5q0 54 58 322.5t58 298.5q0 64 -34.5 105t-106.5 63z" />
<glyph unicode="~" horiz-adv-x="1351" d="M1143 694l65 -69q-161 -224 -334 -224q-56 0 -139.5 37t-160.5 74t-115 37q-63 0 -124.5 -48.5t-137.5 -144.5l-47 97q178 211 331 211q52 0 114.5 -23t110.5 -51t102.5 -51t92.5 -23q110 0 242 178z" />
<glyph unicode="&#xa3;" d="M432 748h340l-18 -86h-305q0 -162 -63.5 -274.5t-225.5 -250.5l2 -4q116 55 194 55q74 0 136 -21.5t115 -43t106 -21.5q45 0 91 18.5t76 39t78 59.5l50 -104q-111 -85 -188.5 -114.5t-198.5 -29.5q-40 0 -93 22.5t-118 45t-134 22.5q-14 0 -29.5 -2t-28 -4t-30.5 -7.5 t-27.5 -8t-30 -10.5t-27 -11t-29.5 -12.5t-27 -11.5l-47 119q134 84 219.5 200t85.5 248q0 55 -14 101h-203l18 86h166q-4 16 -18.5 56t-23.5 80t-9 85q0 95 36 180t103.5 151t173.5 105t236 39q175 0 278 -89t103 -245q0 -52 -12 -111h-135q8 41 8 86q0 119 -69.5 183.5 t-194.5 64.5q-54 0 -108.5 -13t-105.5 -40.5t-90.5 -65.5t-63.5 -92.5t-24 -117.5q0 -42 12 -83.5t33.5 -92.5t30.5 -80z" />
<glyph unicode="&#xa9;" horiz-adv-x="1638" d="M655 -39q-138 0 -256 47t-199 129t-127 196t-46 245q0 175 80 346.5t211 300.5t308 208.5t361 79.5q137 0 254.5 -46.5t198.5 -128t126.5 -194.5t45.5 -243q0 -183 -82.5 -357t-215.5 -301t-307.5 -204.5t-351.5 -77.5zM678 63q157 0 306 68t259.5 180t178 265.5 t67.5 316.5q0 228 -142.5 373t-381.5 145q-157 0 -306.5 -67t-261 -178.5t-179.5 -265t-68 -316.5q0 -231 143.5 -376t384.5 -145zM1075 598h111q-43 -136 -164.5 -218.5t-259.5 -82.5q-163 0 -254.5 92.5t-91.5 243.5q0 76 21.5 153.5t66 150t106 129t149 90.5t187.5 34 q142 0 222.5 -75.5t80.5 -217.5h-110q0 92 -58 147.5t-151 55.5q-85 0 -159.5 -38t-125 -100.5t-79.5 -143t-29 -165.5q0 -117 63 -191.5t182 -74.5q93 0 176.5 58t116.5 153z" />
<glyph unicode="&#xab;" d="M594 467l29 129l348 231l-29 -129l-248 -168l178 -163l-26 -127zM217 467l29 129l348 231l-29 -129l-248 -168l179 -163l-27 -127z" />
<glyph unicode="&#xad;" horiz-adv-x="681" d="M131 573h516l-26 -122h-519z" />
<glyph unicode="&#xae;" horiz-adv-x="1638" d="M655 -39q-138 0 -256 47t-199 129t-127 196t-46 245q0 174 80 345t211 300.5t308 209.5t361 80q137 0 254.5 -46.5t198.5 -128t126.5 -194.5t45.5 -243q0 -183 -82.5 -357t-215.5 -301t-307.5 -204.5t-351.5 -77.5zM678 63q157 0 306 68t259.5 180t178 265.5t67.5 316.5 q0 228 -142.5 373t-381.5 145q-163 0 -315 -70.5t-260.5 -184.5t-174 -265t-65.5 -307q0 -231 143.5 -376t384.5 -145zM440 305l185 866h379q140 0 203 -42t63 -123q0 -98 -47 -167.5t-120 -101.5t-163 -32l176 -400h-127l-162 400h-194l-86 -400h-107zM715 1096l-66 -308 h240q262 0 262 197q0 35 -15.5 58.5t-44.5 34t-58.5 14.5t-69.5 4h-248z" />
<glyph unicode="&#xbb;" d="M922 600l-27 -129l-348 -231l26 129l248 168l-178 163l29 127zM545 600l-27 -129l-348 -231l27 129l247 168l-178 163l29 127z" />
<glyph unicode="&#x401;" horiz-adv-x="1251" d="M369 1475h981l-27 -119h-842l-108 -514h760l-25 -119h-760l-129 -604h862l-26 -119h-1002zM772 1610h-123l39 180h123zM1098 1610h-123l39 180h123z" />
<glyph unicode="&#x402;" horiz-adv-x="1593" d="M811 1356l-111 -527q33 4 139 8.5t158 4.5q465 0 465 -324q0 -236 -161 -377t-431 -141h-170l27 119h98q259 0 377.5 97.5t118.5 270.5q0 59 -18.5 100.5t-62 73t-119.5 47t-187 15.5q-174 0 -260 -16l-152 -707h-139l289 1356h-467l26 119h1074l-27 -119h-467z" />
<glyph unicode="&#x403;" horiz-adv-x="1153" d="M369 1475h950l-27 -119h-811l-288 -1356h-140zM901 1614h-123l342 340h189z" />
<glyph unicode="&#x404;" horiz-adv-x="1478" d="M1479 1047h-144q0 183 -98 265.5t-293 82.5q-119 0 -227 -45.5t-187.5 -122.5t-134.5 -176.5t-78 -208.5h631l-24 -119h-631q-25 -119 -25 -217q0 -93 22.5 -168t69.5 -134t127.5 -91.5t190.5 -32.5q184 0 327.5 111t225.5 294h145q-50 -113 -116.5 -203.5t-157 -164.5 t-212.5 -115t-265 -41q-131 0 -228.5 39t-155.5 110.5t-86 164.5t-28 208q0 77 11 161.5t39 186.5t70.5 196t113 184t159 156t214.5 106t274 40q230 0 350.5 -116.5t120.5 -349.5z" />
<glyph unicode="&#x405;" horiz-adv-x="1284" d="M68 440h135q-4 -36 -4 -67q0 -152 94 -222.5t258 -70.5q106 0 192 30.5t140 82t83 116.5t29 137q0 69 -41.5 117t-108.5 73.5t-147.5 45.5t-161.5 43.5t-148 56t-108.5 93.5t-41.5 147q0 93 40 180.5t113 157t187.5 111.5t252.5 42q204 0 309 -92.5t105 -244.5 q0 -50 -12 -103h-133q8 39 8 78q0 121 -85 182.5t-218 61.5q-106 0 -191.5 -32t-135.5 -83t-76.5 -109t-26.5 -116q0 -68 42.5 -113.5t110 -69.5t149.5 -42.5t164 -40.5t149.5 -54t110 -93.5t42.5 -149.5q0 -231 -176 -381t-467 -150q-206 0 -326.5 91.5t-120.5 266.5 q0 40 15 121z" />
<glyph unicode="&#x406;" horiz-adv-x="471" d="M508 1475l-315 -1475h-140l316 1475h139z" />
<glyph unicode="&#x407;" horiz-adv-x="471" d="M508 1475l-315 -1475h-140l316 1475h139zM354 1610h-123l39 180h123zM702 1610h-122l38 180h123z" />
<glyph unicode="&#x408;" horiz-adv-x="1024" d="M922 1475h139l-230 -1072q-92 -442 -507 -442q-169 0 -239.5 78.5t-70.5 216.5q0 86 27 211h139q-26 -117 -26 -186q0 -91 47.5 -142t165.5 -51q138 0 215 79.5t112 240.5z" />
<glyph unicode="&#x409;" horiz-adv-x="2107" d="M479 1475h844l-133 -633h350q95 0 172.5 -16.5t142 -52.5t100.5 -100.5t36 -152.5q0 -41 -6.5 -84t-24 -95t-45.5 -99t-74.5 -92t-106 -77.5t-146 -52.5t-189.5 -20h-529l289 1356h-565l-137 -639q-84 -395 -187 -570.5t-243 -175.5q-47 0 -105 17l23 112q48 -10 94 -10 q73 0 147 176t154 555zM1163 723l-129 -604h318q119 0 209 22t143.5 57t86.5 86t44.5 101.5t11.5 110.5q0 125 -98 176t-276 51h-310z" />
<glyph unicode="&#x40a;" horiz-adv-x="2131" d="M508 1475l-135 -633h698l135 633h140l-136 -633h351q95 0 172.5 -16.5t141.5 -52.5t100 -100.5t36 -152.5q0 -41 -6.5 -84t-24 -95t-45.5 -99t-74.5 -92t-106 -77.5t-146 -52.5t-189.5 -20h-528l156 723h-699l-155 -723h-140l316 1475h139zM1186 723l-129 -604h317 q119 0 209.5 22t143.5 57t86.5 86t45 101.5t11.5 110.5q0 65 -27.5 110.5t-79.5 70t-117 35.5t-151 11h-309z" />
<glyph unicode="&#x40b;" horiz-adv-x="1593" d="M811 1356l-111 -527q33 4 139 8.5t158 4.5q465 0 465 -324q0 -52 -12 -110l-88 -408h-139l86 403q12 52 12 95q0 121 -95 173t-300 52q-166 0 -252 -16l-152 -707h-139l289 1356h-467l26 119h1074l-27 -119h-467z" />
<glyph unicode="&#x40c;" horiz-adv-x="1357" d="M508 1475l-160 -744l891 744h182l-706 -588l493 -887h-170l-442 801l-281 -232l-122 -569h-140l316 1475h139zM862 1610h-123l342 340h189z" />
<glyph unicode="&#x40e;" horiz-adv-x="1187" d="M203 1475h145l211 -1067l678 1067h154l-834 -1285q-84 -129 -159.5 -179t-190.5 -50q-51 0 -84 10l24 117q28 -8 76 -8q66 0 106 23.5t79 80.5l41 60zM641 1903h80q0 -83 46.5 -124.5t133.5 -41.5q177 0 254 166h76q-40 -126 -136 -192t-225 -66q-109 0 -171 55.5 t-62 154.5q0 20 4 48z" />
<glyph unicode="&#x40f;" horiz-adv-x="1482" d="M508 1475l-289 -1356h873l292 1356h140l-316 -1475h-508l-71 -338h-140l72 338h-508l316 1475h139z" />
<glyph unicode="&#x410;" horiz-adv-x="1333" d="M793 1475h157l250 -1475h-143l-70 463h-672l-274 -463h-143zM840 1356l-453 -774h578z" />
<glyph unicode="&#x411;" horiz-adv-x="1294" d="M369 1475h913l-27 -119h-774l-108 -514h350q95 0 172.5 -16.5t142 -52.5t100.5 -100.5t36 -152.5q0 -41 -6.5 -84t-24 -95t-45.5 -99t-74.5 -92t-106 -77.5t-146 -52.5t-189.5 -20h-529zM348 723l-129 -604h318q119 0 209 22t143.5 57t86.5 86t44.5 101.5t11.5 110.5 q0 65 -27.5 110.5t-79.5 70t-117 35.5t-151 11h-309z" />
<glyph unicode="&#x412;" horiz-adv-x="1357" d="M344 705l-125 -586h354q99 0 167 6.5t130 24.5t101.5 51t69.5 86t46 129q11 57 11 82q0 63 -26.5 104.5t-80.5 63.5t-118.5 30.5t-157.5 8.5h-371zM481 1356l-112 -533h352q118 0 205.5 27.5t133.5 65.5t73.5 90.5t34 90.5t6.5 77q0 98 -87 140t-284 42h-322zM53 0 l316 1475h532q213 0 313.5 -72.5t100.5 -204.5q0 -88 -29 -164.5t-75.5 -127.5t-101 -82.5t-108.5 -37.5v-4q117 -18 176.5 -88t59.5 -178q0 -59 -12.5 -120t-51.5 -134.5t-100 -129.5t-169.5 -94t-248.5 -38h-602z" />
<glyph unicode="&#x413;" horiz-adv-x="1153" d="M369 1475h950l-27 -119h-811l-288 -1356h-140z" />
<glyph unicode="&#x414;" horiz-adv-x="1458" d="M82 119q58 84 90.5 135t73 127t67.5 149t57 177t58 235l113 533h923l-288 -1356h112l-96 -457h-139l71 338h-1036l-72 -338h-139l96 457h109zM1300 1356h-645l-100 -471q-53 -249 -130.5 -423.5t-197.5 -342.5h809z" />
<glyph unicode="&#x415;" horiz-adv-x="1251" d="M369 1475h981l-27 -119h-842l-108 -514h760l-25 -119h-760l-129 -604h862l-26 -119h-1002z" />
<glyph unicode="&#x416;" horiz-adv-x="2045" d="M295 1475h164l524 -762l164 762h139l-164 -762l852 762h164l-692 -617l459 -858h-160l-412 764l-246 -219l-116 -545h-140l117 545l-151 219l-740 -764h-159l827 858z" />
<glyph unicode="&#x417;" horiz-adv-x="1304" d="M393 1071h-137q42 202 197.5 321t392.5 119q203 0 323.5 -76t120.5 -221q0 -131 -81.5 -253.5t-233.5 -182.5q104 -31 158.5 -110.5t54.5 -182.5q0 -42 -8 -86.5t-29 -96.5t-53 -99.5t-83.5 -92.5t-117 -77.5t-158.5 -52t-202 -19.5q-214 0 -339.5 92.5t-125.5 270.5 q0 52 12 116h135q-4 -32 -4 -78q0 -151 88 -216.5t264 -65.5q125 0 219.5 31.5t150 86t83 122t27.5 145.5q0 118 -80 188t-226 70h-120l24 119h90q85 0 155 20.5t116.5 54.5t78.5 79t46 91.5t14 94.5q0 105 -91 158t-235 53q-102 0 -186.5 -31t-150 -105.5t-89.5 -185.5z " />
<glyph unicode="&#x418;" horiz-adv-x="1484" d="M508 1475l-275 -1289h5l1126 1289h158l-316 -1475h-139l274 1286h-4l-1122 -1286h-162l316 1475h139z" />
<glyph unicode="&#x419;" horiz-adv-x="1484" d="M508 1475l-272 -1289h4l1124 1289h160l-316 -1475h-139l274 1286h-4l-1122 -1286h-164l316 1475h139zM756 1903h80q0 -83 46.5 -124.5t133.5 -41.5q177 0 254 166h76q-40 -126 -136 -192t-225 -66q-109 0 -171 55.5t-62 154.5q0 20 4 48z" />
<glyph unicode="&#x41a;" horiz-adv-x="1357" d="M508 1475l-160 -744l891 744h182l-706 -588l493 -887h-170l-442 801l-281 -232l-122 -569h-140l316 1475h139z" />
<glyph unicode="&#x41b;" horiz-adv-x="1421" d="M479 1475h983l-315 -1475h-139l288 1356h-702l-137 -639q-84 -395 -187 -570.5t-243 -175.5q-47 0 -105 17l23 112q48 -10 94 -10q73 0 147 176t154 555z" />
<glyph unicode="&#x41c;" horiz-adv-x="1718" d="M369 1475h213l206 -1301h5l751 1301h211l-315 -1475h-140l281 1315h-4l-764 -1315h-131l-205 1315h-4l-280 -1315h-140z" />
<glyph unicode="&#x41d;" horiz-adv-x="1482" d="M508 1475l-135 -633h872l135 633h140l-316 -1475h-139l156 723h-873l-155 -723h-140l316 1475h139z" />
<glyph unicode="&#x41e;" horiz-adv-x="1591" d="M997 1513q139 0 246 -41t173.5 -116t100 -175t33.5 -223q0 -152 -40 -299t-118 -272.5t-183 -221t-244 -150t-293 -54.5q-137 0 -242 41.5t-171 116.5t-99 175t-33 222q0 151 41 298t119 272.5t183 221.5t241.5 150.5t285.5 54.5zM975 1395q-137 0 -255 -54t-199.5 -142 t-139.5 -201.5t-85.5 -232t-27.5 -233.5q0 -99 25 -179.5t75.5 -142.5t135 -96t196.5 -34q110 0 209.5 35.5t176 97t138.5 144.5t102 179t61.5 199t21.5 205q0 216 -113 335.5t-321 119.5z" />
<glyph unicode="&#x41f;" horiz-adv-x="1482" d="M369 1475h1151l-316 -1475h-139l289 1356h-873l-288 -1356h-140z" />
<glyph unicode="&#x420;" horiz-adv-x="1294" d="M332 651l-139 -651h-140l316 1475h528q416 0 416 -297q0 -118 -37 -211t-97.5 -151t-144.5 -96.5t-170.5 -53.5t-183.5 -15h-348zM481 1356l-125 -586h308q118 0 205.5 18t158 60t107 119.5t36.5 189.5q0 50 -17 85.5t-47.5 57.5t-81.5 34.5t-110 17t-143 4.5h-291z" />
<glyph unicode="&#x421;" horiz-adv-x="1488" d="M1479 1047h-144q0 180 -98.5 264t-292.5 84q-124 0 -234 -51.5t-189.5 -138.5t-137.5 -200.5t-86.5 -239.5t-28.5 -253q0 -94 21.5 -169.5t68 -136t127.5 -93.5t193 -33q184 0 327.5 111t225.5 294h145q-50 -113 -116.5 -203.5t-157 -164.5t-212.5 -115t-265 -41 q-131 0 -228.5 39t-155.5 110.5t-86 164.5t-28 208q0 77 11 162.5t39 187.5t71 196t113.5 183.5t159 155t214 105.5t273.5 40q471 0 471 -466z" />
<glyph unicode="&#x422;" d="M811 1356l-289 -1356h-139l289 1356h-467l26 119h1074l-27 -119h-467z" />
<glyph unicode="&#x423;" horiz-adv-x="1187" d="M203 1475h145l211 -1067l678 1067h154l-834 -1285q-84 -129 -159.5 -179t-190.5 -50q-51 0 -84 10l24 117q28 -8 76 -8q66 0 106 23.5t79 80.5l41 60z" />
<glyph unicode="&#x424;" horiz-adv-x="1720" d="M993 1475h140l-29 -127h100q218 0 343.5 -129.5t125.5 -333.5q0 -151 -59 -289t-157 -236.5t-231 -156.5t-276 -58h-100l-33 -145h-139l33 145h-101q-220 0 -345.5 123.5t-125.5 327.5q0 146 58 284t155 240.5t232 165t280 62.5h101zM735 264l205 965h-96 q-154 0 -284 -82.5t-204.5 -222.5t-74.5 -303q0 -162 93 -259.5t265 -97.5h96zM1079 1229l-205 -965h97q156 0 286 85t203.5 225.5t73.5 302.5q0 159 -93.5 255.5t-264.5 96.5h-97z" />
<glyph unicode="&#x425;" horiz-adv-x="1251" d="M260 1475h162l270 -621l539 621h162l-637 -717l344 -758h-160l-291 651l-567 -651h-158l670 758z" />
<glyph unicode="&#x426;" horiz-adv-x="1482" d="M508 1475l-289 -1356h873l288 1356h140l-289 -1356h110l-96 -457h-139l72 338h-1125l316 1475h139z" />
<glyph unicode="&#x427;" horiz-adv-x="1382" d="M356 1475h140l-86 -398q-11 -57 -11 -82q0 -63 27 -104.5t81 -63.5t119 -30.5t158 -8.5q69 0 128.5 3.5t98.5 8t128 15.5l141 660h139l-315 -1475h-139l147 692q-151 -22 -479 -22q-373 0 -373 299q0 53 16 135z" />
<glyph unicode="&#x428;" horiz-adv-x="1978" d="M508 1475l-289 -1356h615l288 1356h140l-289 -1356h614l289 1356h139l-315 -1475h-1647l316 1475h139z" />
<glyph unicode="&#x429;" horiz-adv-x="1978" d="M508 1475l-287 -1356h613l288 1356h140l-289 -1356h614l289 1356h139l-289 -1356h113l-96 -457h-139l71 338h-1622l316 1475h139z" />
<glyph unicode="&#x42a;" horiz-adv-x="1419" d="M188 1475h445l-135 -633h350q95 0 172.5 -16.5t141.5 -52.5t100 -100.5t36 -152.5q0 -41 -6.5 -84t-24 -95t-45 -99t-74 -92t-106 -77.5t-146 -52.5t-189.5 -20h-529l289 1356h-305zM473 723l-129 -604h318q119 0 209 22t143.5 57t86.5 86t44.5 101.5t11.5 110.5 q0 65 -27.5 110.5t-79.5 70t-117 35.5t-151 11h-309z" />
<glyph unicode="&#x42b;" horiz-adv-x="1759" d="M508 1475l-135 -633h350q95 0 172.5 -16.5t142 -52.5t100.5 -100.5t36 -152.5q0 -41 -6.5 -84t-24 -95t-45.5 -99t-74.5 -92t-106 -77.5t-146 -52.5t-189.5 -20h-529l316 1475h139zM348 723l-129 -604h318q119 0 209 22t143.5 57t86.5 86t44.5 101.5t11.5 110.5 q0 65 -27.5 110.5t-79.5 70t-117 35.5t-151 11h-309zM1796 1475l-315 -1475h-140l316 1475h139z" />
<glyph unicode="&#x42c;" horiz-adv-x="1294" d="M508 1475l-135 -633h350q95 0 172.5 -16.5t142 -52.5t100.5 -100.5t36 -152.5q0 -41 -6.5 -84t-24 -95t-45.5 -99t-74.5 -92t-106 -77.5t-146 -52.5t-189.5 -20h-529l316 1475h139zM348 723l-129 -604h318q119 0 209 22t143.5 57t86.5 86t44.5 101.5t11.5 110.5 q0 65 -27.5 110.5t-79.5 70t-117 35.5t-151 11h-309z" />
<glyph unicode="&#x42d;" horiz-adv-x="1480" d="M225 1047q83 225 261.5 345.5t410.5 120.5q125 0 223.5 -29.5t173 -90t114.5 -161.5t40 -237q0 -86 -13.5 -179.5t-44.5 -195t-76 -195.5t-113 -179t-151 -148t-195 -100t-239 -37q-115 0 -206 28t-150 75.5t-98 115t-55.5 143t-16.5 162.5h146q0 -178 98.5 -291.5 t281.5 -113.5q113 0 210 35t168.5 94t128.5 142t93.5 175t59.5 197h-631l25 119h630q5 50 5 86q0 102 -21 184t-66 147t-124 100.5t-187 35.5q-194 0 -325.5 -81.5t-212.5 -266.5h-144z" />
<glyph unicode="&#x42e;" horiz-adv-x="2054" d="M373 842h266q49 145 126 266t179.5 212t235 142t282.5 51q139 0 246 -41t173.5 -116t100 -175t33.5 -223q0 -152 -40 -299t-118 -272.5t-183 -221t-244 -150t-293 -54.5q-179 0 -304 71t-184 192.5t-59 283.5q0 101 24 215h-266l-155 -723h-140l316 1475h139zM1165 80 q132 0 247.5 49.5t198.5 134t143.5 195t90 233.5t29.5 248q0 216 -113 335.5t-321 119.5q-109 0 -208 -35.5t-175.5 -98t-138.5 -146t-102 -179.5t-61.5 -199t-21.5 -205q0 -99 25 -179.5t75.5 -142.5t135 -96t196.5 -34z" />
<glyph unicode="&#x42f;" horiz-adv-x="1294" d="M1016 651h-365l-551 -651h-166l568 664q-291 51 -291 292q0 38 6 79t23.5 93t45 99t74 93t106 80t146.5 54.5t191 20.5h528l-315 -1475h-139zM1040 770l125 586h-323q-106 0 -187.5 -15t-134 -44t-87.5 -63t-52.5 -80t-24 -86.5t-6.5 -90.5q0 -63 26.5 -104.5t80.5 -63.5 t118.5 -30.5t157.5 -8.5h307z" />
<glyph unicode="&#x430;" horiz-adv-x="1142" d="M852 557q-95 -47 -330 -59q-167 -9 -259.5 -82.5t-92.5 -184.5q0 -73 54.5 -111t137.5 -38q102 0 194 31t165.5 103.5t95.5 174.5zM317 739h-124q35 121 113 201.5t177 115t219 34.5q151 0 238.5 -57t87.5 -183q0 -35 -10 -90l-123 -578q-8 -36 -8 -55q0 -45 41 -45 q19 0 78 18l-21 -96q-66 -20 -100 -20q-68 0 -96.5 23.5t-28.5 88.5q0 23 4 51h-4q-87 -84 -198.5 -130t-227.5 -46q-130 0 -213.5 60t-83.5 174q0 147 108 254.5t338 136.5l242 31q99 13 137.5 60t38.5 132q0 75 -54 117.5t-169 42.5q-137 0 -227.5 -54.5t-133.5 -185.5z " />
<glyph unicode="&#x431;" horiz-adv-x="1193" d="M295 885h4q157 205 408 205q191 0 287 -107t96 -287q0 -201 -86 -368.5t-230.5 -262t-312.5 -94.5q-190 0 -287.5 108.5t-97.5 299.5q0 94 24 205q20 97 43 177t57.5 169t80 159t104.5 131.5t138.5 103t174.5 58.5q207 39 279 63t80 68h129q-11 -51 -48 -89t-102.5 -65 t-133.5 -44t-171 -35q-161 -28 -262 -117t-174 -278zM485 82q91 0 169 36.5t133 97.5t94.5 140t58 163t18.5 167q0 137 -68 215t-214 78q-110 0 -201 -51t-148.5 -134t-88.5 -184.5t-31 -206.5q0 -144 70.5 -232.5t207.5 -88.5z" />
<glyph unicode="&#x432;" horiz-adv-x="1069" d="M264 502l-84 -400h342q124 0 199.5 71t75.5 173q0 81 -61.5 118.5t-162.5 37.5h-309zM360 958l-73 -354h315q65 0 122 23t96.5 75.5t39.5 124.5q0 69 -52.5 100t-158.5 31h-289zM35 0l225 1061h494q112 0 172.5 -58t60.5 -139q0 -106 -64 -188.5t-159 -114.5 q73 -21 118.5 -73t45.5 -128q0 -146 -111 -253t-268 -107h-514z" />
<glyph unicode="&#x433;" horiz-adv-x="827" d="M260 1061h655l-22 -103h-533l-202 -958h-123z" />
<glyph unicode="&#x434;" horiz-adv-x="1132" d="M70 102q107 140 163.5 293t98.5 344l69 322h703l-205 -959h107l-80 -378h-123l57 276h-784l-58 -276h-122l79 378h95zM958 958h-458l-49 -233q-43 -201 -94.5 -339t-155.5 -284h575z" />
<glyph unicode="&#x435;" horiz-adv-x="1150" d="M246 604h692q12 56 12 105q0 122 -68 196t-200 74q-154 0 -268.5 -106.5t-167.5 -268.5zM1047 502h-824q-14 -75 -14 -123q0 -134 70.5 -215.5t209.5 -81.5q122 0 222.5 64.5t152.5 179.5h137q-184 -355 -534 -355q-196 0 -292.5 102t-96.5 277q0 140 47.5 274t129.5 237 t200 166t250 63q176 0 271 -97.5t95 -285.5q0 -91 -24 -205z" />
<glyph unicode="&#x436;" horiz-adv-x="1503" d="M168 1061h160l364 -524l111 524h123l-111 -524l586 524h160l-469 -418l286 -643h-139l-256 557l-201 -168l-82 -389h-122l81 389l-127 168l-493 -557h-139l561 643z" />
<glyph unicode="&#x437;" horiz-adv-x="1034" d="M434 514l23 102h133q82 0 164 66t82 160q0 137 -236 137q-119 0 -193.5 -52t-127.5 -169h-119q42 147 172 239.5t286 92.5q172 0 258.5 -64t86.5 -162q0 -112 -79.5 -195.5t-178.5 -99.5q83 -21 133.5 -80t50.5 -145q0 -173 -138 -273t-358 -100q-178 0 -271 79.5 t-93 223.5q0 26 4 58h121q-4 -20 -4 -35q0 -100 72 -157.5t200 -57.5q156 0 246 70t90 186q0 87 -59.5 131.5t-155.5 44.5h-109z" />
<glyph unicode="&#x438;" horiz-adv-x="1159" d="M383 1061l-190 -897l796 897h135l-225 -1061h-123l191 897l-795 -897h-137l225 1061h123z" />
<glyph unicode="&#x439;" horiz-adv-x="1159" d="M385 1061l-190 -897l796 897h135l-225 -1061h-123l191 897l-795 -897h-137l225 1061h123zM477 1427h80q0 -165 180 -165q178 0 254 165h76q-40 -126 -135.5 -192t-224.5 -66q-109 0 -171.5 56t-62.5 155q0 19 4 47z" />
<glyph unicode="&#x43a;" horiz-adv-x="1032" d="M383 1061l-107 -504l627 504h168l-479 -383l301 -678h-137l-273 592l-239 -191l-86 -401h-123l225 1061h123z" />
<glyph unicode="&#x43b;" horiz-adv-x="1132" d="M340 1061h735l-225 -1061h-123l205 958h-490l-43 -198q-63 -298 -116 -453q-53 -160 -123.5 -237.5t-167.5 -77.5q-53 0 -88 14l20 100q33 -8 74 -8q73 0 123 101t96 307z" />
<glyph unicode="&#x43c;" horiz-adv-x="1329" d="M260 1061h160l162 -922l553 922h159l-225 -1061h-123l184 868h-2l-520 -868h-112l-154 868l-184 -868h-123z" />
<glyph unicode="&#x43d;" horiz-adv-x="1142" d="M389 1061l-94 -445h590l94 445h123l-225 -1061h-123l108 514h-590l-108 -514h-123l225 1061h123z" />
<glyph unicode="&#x43e;" horiz-adv-x="1179" d="M709 1090q195 0 293 -107t98 -287q0 -75 -17 -155t-49.5 -162t-85.5 -155t-120.5 -129.5t-159.5 -90t-197 -33.5q-176 0 -283.5 102.5t-107.5 293.5q0 107 27.5 211.5t82 196.5t129 162.5t175.5 111.5t215 41zM686 979q-89 0 -166.5 -35.5t-133 -95t-95 -136.5 t-59 -160.5t-19.5 -166.5q0 -142 71.5 -222.5t209.5 -80.5q91 0 169.5 37t133.5 98t94.5 139.5t58.5 163t19 166.5q0 136 -68.5 214.5t-214.5 78.5z" />
<glyph unicode="&#x43f;" horiz-adv-x="1130" d="M260 1061h836l-226 -1061h-122l202 958h-590l-202 -958h-123z" />
<glyph unicode="&#x440;" horiz-adv-x="1220" d="M725 979q-86 0 -170.5 -43.5t-151 -119t-108 -187t-41.5 -236.5q0 -137 71.5 -224t206.5 -87q97 0 186 50t151.5 132t99.5 189t37 219q0 141 -69 224t-212 83zM195 170l-125 -588h-123l313 1479h123l-39 -187h4q72 100 189.5 158t224.5 58q196 0 288.5 -100t92.5 -275 q0 -108 -26 -214t-78.5 -201.5t-124.5 -169t-171.5 -116.5t-212.5 -43q-116 0 -207.5 52.5t-127.5 146.5z" />
<glyph unicode="&#x441;" horiz-adv-x="1140" d="M1067 727h-125q0 114 -69.5 183t-190.5 69q-92 0 -171 -40t-132.5 -103t-92 -142t-56 -157t-17.5 -148q0 -137 67 -222t209 -85q135 0 236.5 75.5t151.5 209.5h131q-72 -184 -210 -290t-331 -106q-196 0 -292.5 103t-96.5 280q0 106 28 212t83.5 200t130 166.5t174.5 115 t211 42.5q184 0 273 -87.5t89 -275.5z" />
<glyph unicode="&#x442;" horiz-adv-x="892" d="M141 1061h836l-23 -103h-356l-203 -958h-123l203 958h-356z" />
<glyph unicode="&#x443;" horiz-adv-x="1003" d="M137 1061h137l146 -911l534 911h133l-618 -1047q-47 -81 -75 -126t-67 -103t-68 -88.5t-65.5 -60.5t-73.5 -42t-79 -12q-55 0 -113 15l25 114q62 -12 98 -12q62 0 117 59t154 234z" />
<glyph unicode="&#x444;" horiz-adv-x="1781" d="M430 82q91 0 171 56.5t132 145t81.5 193t29.5 203.5q0 134 -56.5 216.5t-166.5 82.5q-95 0 -176 -61t-131.5 -155t-78.5 -199t-28 -199q0 -128 54.5 -205.5t168.5 -77.5zM1034 1513h123l-129 -612q63 81 159 135t199 54q157 0 235.5 -103t78.5 -272q0 -137 -38.5 -269 t-107.5 -238.5t-175 -171.5t-230 -65q-216 0 -281 183l-120 -572h-123l123 576q-147 -187 -361 -187q-160 0 -236.5 98.5t-76.5 266.5q0 106 24 213.5t72 204.5t113 172t154 119.5t188 44.5q104 0 178 -52.5t102 -132.5zM1155 82q91 0 170.5 56t131 144.5t81 193.5t29.5 206 q0 131 -54 214t-167 83q-87 0 -166 -56t-132.5 -143.5t-84.5 -195t-31 -211.5q0 -131 54.5 -211t168.5 -80z" />
<glyph unicode="&#x445;" horiz-adv-x="1024" d="M182 1061h152l203 -422l391 422h155l-491 -512l280 -549h-147l-223 459l-428 -459h-150l525 549z" />
<glyph unicode="&#x446;" horiz-adv-x="1146" d="M381 1061l-203 -959h590l203 959h123l-203 -959h106l-82 -381h-122l59 279h-819l225 1061h123z" />
<glyph unicode="&#x447;" horiz-adv-x="1044" d="M225 1061h123l-61 -291q-6 -24 -6 -47q0 -72 51.5 -111t144.5 -39q146 0 205.5 7.5t108.5 25.5l96 455h123l-226 -1061h-122l106 502q-131 -39 -336 -39q-120 0 -197 64t-77 180q0 38 8 77z" />
<glyph unicode="&#x448;" horiz-adv-x="1736" d="M383 1061l-203 -959h537l203 959h122l-202 -959h536l203 959h123l-225 -1061h-1442l225 1061h123z" />
<glyph unicode="&#x449;" horiz-adv-x="1753" d="M383 1061l-205 -959h537l205 959h122l-204 -959h536l205 959h123l-205 -959h107l-82 -381h-123l59 279h-1423l225 1061h123z" />
<glyph unicode="&#x44a;" horiz-adv-x="1103" d="M90 1061h348l-94 -445h311q147 0 229.5 -66t82.5 -177q0 -74 -29.5 -141.5t-83 -119t-135 -82t-178.5 -30.5h-451l203 958h-225zM322 514l-86 -412h276q149 0 234 68t85 180q0 77 -56 120.5t-150 43.5h-303z" />
<glyph unicode="&#x44b;" horiz-adv-x="1435" d="M383 1061l-94 -445h311q147 0 229 -66t82 -177q0 -74 -29.5 -141.5t-83 -119t-135 -82t-178.5 -30.5h-450l225 1061h123zM266 514l-86 -412h277q149 0 234 68t85 180q0 77 -56.5 120.5t-150.5 43.5h-303zM1401 1061l-225 -1061h-123l225 1061h123z" />
<glyph unicode="&#x44c;" horiz-adv-x="1048" d="M383 1061l-94 -445h311q147 0 229 -66t82 -177q0 -74 -29.5 -141.5t-83 -119t-135 -82t-178.5 -30.5h-450l225 1061h123zM266 514l-86 -412h277q149 0 234 68t85 180q0 77 -56.5 120.5t-150.5 43.5h-303z" />
<glyph unicode="&#x44d;" horiz-adv-x="1136" d="M152 727q66 166 202.5 264.5t315.5 98.5q188 0 286.5 -115.5t98.5 -296.5q0 -99 -25 -198.5t-77 -191t-124 -162.5t-175 -113t-222 -42q-192 0 -282.5 104.5t-90.5 291.5h131q0 -285 265 -285q88 0 166 37t133.5 99t93.5 137.5t55 158.5h-422l23 102h416q4 32 4 62 q0 129 -69 215t-208 86q-121 0 -216.5 -66t-154.5 -186h-124z" />
<glyph unicode="&#x44e;" horiz-adv-x="1568" d="M1098 1090q195 0 293 -107t98 -287q0 -133 -43.5 -261.5t-122 -232t-199.5 -167.5t-264 -64q-175 0 -285 99.5t-110 287.5q0 74 18 156h-217l-108 -514h-123l225 1061h123l-94 -445h223q67 211 218.5 342.5t367.5 131.5zM1075 979q-94 0 -174 -39.5t-134 -103t-92 -143 t-55.5 -158t-17.5 -150.5q0 -142 71.5 -222.5t209.5 -80.5q93 0 173 39t134.5 102t93 143t56.5 161.5t18 158.5q0 136 -68.5 214.5t-214.5 78.5z" />
<glyph unicode="&#x44f;" horiz-adv-x="1048" d="M762 453h-293l-352 -453h-137l366 463q-209 55 -209 225q0 43 11.5 89t43 98t79 92.5t128 67t181.5 26.5h434l-226 -1061h-122zM784 555l84 403h-276q-147 0 -233.5 -65t-86.5 -180q0 -75 57.5 -116.5t151.5 -41.5h303z" />
<glyph unicode="&#x451;" horiz-adv-x="1150" d="M246 604h692q12 56 12 105q0 122 -68 196t-200 74q-154 0 -268.5 -106.5t-167.5 -268.5zM1047 502h-824q-14 -75 -14 -123q0 -134 70.5 -215.5t209.5 -81.5q122 0 222.5 64.5t152.5 179.5h137q-184 -355 -534 -355q-196 0 -292.5 102t-96.5 277q0 140 47.5 274t129.5 237 t200 166t250 63q176 0 271 -97.5t95 -285.5q0 -91 -24 -205zM637 1223h-123l39 180h123zM950 1223h-123l39 180h123z" />
<glyph unicode="&#x452;" horiz-adv-x="1136" d="M348 1475h123l-33 -156h346l-22 -111h-346l-64 -295q97 84 187.5 130.5t191.5 46.5q157 0 234 -63t77 -212q0 -78 -24 -192q-41 -195 -93.5 -337t-112 -234t-138.5 -150.5t-162 -85.5t-193 -39l23 110q118 13 196.5 51t144.5 126.5t115 230t97 367.5q18 92 18 137 q0 92 -52 136t-173 44q-85 0 -157.5 -35t-120 -92t-78.5 -119.5t-45 -128.5l-129 -604h-123l258 1208h-137l22 111h137z" />
<glyph unicode="&#x453;" horiz-adv-x="827" d="M262 1061h656l-23 -103h-533l-202 -958h-123zM606 1178h-94l258 256h143z" />
<glyph unicode="&#x454;" horiz-adv-x="1140" d="M1067 727h-125q0 116 -69 184t-191 68q-80 0 -152.5 -31.5t-125.5 -84t-91 -115.5t-59 -132h416l-23 -102h-422q-12 -64 -12 -125q0 -136 68 -221.5t208 -85.5q135 0 236.5 75.5t151.5 209.5h131q-72 -184 -210 -290t-331 -106q-196 0 -292.5 103t-96.5 280q0 106 28 212 t83.5 200t130 166.5t174.5 115t211 42.5q184 0 273 -87.5t89 -275.5z" />
<glyph unicode="&#x455;" horiz-adv-x="1007" d="M930 756h-127v43q0 90 -63.5 135t-174.5 45q-120 0 -201 -59.5t-81 -157.5q0 -28 14.5 -51.5t35 -39.5t57.5 -30.5t68 -23.5t79 -21q42 -10 68 -17.5t64.5 -20.5t62.5 -25.5t51.5 -32t43.5 -41t26.5 -51t10.5 -64.5q0 -117 -72 -203.5t-185 -128t-249 -41.5 q-162 0 -246.5 81t-84.5 214q0 42 4 66h125q0 -135 62 -192.5t202 -57.5q132 0 220.5 68t88.5 163q0 68 -65.5 107.5t-210.5 64.5q-161 28 -234.5 86.5t-73.5 147.5q0 160 126 265.5t319 105.5q340 0 340 -287v-47z" />
<glyph unicode="&#x456;" horiz-adv-x="417" d="M383 1061l-225 -1061h-123l225 1061h123zM432 1292h-123l39 181h123z" />
<glyph unicode="&#x457;" horiz-adv-x="417" d="M385 1061l-225 -1061h-123l225 1061h123zM276 1249h-122l39 181h122zM571 1249h-122l38 181h123z" />
<glyph unicode="&#x458;" horiz-adv-x="450" d="M293 1061h123l-256 -1202q-12 -54 -21 -87t-23.5 -68.5t-32.5 -55t-45 -36.5t-63.5 -23.5t-85.5 -6.5q-44 0 -77 8l22 109q28 -4 49 -4q68 0 102 35.5t50 111.5zM465 1292h-123l39 181h123z" />
<glyph unicode="&#x459;" horiz-adv-x="1687" d="M340 1061h682l-94 -445h311q147 0 229 -66t82 -177q0 -74 -29.5 -141.5t-83 -119t-135 -82t-178.5 -30.5h-450l205 958h-437l-43 -198q-63 -298 -116 -453q-53 -160 -123.5 -237.5t-167.5 -77.5q-53 0 -88 14l20 100q33 -8 74 -8q69 0 119 94.5t100 313.5zM907 514 l-86 -412h277q149 0 234 68t85 180q0 77 -56.5 120.5t-150.5 43.5h-303z" />
<glyph unicode="&#x45a;" horiz-adv-x="1710" d="M387 1061l-94 -445h532l95 445h122l-94 -445h312q147 0 229 -66t82 -177q0 -74 -29.5 -141.5t-83 -119t-135 -82t-178.5 -30.5h-451l109 514h-533l-108 -514h-123l225 1061h123zM926 514l-86 -412h276q149 0 234.5 68t85.5 180q0 77 -56.5 120.5t-150.5 43.5h-303z" />
<glyph unicode="&#x45b;" horiz-adv-x="1136" d="M350 1475h123l-35 -156h346l-22 -111h-346l-64 -295q102 88 190.5 132.5t190.5 44.5q148 0 227.5 -67.5t79.5 -203.5q0 -62 -14 -125l-149 -694h-123l147 692q12 59 12 103q0 93 -54 138.5t-171 45.5q-83 0 -153.5 -33t-119.5 -90t-82 -126t-50 -148l-125 -582h-123 l258 1208h-137l22 111h137z" />
<glyph unicode="&#x45c;" horiz-adv-x="1032" d="M385 1061l-109 -504l627 504h168l-479 -383l301 -678h-137l-273 592l-239 -191l-84 -401h-123l225 1061h123zM698 1178h-94l258 256h144z" />
<glyph unicode="&#x45e;" horiz-adv-x="1003" d="M137 1061h137l146 -911l534 911h133l-618 -1047q-47 -81 -75 -126t-67 -103t-68 -88.5t-65.5 -60.5t-73.5 -42t-79 -12q-55 0 -113 15l25 114q62 -12 98 -12q62 0 117 59t154 234zM428 1427h80q0 -165 180 -165q178 0 254 165h76q-40 -126 -136 -192t-225 -66 q-109 0 -171 56t-62 155q0 19 4 47z" />
<glyph unicode="&#x45f;" horiz-adv-x="1130" d="M383 1061l-205 -959h590l205 959h123l-228 -1061h-356l-59 -279h-123l59 279h-354l225 1061h123z" />
<glyph unicode="&#x490;" horiz-adv-x="1153" d="M369 1475h811l55 266h139l-82 -385h-811l-288 -1356h-140z" />
<glyph unicode="&#x491;" horiz-adv-x="827" d="M260 1061h533l41 199h122l-63 -302h-533l-202 -958h-123z" />
<glyph unicode="&#x2000;" horiz-adv-x="977" />
<glyph unicode="&#x2001;" horiz-adv-x="1954" />
<glyph unicode="&#x2002;" horiz-adv-x="977" />
<glyph unicode="&#x2003;" horiz-adv-x="1954" />
<glyph unicode="&#x2004;" horiz-adv-x="651" />
<glyph unicode="&#x2005;" horiz-adv-x="488" />
<glyph unicode="&#x2006;" horiz-adv-x="325" />
<glyph unicode="&#x2007;" horiz-adv-x="325" />
<glyph unicode="&#x2008;" horiz-adv-x="244" />
<glyph unicode="&#x2009;" horiz-adv-x="390" />
<glyph unicode="&#x200a;" horiz-adv-x="108" />
<glyph unicode="&#x2010;" horiz-adv-x="681" d="M131 573h516l-26 -122h-519z" />
<glyph unicode="&#x2011;" horiz-adv-x="681" d="M131 573h516l-26 -122h-519z" />
<glyph unicode="&#x2012;" horiz-adv-x="681" d="M131 573h516l-26 -122h-519z" />
<glyph unicode="&#x2013;" horiz-adv-x="1024" d="M1036 573l-24 -122h-1024l24 122h1024z" />
<glyph unicode="&#x2014;" horiz-adv-x="2048" d="M2036 451h-2048l24 122h2048z" />
<glyph unicode="&#x2018;" horiz-adv-x="454" d="M242 1014h-150l51 241q20 86 72.5 142.5t124.5 77.5l-16 -76q-79 -43 -99 -135l-14 -70h70z" />
<glyph unicode="&#x2019;" horiz-adv-x="454" d="M213 1475h149l-51 -242q-20 -86 -72 -142t-124 -77l16 76q78 42 98 135l15 69h-70z" />
<glyph unicode="&#x201a;" horiz-adv-x="569" d="M258 180h150l-52 -241q-20 -86 -72 -142.5t-124 -77.5l16 76q78 42 98 135l15 70h-70z" />
<glyph unicode="&#x201c;" horiz-adv-x="796" d="M586 1014h-150l51 241q20 86 72.5 142.5t124.5 77.5l-16 -76q-79 -43 -99 -135l-14 -70h70zM276 1014h-149l51 241q20 86 72.5 142.5t124.5 77.5l-17 -76q-78 -42 -98 -135l-14 -70h69z" />
<glyph unicode="&#x201d;" horiz-adv-x="796" d="M520 1475h150l-52 -242q-20 -86 -72 -142t-124 -77l16 76q79 43 99 135l14 69h-70zM211 1475h149l-51 -242q-20 -86 -72 -142t-124 -77l16 76q78 42 98 135l15 69h-70z" />
<glyph unicode="&#x201e;" horiz-adv-x="796" d="M520 180h150l-52 -241q-20 -86 -72 -142.5t-124 -77.5l16 76q79 43 99 135l14 70h-70zM211 180h149l-51 -241q-20 -86 -72 -142.5t-124 -77.5l16 76q78 42 98 135l15 70h-70z" />
<glyph unicode="&#x2022;" horiz-adv-x="1024" d="M588 1106q132 0 216.5 -84t84.5 -211q0 -114 -67 -217.5t-173 -164t-217 -60.5q-130 0 -213.5 82.5t-83.5 207.5q0 115 66.5 219.5t171.5 166t215 61.5z" />
<glyph unicode="&#x2026;" horiz-adv-x="2048" d="M399 0h-149l37 180h149zM1081 0h-149l37 180h149zM1763 0h-149l37 180h149z" />
<glyph unicode="&#x202f;" horiz-adv-x="390" />
<glyph unicode="&#x2039;" horiz-adv-x="796" d="M233 467l29 129l348 231l-28 -129l-248 -168l178 -163l-27 -127z" />
<glyph unicode="&#x203a;" horiz-adv-x="796" d="M563 600l-26 -129l-349 -231l27 129l248 168l-178 163l28 127z" />
<glyph unicode="&#x205f;" horiz-adv-x="488" />
<glyph unicode="&#x20ac;" d="M1225 1339l-29 -133q-42 54 -116.5 87.5t-178.5 33.5q-92 0 -172 -34t-140 -94t-105 -136.5t-74 -167.5h624l-57 -102h-602q-9 -30 -21 -80q-12 -68 -14 -84h545l-60 -103h-493q-20 -208 59 -322t248 -114q192 0 346 119l-29 -135q-56 -42 -150 -71.5t-206 -29.5 q-217 0 -318 137.5t-77 415.5h-144l58 103h98q4 38 14 84q4 16 13 48l8 32h-133l57 102h107q40 120 97 217t134 173t178.5 117.5t220.5 41.5q109 0 191 -30.5t121 -74.5z" />
<glyph unicode="&#x2122;" horiz-adv-x="1925" d="M967 1475h196l111 -637h4l377 637h196l-184 -863h-106l163 772h-4l-460 -772h-70l-133 772h-4l-164 -772h-107zM152 1475h655l-19 -82h-274l-166 -781h-106l166 781h-275z" />
<glyph unicode="&#xe000;" horiz-adv-x="1064" d="M0 1065h1065v-1065h-1065v1065z" />
</font>
</defs>
</svg>
