<?xml version="1.0" encoding="UTF-8"?>
<!DOCTYPE svg PUBLIC "-//W3C//DTD SVG 1.1//EN" "http://www.w3.org/Graphics/SVG/1.1/DTD/svg11.dtd">
<!-- Creator: CorelDRAW X6 -->
<svg xmlns="http://www.w3.org/2000/svg" xml:space="preserve" width="2260px" height="400px" version="1.1" style="shape-rendering:geometricPrecision; text-rendering:geometricPrecision; image-rendering:optimizeQuality; fill-rule:evenodd; clip-rule:evenodd"
viewBox="0 0 1972 349"
 xmlns:xlink="http://www.w3.org/1999/xlink">
 <defs>
  <style type="text/css">
   <![CDATA[
    .fil0 {fill:#323D54}
   ]]>
  </style>
 </defs>
 <g id="Слой_x0020_1">
  <metadata id="CorelCorpID_0Corel-Layer"/>
  <path class="fil0" d="M134 136c5,-1 20,-10 24,-13 12,-9 18,-14 28,-24 1,-1 2,-1 2,-2 15,-16 31,-36 36,-59 3,-11 3,-23 -3,-31 -11,-13 -48,-4 -63,0 -19,6 -37,16 -51,25 -8,5 -15,11 -22,16 -2,2 -3,3 -5,4 0,0 -1,1 -1,1 -4,4 -12,11 -16,15l-6 6c0,0 -1,1 -1,1 -2,2 -3,3 -4,5 -2,2 -3,3 -4,5 -5,7 -11,14 -16,22 -2,4 -5,8 -7,12 -7,13 -13,25 -18,39 -7,18 -12,43 -8,65 4,22 17,35 32,44 38,20 89,6 124,-9 22,-9 48,-24 65,-39 5,-4 10,-8 15,-13 1,-1 2,-1 3,-2l12 -12c2,-2 3,-3 4,-5 2,-2 3,-3 4,-5 19,-22 35,-50 44,-80 16,-56 -5,-99 -65,-95 -7,1 -6,0 -6,3 0,3 0,6 -1,9 0,2 -1,6 1,8 3,2 13,2 21,7 18,11 15,36 8,57 -18,50 -72,91 -118,110 -17,7 -41,14 -62,14 -53,0 -61,-47 -43,-92 9,-23 24,-44 40,-60l7 -7c3,-3 7,-6 10,-9 9,-7 24,-17 35,-22 5,-3 7,-4 13,-6 4,-2 10,-3 14,-5 27,-6 45,3 38,32 -3,15 -13,32 -23,44 -10,12 -21,24 -33,34 -1,1 -8,8 -9,10z"/>
  <path class="fil0" d="M11 280c1,9 8,19 11,24 3,4 4,5 6,7l7 7c5,4 9,8 15,12 2,1 4,2 6,3 10,6 19,10 31,13 21,5 44,3 64,-2 27,-7 51,-19 73,-34 13,-9 28,-22 38,-33 1,-1 2,-1 2,-2 7,-7 12,-13 18,-21 4,-5 7,-9 11,-15 5,-8 9,-14 13,-22 6,-12 12,-25 16,-38 1,-4 3,-10 3,-14 -3,2 -5,5 -7,8 -6,9 -12,18 -17,27 -4,6 -8,12 -12,17 -12,15 -30,32 -46,43 -11,8 -24,16 -37,22 -34,15 -74,24 -109,9 -3,-1 -8,-3 -12,-2 -4,0 -9,1 -13,2 -4,1 -9,1 -14,1 -10,0 -18,-1 -26,-4 -6,-2 -16,-7 -22,-8z"/>
  <path class="fil0" d="M51 181l5 -13c9,-21 19,-39 34,-56l17 -19c1,-1 1,-1 2,-2 1,-1 1,-2 2,-2l4 -5c2,-2 3,-3 5,-4 5,-5 19,-15 26,-19 12,-8 22,-13 35,-19 3,-2 9,-4 12,-6 0,-6 -4,-10 -10,-9 -11,0 -31,13 -40,19 -4,3 -8,5 -12,8 -14,9 -15,11 -28,21 -2,2 -4,3 -5,5 -5,4 -11,10 -15,14 -1,1 -2,2 -2,3l-14 15c-1,1 -2,2 -2,3l-5 5c-11,12 -13,30 -12,46l1 13 2 3z"/>
  <path class="fil0" d="M1006 183c1,13 -10,54 -15,63 -8,13 -33,36 -48,13 -18,-26 12,-97 63,-76zm4 98c2,-29 9,-60 15,-87 3,-14 15,-75 15,-84l-20 0 -10 55c-49,-13 -84,20 -91,62 -9,49 25,69 56,51 6,-3 17,-13 20,-19l-3 22 18 -1z"/>
  <path class="fil0" d="M495 119l-83 0 -31 163 84 0c4,-1 5,-13 5,-17l-66 0 11 -59 59 0 3 -17 -59 0 10 -52 63 0 3 -17z"/>
  <path class="fil0" d="M1191 124c-14,-5 -22,-10 -41,-8 -26,3 -47,20 -47,47 0,46 72,42 54,85 -4,10 -16,17 -29,19 -20,2 -25,-6 -39,-10l-6 16c7,8 25,11 38,11 55,1 72,-51 51,-77 -7,-9 -17,-14 -28,-21 -49,-29 1,-72 40,-46l7 -17z"/>
  <path class="fil0" d="M1292 220c-10,64 -77,63 -68,4 9,-61 77,-61 68,-4zm21 1c11,-80 -96,-79 -109,2 -13,82 97,81 109,-2z"/>
  <path class="fil0" d="M1730 226c-13,60 -79,55 -66,-5 13,-59 79,-55 66,5zm21 -4c5,-37 -17,-65 -54,-59 -28,4 -51,31 -55,60 -11,85 97,80 109,-1z"/>
  <path class="fil0" d="M1805 165l-17 1 -22 116c23,0 20,1 21,-6l10 -53c10,-44 49,-54 56,-32 3,9 0,21 -2,31 -4,20 -9,41 -11,61l20 0c3,-23 19,-80 13,-100 -5,-15 -19,-23 -38,-19 -21,4 -28,19 -34,23l2 -21z"/>
  <path class="fil0" d="M1476 165c-4,20 -7,41 -12,61 -9,43 -47,51 -55,32 -4,-10 -1,-22 1,-32 4,-18 9,-42 11,-60l-20 0c-4,21 -18,80 -13,98 9,32 51,25 71,-3l-3 21 18 0c4,-39 16,-78 21,-116l-20 0z"/>
  <path class="fil0" d="M722 214c3,-11 10,-23 17,-28 8,-6 24,-13 34,-4 5,4 6,12 3,19 -7,14 -43,15 -53,14zm57 46c-16,6 -41,15 -54,-2 -3,-3 -10,-23 -5,-28 2,-2 27,-2 32,-3 65,-9 51,-63 16,-66 -39,-3 -67,35 -68,73 -1,49 42,61 83,40l-3 -15z"/>
  <path class="fil0" d="M831 215c5,-28 36,-45 51,-32 13,11 1,37 -51,32zm-2 16c32,-2 76,-2 77,-36 1,-18 -10,-28 -26,-31 -67,-12 -103,109 -39,121 22,4 32,-3 49,-8 0,-5 -1,-11 -3,-15 -13,4 -28,12 -44,5 -11,-5 -18,-19 -15,-35z"/>
  <path class="fil0" d="M580 282c-3,-10 -11,-25 -15,-35 -14,-29 -15,-23 4,-44l22 -25c3,-3 9,-10 10,-13l-18 0c-11,0 -31,38 -39,43l-19 -43 -22 0 26 56 -25 30c-4,5 -9,10 -13,15 -4,5 -9,10 -12,15l23 0 35 -46 20 46 22 0z"/>
  <path class="fil0" d="M694 168c-85,-25 -119,79 -79,109 18,13 42,8 62,1l-2 -16c-14,4 -31,11 -45,1 -20,-14 -12,-59 14,-76 16,-10 26,-8 44,-3l5 -16z"/>
  <path class="fil0" d="M1972 168c-42,-21 -84,19 -60,49 6,7 12,10 19,15 20,13 11,35 -8,37 -12,1 -18,-3 -28,-6 0,0 0,1 -1,1l-5 14c19,7 35,12 55,0 12,-7 25,-26 15,-45 -9,-16 -32,-20 -34,-33 -2,-11 5,-18 13,-20 12,-3 19,1 28,4l5 -15z"/>
  <path class="fil0" d="M1561 137c-5,1 -16,4 -20,7 -4,5 -2,18 -7,21l-15 0 -3 16 16 0c-2,20 -9,45 -12,66 -2,13 -3,25 6,32 6,6 22,8 31,4 2,-1 2,-4 3,-7 0,-3 0,-6 0,-8 -11,0 -19,2 -20,-10 -1,-11 10,-64 13,-76l28 0 3 -15 -28 0 5 -28z"/>
  <path class="fil0" d="M1379 110c-3,0 -7,0 -10,0 -1,0 -4,0 -5,0 -3,0 -2,0 -4,1 -2,3 -31,154 -33,170l20 -1 32 -171z"/>
  <path class="fil0" d="M1603 282c4,-2 2,0 3,-6l21 -110 -20 0 -22 116 18 0z"/>
 </g>
</svg>
