<?xml version="1.0" standalone="no"?> <!DOCTYPE svg PUBLIC "-//W3C//DTD SVG 1.0//EN" "http://www.w3.org/TR/2001/REC-SVG-20010904/DTD/svg10.dtd" > <svg xmlns="http://www.w3.org/2000/svg" width="100%" height="100%">
<defs >
<font id="mgs45u" horiz-adv-x="406" ><font-face
    font-family="MagistralTT"
    units-per-em="1000"
    panose-1="2 0 0 3 3 0 0 2 0 4"
    ascent="1009"
    descent="-200"
    alphabetic="0" />
<missing-glyph horiz-adv-x="500" d="M50 0H450V512H50V0ZM58 8V504H442V8H58Z" />
<glyph unicode=" " glyph-name="space" horiz-adv-x="233" />
<glyph unicode="!" glyph-name="exclam" horiz-adv-x="194" d="M70 0H124V77H70V0ZM124 158V700H70V158H124Z" />
<glyph unicode="&quot;" glyph-name="quotedbl" horiz-adv-x="262" d="M50 513H104V700H50V513ZM158 513H212V700H158V513Z" />
<glyph unicode="#" glyph-name="numbersign" horiz-adv-x="800" d="M92 0H144L222 195H448L370 0H422L500 195H640L659 242H519L611 469H751L770 516H630L704 700H652L578 516H352L426 700H374L300 516H160L141 469H281L189 242H49L30 195H170L92 0ZM467 242H241L333
469H559L467 242Z" />
<glyph unicode="$" glyph-name="dollar" horiz-adv-x="650" d="M66 0H302V-68H346V0H428Q460 0 491 4T552 32Q585 60 592 95T600 163Q600 192 594 220T561 274Q550 284 538 292T513 307T492 317T478 323L346 373V653H566V700H346V768H302V700H203Q170 700 140
693T83 653Q60 624 55 595T50 543Q50 517 54 491T78 441Q92 424 111 414T150 395L302 338V47H66V0ZM346 47V321L472 273Q486 267 499 259T522 237T538 204T544 156Q544 138 541 118T523 80Q514 69 496 58T446 47H346ZM302 390L158 444Q140 451 130 462T115 487T108
515T106 541Q106 547 106 557T108 579T114 602T124 622Q131 631 148 642T197 653H302V390Z" />
<glyph unicode="%" glyph-name="percent" horiz-adv-x="681" d="M160 0H207L525 700H478L160 0ZM182 706Q174 706 162 705T138 701T112 692T88 675Q75 662 68 645T56 610T51 574T50 539Q50 523 51 505T56 468T67 433T88 403Q99 392 112 386T137 377T162 373T182
372Q190 372 202 373T226 377T252 386T276 403Q289 416 296 433T308 468T313 504T314 539Q314 555 313 573T308 610T297 645T276 675Q265 686 252 692T227 701T202 705T182 706ZM100 539Q100 588 106 609T120 639Q134 656 150 660T182 665Q197 665 213 661T244
639Q251 630 257 609T264 539Q264 490 258 469T244 439Q230 422 214 418T182 413Q167 413 151 417T120 439Q113 448 107 469T100 539ZM499 328Q491 328 479 327T455 323T429 314T405 297Q392 284 385 267T373 232T368 196T367 161Q367 145 368 127T373 90T384 55T405
25Q416 14 429 8T454 -1T479 -5T499 -6Q507 -6 519 -5T543 -1T569 8T593 25Q606 38 613 55T625 90T630 126T631 161Q631 177 630 195T625 232T614 267T593 297Q582 308 569 314T544 323T519 327T499 328ZM417 161Q417 187 420 214T439 261Q453 279 468 283T499
287Q514 287 529 283T559 261Q575 241 578 214T581 161Q581 135 578 108T559 61Q545 43 530 39T499 35Q484 35 469 39T439 61Q423 81 420 108T417 161Z" />
<glyph unicode="&amp;" glyph-name="ampersand" horiz-adv-x="632" d="M506 323H622V370H238Q209 370 180 379T134 406Q123 418 118 432T110 462T107 492T106 519Q106 529 106 543T109 573T118 603T136 629Q153 645 176 649T220 653H510V700H211Q166 700 138 688T92
659Q78 644 70 626T57 587T51 549T50 515Q50 484 55 451T79 392Q96 367 116 360T149 350V348Q124 343 104 331T72 301Q58 281 54 252T50 191Q50 157 55 119T88 47Q103 29 119 20T153 6T188 1T221 0H430Q436 0 444 0Q453 0 462 1T479 6T493 17Q498 22 502 34T506
76V323ZM412 47H220Q208 47 195 47T169 52T144 64T123 86Q110 106 108 131T106 181Q106 214 107 237T118 278Q121 284 127 292T144 306T168 318T203 323H457V80Q457 75 456 67T450 53T433 48T412 47Z" />
<glyph unicode="&apos;" glyph-name="quotesingle" horiz-adv-x="154" d="M50 513H104V700H50V513Z" />
<glyph unicode="(" glyph-name="parenleft" horiz-adv-x="324" d="M120 428Q120 460 124 499T148 572Q155 584 167 598T197 624T239 646T294 658V704Q253 701 215 687T149 650Q98 608 80 538Q72 503 71 468T70 402V148Q70 109 71 78T79 19Q87 -15 103 -44T149
-99Q173 -119 209 -135T294 -154V-108Q263 -106 239 -97T197 -75T167 -48T148 -22Q128 12 124 51T120 122V428Z" />
<glyph unicode=")" glyph-name="parenright" horiz-adv-x="324" d="M204 428V122Q204 90 200 51T176 -22Q169 -34 157 -48T127 -74T85 -96T30 -108V-154Q79 -152 115 -136T175 -99Q205 -74 221 -45T245 19Q251 47 252 78T254 148V402Q254 432 253 467T244 538Q226
608 175 650Q147 673 109 687T30 704V658Q61 656 85 647T127 625T157 598T176 572Q196 538 200 499T204 428Z" />
<glyph unicode="*" glyph-name="asterisk" horiz-adv-x="508" d="M233 252H275V440L437 346L458 382L296 476L458 570L437 606L275 512V700H233V512L71 606L50 570L212 476L50 382L71 346L233 440V252Z" />
<glyph unicode="+" glyph-name="plus" horiz-adv-x="566" d="M310 100V286H496V334H310V520H256V334H70V286H256V100H310Z" />
<glyph unicode="," glyph-name="comma" horiz-adv-x="194" d="M48 -86L144 75L96 104L0 -57L48 -86Z" />
<glyph unicode="-" glyph-name="hyphen" horiz-adv-x="400" d="M50 242H350V300H50V242Z" />
<glyph unicode="." glyph-name="period" horiz-adv-x="160" d="M110 0V87H50V0H110Z" />
<glyph unicode="/" glyph-name="slash" horiz-adv-x="468" d="M40 -163L478 740H428L-10 -163H40Z" />
<glyph unicode="0" glyph-name="zero" horiz-adv-x="610" d="M50 234Q50 211 53 184T65 130T91 78T136 33Q158 18 179 11T221 0T263 -3Q284 -3 305 -3Q326 -3 347 -3Q368 -3 389 0T431 10T474 33Q502 52 519 77T545 130T557 184T560 234V482Q560 518 553 545T535
594T512 629T490 652Q469 671 446 682T400 698T352 704T305 706Q282 706 258 705T211 698T164 682T120 652Q110 643 98 629T76 594T58 546T50 482V234ZM103 467Q103 479 104 498T112 539T132 583T168 622Q193 641 230 650T305 659Q343 659 380 650T442 622Q465
605 478 583T497 540T505 499T507 467V250Q507 210 502 169T466 93Q450 75 431 65T390 49T347 43T304 42Q283 42 262 43T220 49T180 64T144 93Q114 127 109 168T103 250V467Z" />
<glyph unicode="1" glyph-name="one" horiz-adv-x="209" d="M85 0H139V633Q139 646 137 661T121 687Q113 694 100 697T74 700H-10V652H61Q65 652 71 651T81 642Q83 637 84 627T85 612V0Z" />
<glyph unicode="2" glyph-name="two" horiz-adv-x="585" d="M102 0H495V48H115Q112 48 109 49T105 56Q105 60 118 70L456 338Q462 343 478 357T505 388Q525 417 530 451T535 517Q535 530 534 548T530 587T518 628T495 663Q482 676 468 683T437 694T406 699T375
700H102V652H380Q417 652 435 642T461 620Q471 606 475 582T479 514Q479 486 477 466T468 431T451 403T426 379L77 103Q60 89 55 76T50 48Q50 42 51 34T57 19T72 6T102 0Z" />
<glyph unicode="3" glyph-name="three" horiz-adv-x="564" d="M50 0H367Q395 0 423 6T475 39Q488 54 495 72T507 110T512 149T514 186Q514 198 513 214T509 249T498 284T479 316Q470 327 455 336T416 349V351Q439 353 455 363T480 384Q497 405 503 438T510 513Q510
562 503 595T479 652Q466 670 451 679T420 693T389 699T360 700H66V652H369Q384 652 401 647T432 623Q449 600 451 570T454 513Q454 484 451 454T429 404Q417 391 395 384T344 376H68V328H349Q373 328 393 321T425 303Q437 291 444 275T454 240T457 206T458 178Q458
169 458 154T454 122T444 90T423 64Q407 52 384 50T335 48H50V0Z" />
<glyph unicode="4" glyph-name="four" horiz-adv-x="610" d="M452 0H503V136H580V187H506V662Q506 676 504 683T499 695T488 704T467 708Q444 708 430 698T403 672L45 249Q34 237 27 222T20 193Q20 179 26 167T42 148Q54 139 70 138T97 136H452V0ZM454 187H95Q89
187 82 188T74 200Q74 206 89 224L439 641Q447 651 450 651Q454 651 454 647V187Z" />
<glyph unicode="5" glyph-name="five" horiz-adv-x="571" d="M50 0H366Q392 0 420 5T474 35Q490 50 499 70T513 113T519 159T521 202Q521 217 521 235T517 272T506 309T485 342Q460 371 432 377T377 383H171Q151 383 137 390T115 408Q109 417 107 430T105 463V615Q105
623 106 631T111 644Q113 647 120 649T132 652H494V700H123Q110 700 96 697T70 681Q61 672 56 658T51 628V443Q51 437 52 427T56 405T67 380T89 357Q110 341 139 338T189 335H378Q404 335 421 325T446 302Q452 293 458 273T465 209Q465 201 465 186T463 153T457
119T445 89Q439 78 421 63T368 48H50V0Z" />
<glyph unicode="6" glyph-name="six" horiz-adv-x="570" d="M104 414V525Q104 554 112 578T136 619Q158 642 184 647T229 653H486V700H218Q194 700 167 695T112 669Q102 661 91 649T71 619T56 577T50 521V191Q50 169 52 146T62 102T82 62T116 29Q144 10 174 5T230
0H332Q354 0 376 2T419 13T458 35T490 72Q511 106 515 142T520 209Q520 227 519 248T512 292T496 335T465 374Q433 402 401 408T337 414H104ZM104 370H324Q347 370 376 365T431 333Q443 320 449 305T459 274T463 244T464 217Q464 203 463 186T459 152T449 118T434
89Q423 75 409 67T382 55T355 50T332 49H228Q189 49 166 60T132 83Q122 94 117 108T108 136T105 161T104 179V370Z" />
<glyph unicode="7" glyph-name="seven" horiz-adv-x="465" d="M34 0H95L465 584Q469 590 477 607T485 647Q485 665 479 676T464 692T443 698T420 700H-20V652H410Q416 652 421 650T427 636Q427 634 426 627T415 605L34 0Z" />
<glyph unicode="8" glyph-name="eight" horiz-adv-x="586" d="M240 700Q228 700 211 700T176 696T141 685T109 664Q94 649 85 628T72 585T66 543T65 508Q65 496 65 481T69 450T78 418T97 388Q105 379 118 370T152 355V353Q137 351 120 344T89 325Q75 312 68 294T56
255T51 215T50 180Q50 147 54 115T79 56Q92 38 109 27T144 10T180 2T216 0H370Q387 0 405 2T442 10T476 27T507 56Q527 82 531 114T536 180Q536 195 535 215T530 255T518 293T497 325Q484 337 467 344T434 353V355Q454 360 467 369T489 388Q501 401 507 417T517
450T520 481T521 508Q521 522 520 542T515 585T501 628T477 664Q463 677 446 684T410 695T375 699T346 700H240ZM232 378Q222 378 209 379T184 384T159 395T138 416Q130 427 126 447T121 510Q121 520 122 536T126 570T137 604T156 631Q175 647 198 649T243 652H343Q364
652 387 650T430 631Q442 620 449 604T459 571T464 537T465 510Q465 468 461 448T448 416Q439 403 427 396T403 384T377 379T354 378H232ZM216 48Q175 48 155 61T128 83Q120 93 116 107T109 137T105 166T104 190Q104 198 104 213T109 246T121 280T143 308T178 324T220
330H366Q386 330 407 325T443 308T465 280T476 246T481 214T482 190Q482 181 481 167T478 137T471 108T458 83Q451 74 431 61T370 48H216Z" />
<glyph unicode="9" glyph-name="nine" horiz-adv-x="570" d="M91 0H341Q358 0 379 2T421 13T462 37T496 82Q512 114 516 152T520 228V514Q520 522 519 536T515 568T506 603T490 636Q475 658 454 671T410 690T365 698T324 700H247Q212 700 175 694T106 662Q86 645
75 623T59 577T52 532T50 493Q50 474 51 454T56 413T69 374T92 339T133 307T208 290H466V209Q466 197 465 181T461 146T451 111T432 82Q409 59 378 54T322 48H91V0ZM466 338H249Q223 338 194 341T141 368Q121 388 114 423T106 494Q106 524 112 558T142 617Q153
629 166 636T191 646T215 651T235 652H334Q356 652 384 647T434 618T461 565T466 513V338Z" />
<glyph unicode=":" glyph-name="colon" horiz-adv-x="180" d="M120 449V530H60V449H120ZM120 0V81H60V0H120Z" />
<glyph unicode=";" glyph-name="semicolon" horiz-adv-x="204" d="M48 -86L144 75L96 104L0 -57L48 -86ZM144 449V530H84V449H144Z" />
<glyph unicode="&lt;" glyph-name="less" horiz-adv-x="567" d="M70 331L497 116V170L166 331L497 492V546L70 331Z" />
<glyph unicode="=" glyph-name="equal" horiz-adv-x="566" d="M496 232V280H70V232H496ZM496 340V388H70V340H496Z" />
<glyph unicode="&gt;" glyph-name="greater" horiz-adv-x="567" d="M497 331L70 546V492L401 331L70 170V116L497 331Z" />
<glyph unicode="?" glyph-name="question" horiz-adv-x="437" d="M107 0H161V77H107V0ZM161 158V244Q161 254 164 263T172 280Q179 290 189 297T206 309L304 367Q323 378 340 391T369 422T389 467T397 531Q397 561 391 596T356 660Q330 687 301 693T241 700H10V652H234Q252
652 276 648T317 622Q326 612 330 599T337 573T340 547T341 524Q341 488 330 461T276 408L184 354Q155 337 142 324T126 306Q113 288 110 270T107 234V158H161Z" />
<glyph unicode="@" glyph-name="at" horiz-adv-x="973" d="M675 -148V-101H385Q363 -101 328 -97T256 -77T186 -27T136 66Q130 87 126 114T120 171T117 231T116 287Q116 336 118 371T123 433T130 476T138 506Q156 557 187 586T256 631T332 649T403 653H594Q625
653 657 650T721 634T779 600T825 538Q845 498 851 447T857 332Q857 292 857 263T855 213T850 176T843 148Q828 105 803 91T753 77Q721 77 705 92T681 128T672 171T671 207V443Q671 459 671 474T653 507Q638 522 622 525T586 528H456Q436 528 414 524T369 510T326
481T291 434Q273 397 269 356T264 275Q264 258 264 238T268 197T277 154T294 112Q319 67 359 49T454 30Q479 30 504 34T553 48T597 75T633 119Q640 87 656 69T691 43T726 32T749 30Q794 30 827 46T883 109Q903 150 908 203T913 323Q913 390 906 454T866 575Q839
621 803 646T728 684T653 698T589 700H408Q371 700 333 697T259 684T188 652T126 596Q103 567 90 535T70 465T62 383T60 286Q60 183 72 101T126 -40Q141 -61 163 -80T215 -115T284 -139T372 -148H675ZM619 448V271Q619 264 619 248T615 213T605 172T586 133Q573
114 557 103T525 86T491 79T457 77Q438 77 420 79T385 89T355 112T332 155Q329 165 325 192T320 277Q320 293 321 312T325 351T332 389T344 421Q355 442 370 454T404 473T440 480T476 482H579Q587 482 596 481T611 472Q619 462 619 448Z" />
<glyph unicode="A" glyph-name="A" horiz-adv-x="672" d="M-10 0H48L133 204H539L624 0H682L414 634Q402 662 385 685T336 708Q320 708 308 702T287 686T271 662T258 634L-10 0ZM307 618Q312 629 318 643T336 658Q347 658 353 644T365 618L518 252H154L307 618Z" />
<glyph unicode="B" glyph-name="B" horiz-adv-x="681" d="M124 328H483Q505 328 525 317T555 291Q560 283 563 270T569 243T572 214T573 187Q573 175 572 161T569 131T562 103T551 80Q542 67 530 61T505 51T479 48T456 47H177Q165 47 152 48T131 58Q128 62 126
70T124 101V328ZM124 612Q124 618 126 628T134 644Q140 651 148 651T164 652H467Q481 652 499 650T534 631Q538 627 543 620T554 599T562 566T566 518Q566 507 565 492T562 461T556 431T544 407Q527 385 501 381T452 376H124V612ZM530 352V356Q549 358 564 367T594
393Q614 419 619 449T624 511Q624 528 623 548T617 588T604 627T580 661Q565 677 539 688T475 700H152Q136 700 120 696T90 676Q80 664 75 646T70 608V90Q70 74 73 56T91 23Q111 3 136 2T180 0H489Q516 0 540 6T589 41Q605 59 613 77T626 113T630 151T631 189Q631
222 628 254T602 314Q592 326 574 337T530 352Z" />
<glyph unicode="C" glyph-name="C" horiz-adv-x="639" d="M619 0V48H348Q336 48 312 49T261 59T205 85T154 133Q137 157 128 184T114 239T109 292T108 339Q108 368 109 399T116 461T131 519T160 571Q182 599 209 615T263 639T317 650T363 652H608V700H340Q298
700 265 692T205 672T158 645T125 615Q99 588 85 555T62 486T52 413T50 340Q50 251 66 188T128 79Q140 67 158 54T201 28T260 8T337 0H619Z" />
<glyph unicode="D" glyph-name="D" horiz-adv-x="728" d="M416 0Q488 0 534 24T608 84Q632 114 646 150T667 222T676 295T678 362Q678 392 677 425T667 491T643 557T599 619Q571 647 541 663T484 688T435 698T398 700H160Q146 700 128 696T94 674Q77 656 74 637T70
600V77Q70 61 74 46T95 17Q110 5 130 3T168 0H416ZM124 614Q124 625 128 632T137 645Q144 650 151 651T165 652H401Q451 652 494 633T566 577Q584 554 595 529T611 477T618 422T620 366Q620 291 612 236T582 141Q565 110 544 92T499 64T454 51T414 48H163Q158 48
148 49T131 56Q124 63 124 92V614Z" />
<glyph unicode="E" glyph-name="E" horiz-adv-x="620" d="M580 0V48H179Q170 48 155 50T134 57T127 70T124 85V334H566V382H124V607Q124 612 125 623T135 642Q140 647 151 649T171 652H576V700H163Q143 700 124 696T90 674Q86 669 78 654T70 607V97Q70 77 73 57T92
21Q109 4 128 2T165 0H580Z" />
<glyph unicode="F" glyph-name="F" horiz-adv-x="574" d="M124 0V332H438V380H124V624Q124 629 125 635T130 646T138 651T148 652H554V700H152Q135 700 119 697T89 679Q81 671 76 659T70 629V0H124Z" />
<glyph unicode="G" glyph-name="G" horiz-adv-x="704" d="M654 321H600V92Q600 84 598 75T591 59Q584 51 575 50T558 48H300Q269 48 244 56T198 79T163 111T139 149Q136 155 131 168T121 206T112 265T108 350Q108 369 109 394T113 447T123 500T140 547Q163 593
210 622T323 652H638V700H338Q306 700 262 694T175 661Q133 636 108 600T70 523T54 436T50 346Q50 309 52 269T65 189T94 114T148 51Q177 28 216 14T301 0H572Q586 0 605 4T635 19Q649 32 651 50T654 78V321Z" />
<glyph unicode="H" glyph-name="H" horiz-adv-x="702" d="M632 700H578V380H124V700H70V0H124V332H578V0H632V700Z" />
<glyph unicode="I" glyph-name="I" horiz-adv-x="194" d="M124 0V700H70V0H124Z" />
<glyph unicode="J" glyph-name="J" horiz-adv-x="392" d="M-20 0H119Q174 0 211 21T268 64Q294 92 308 132T322 235V700H268V235Q268 197 260 158T222 90Q207 76 180 63T108 49H-20V0Z" />
<glyph unicode="K" glyph-name="K" horiz-adv-x="626" d="M656 0L269 298Q252 311 235 326T217 359Q217 367 222 374T234 388T248 400T261 410L619 700H541L213 436Q182 411 172 392T162 360Q162 346 174 324T224 271L575 0H656ZM70 0H124V700H70V0Z" />
<glyph unicode="L" glyph-name="L" horiz-adv-x="543" d="M563 0V48H162Q155 48 147 49T132 56Q126 62 125 69T124 82V700H70V64Q70 53 73 40T89 15T120 2T146 0H563Z" />
<glyph unicode="M" glyph-name="M" horiz-adv-x="932" d="M775 640Q778 647 783 654T794 661Q798 661 803 658T808 642V0H862V642Q862 671 844 689T796 708Q766 708 750 690T720 639L483 69Q481 63 478 55T466 47Q458 47 455 55T449 69L212 639Q198 671 182 689T136
708Q106 708 88 690T70 642V0H124V642Q124 654 129 657T138 661Q143 661 148 654T157 640L395 68Q409 36 424 14T466 -8Q493 -8 508 14T537 68L775 640Z" />
<glyph unicode="N" glyph-name="N" horiz-adv-x="732" d="M662 700H608V67Q608 62 607 56T595 49Q586 49 582 55T573 67L205 661Q194 679 180 693T136 708Q131 708 121 707T99 699T79 678T70 637V0H124V631Q124 644 130 647T139 651Q147 651 153 645T162 634L528
43Q545 16 559 4T598 -8Q630 -8 646 13T662 70V700Z" />
<glyph unicode="O" glyph-name="O" horiz-adv-x="780" d="M390 708Q360 708 327 706T259 697T193 674T133 632Q103 602 87 566T62 492T52 417T50 350Q50 320 52 283T62 208T86 134T133 68Q160 41 192 26T259 3T326 -6T390 -8Q420 -8 453 -7T521 2T587 25T647 68Q677
98 693 134T718 208T728 283T730 350Q730 380 728 417T718 492T694 566T647 632Q620 659 588 674T521 696T454 706T390 708ZM108 350Q108 380 109 413T116 477T134 539T168 593Q190 618 218 631T275 651T334 659T389 660Q414 660 443 659T502 652T559 632T610 593Q632
569 644 539T662 478T669 413T670 350Q670 320 669 287T662 223T644 161T610 107Q587 82 560 69T503 49T444 41T389 40Q364 40 335 41T276 48T218 68T168 107Q146 131 134 161T116 222T109 287T108 350Z" />
<glyph unicode="P" glyph-name="P" horiz-adv-x="681" d="M124 0V286H479Q505 286 530 294T573 316Q592 331 603 351T621 393T629 440T631 485Q631 554 620 595T578 663T514 694T445 700H156Q152 700 144 700T126 697T106 692T89 681Q75 667 73 649T70 617V0H124ZM124
334V609Q124 627 129 639T164 652H450Q488 652 510 642T544 620Q554 608 560 592T569 558T572 524T573 499Q573 489 573 472T570 435T562 397T546 366Q537 355 515 345T448 334H124Z" />
<glyph unicode="Q" glyph-name="Q" horiz-adv-x="781" d="M390 708Q360 708 327 706T259 697T193 674T133 632Q103 602 87 566T62 492T52 417T50 350Q50 321 52 285T62 209T86 133T133 68Q159 43 192 30T261 10T329 2T390 0H735V48H617V51Q631 59 649 74T684 116Q714
165 722 227T730 350Q730 380 728 417T718 492T694 566T647 632Q620 659 588 674T521 696T454 706T390 708ZM108 350Q108 381 109 413T116 477T134 538T168 593Q189 617 214 630T268 650T327 658T389 660Q420 660 450 659T509 650T563 630T610 593Q632 568 644
539T662 478T669 414T670 350Q670 321 669 289T662 224T644 161T610 107T560 72T502 54T443 47T389 46Q365 46 336 47T276 53T218 71T168 107T134 160T116 224T109 289T108 350Z" />
<glyph unicode="R" glyph-name="R" horiz-adv-x="701" d="M70 0H124V605Q124 614 126 623T138 641T156 650T174 652H460Q466 652 476 652T497 649T521 641T543 627Q555 616 561 601T571 567T575 531T576 496Q576 441 571 414T557 372T530 346T485 333H268Q257
333 251 327T244 310V294Q244 283 249 277T263 264L572 0H651L323 278V283H478Q494 283 511 285T544 295T576 314T603 344Q625 379 629 418T634 490Q634 529 629 569T603 640Q590 659 574 671T539 689T503 698T470 700H175Q155 700 136 696T99 676Q78 657 74 637T70
593V0Z" />
<glyph unicode="S" glyph-name="S" horiz-adv-x="646" d="M61 0H450Q463 0 478 1T507 7T536 21T562 46Q575 63 582 83T592 122T595 154T596 170Q596 196 588 227T553 283Q535 300 509 312T451 335L179 431Q154 440 140 452T118 479T110 509T108 542Q108 560 110
584T129 625Q142 639 162 645T202 652H563V700H208Q166 700 139 689T97 665Q65 638 58 605T50 544Q50 515 56 486T85 431Q99 414 122 401T171 379L450 283Q479 273 496 260T523 233T535 202T538 168Q538 131 531 108T513 72T487 53T456 48H61V0Z" />
<glyph unicode="T" glyph-name="T" horiz-adv-x="600" d="M327 0V652H620V700H-20V652H273V0H327Z" />
<glyph unicode="U" glyph-name="U" horiz-adv-x="676" d="M338 40Q315 40 290 41T242 48T197 65T160 95Q147 110 140 128T129 165T125 202T124 237V700H70V218Q70 200 72 180T79 140T94 101T120 63Q142 38 171 24T230 3T288 -6T338 -8Q359 -8 387 -6T445 3T504
24T556 63Q587 98 596 139T606 218V700H552V237Q552 221 552 203T548 165T537 128T516 95Q500 76 479 65T435 49T386 42T338 40Z" />
<glyph unicode="V" glyph-name="V" horiz-adv-x="608" d="M41 700H-20L243 38Q249 21 258 12T276 -1T293 -7T304 -8Q330 -8 345 8T365 38L628 700H567L321 61Q317 51 313 49T304 46Q300 46 296 48T287 61L41 700Z" />
<glyph unicode="W" glyph-name="W" horiz-adv-x="900" d="M229 62Q227 54 221 49T210 44Q201 44 198 52T193 66L35 700H-20L146 51Q156 14 174 3T212 -8Q230 -8 242 -2T262 13T274 33T282 56L434 631Q435 635 438 643T450 651Q458 651 461 643T466 631L618 56Q621
45 625 34T638 13T658 -2T688 -8Q708 -8 726 3T754 51L920 700H865L707 66Q706 61 703 53T690 44Q685 44 679 49T671 62L521 640Q518 650 514 661T501 683T481 701T450 708Q432 708 420 701T399 684T387 662T379 640L229 62Z" />
<glyph unicode="X" glyph-name="X" horiz-adv-x="560" d="M580 0L309 355L572 700H508L280 394L52 700H-12L251 355L-20 0H44L280 316L516 0H580Z" />
<glyph unicode="Y" glyph-name="Y" horiz-adv-x="594" d="M297 279L40 700H-20L270 230V0H324V230L614 700H554L297 279Z" />
<glyph unicode="Z" glyph-name="Z" horiz-adv-x="578" d="M554 0V48H79Q67 48 67 60Q67 71 77 81L544 591Q552 600 560 613T568 646Q568 672 550 686T505 700H34V652H492Q496 652 503 650T511 637Q511 632 508 624T499 611L34 109Q24 98 17 84T10 56Q10 49 12
40T22 21T44 6T82 0H554Z" />
<glyph unicode="[" glyph-name="bracketleft" horiz-adv-x="324" d="M120 658H294V704H70V-154H294V-108H120V658Z" />
<glyph unicode="\" glyph-name="backslash" horiz-adv-x="468" d="M428 -163H478L40 740H-10L428 -163Z" />
<glyph unicode="]" glyph-name="bracketright" horiz-adv-x="324" d="M204 -108H30V-154H253L254 704H30V658H204V-108Z" />
<glyph unicode="^" glyph-name="asciicircum" horiz-adv-x="452" d="M394 514L422 549L265 683Q258 689 249 694T226 700Q213 700 204 695T187 683L30 549L58 514L205 643Q209 646 214 649T226 652Q233 652 238 649T247 643L394 514Z" />
<glyph unicode="_" glyph-name="underscore" horiz-adv-x="592" d="M50 0H542V58H50V0Z" />
<glyph unicode="`" glyph-name="grave" horiz-adv-x="214" d="M61 699L30 660L153 560L184 599L61 699Z" />
<glyph unicode="a" glyph-name="a" horiz-adv-x="505" d="M70 530V483H327Q346 483 360 476T383 459Q393 447 398 428T403 396V317H173Q150 317 123 312T74 289Q45 265 38 231T30 164Q30 152 31 134T37 96T51 57T77 24Q99 7 124 4T173 0H377Q391 0 408 2T437 15Q450
27 452 43T455 70V387Q455 411 450 440T423 493Q407 510 382 520T330 530H70ZM402 270V71Q402 66 401 62T395 53T384 48T372 47H159Q142 47 129 53T107 70Q93 87 90 112T86 162Q86 190 89 210T103 244Q109 252 123 261T161 270H402Z" />
<glyph unicode="b" glyph-name="b" horiz-adv-x="515" d="M271 0Q292 0 316 3T365 15T412 41T451 87Q472 123 478 167T485 258Q485 310 479 358T450 443Q433 472 411 489T363 515T314 527T268 530H102V700H50V83Q50 69 54 50T75 16Q89 5 111 3T157 0H271ZM102
483H264Q283 483 303 481T344 471T381 448T409 407Q412 401 415 390T422 360T428 312T431 243Q431 212 428 179T408 117Q394 92 375 78T336 57T295 49T260 47H139Q132 47 123 48T108 56T103 71T102 88V483Z" />
<glyph unicode="c" glyph-name="c" horiz-adv-x="475" d="M445 0V47H259Q241 47 219 49T174 60T134 84T103 126Q98 138 94 154T88 187T85 220T84 251Q84 263 84 279T86 313T90 346T95 375Q110 431 152 457T248 483H433V530H254Q192 530 152 512T89 471Q69 450
57 424T39 370T32 314T30 258Q30 235 31 211T36 161T50 112T77 67Q86 56 99 45T132 23T176 7T233 0H445Z" />
<glyph unicode="d" glyph-name="d" horiz-adv-x="512" d="M462 77V700H410V530H249Q228 530 204 528T155 517T109 493T69 451Q43 411 37 367T30 279Q30 208 37 169T53 107Q67 71 88 50T134 18T182 4T225 0H390Q403 0 420 2T448 19Q456 29 459 45T462 77ZM410 483V92Q410
84 409 72T402 55Q396 49 386 48T370 47H237Q220 47 201 49T163 60T127 85T100 129Q97 137 94 148T89 175T86 215T84 271Q84 310 88 350T111 423Q123 442 138 454T171 472T205 481T237 483H410Z" />
<glyph unicode="e" glyph-name="e" horiz-adv-x="517" d="M473 0V47H213Q187 47 167 55T133 77T109 106T95 139Q89 160 87 192T86 247H409Q420 247 436 249T465 263Q479 276 483 295T487 330Q487 394 462 435T402 498Q370 517 333 522T267 528Q227 528 182 520T101
481Q76 460 62 434T40 378T32 319T30 261Q30 202 36 154T73 65Q105 24 142 12T213 0H473ZM86 294Q87 332 91 361T111 417Q125 440 142 453T178 472T218 479T258 481Q276 481 294 480T330 475T364 461T395 435Q407 420 414 404T425 372T430 345T431 327Q431 324
431 318Q431 313 429 308T423 298T409 294H86Z" />
<glyph unicode="f" glyph-name="f" horiz-adv-x="265" d="M132 0V481H275V530H132Q130 561 139 589T166 632Q175 640 189 645T218 653T248 657T275 658V706Q257 706 237 705T195 698T155 683T121 659Q107 645 99 629T87 595T81 560T79 529H10V481H79V0H132Z" />
<glyph unicode="g" glyph-name="g" horiz-adv-x="540" d="M436 0Q435 -22 426 -47T398 -90Q385 -102 368 -108T333 -118T301 -122T279 -123H67V-170H279Q291 -170 312 -169T358 -161T405 -143T447 -111Q474 -79 482 -34T490 61V437Q490 454 485 475T459 511Q442
524 421 527T378 530H246Q197 530 159 520T88 476Q68 455 57 430T39 380T32 328T30 278Q30 255 31 228T36 172T49 118T71 69Q86 45 105 31T146 10T189 2T233 0H436ZM438 47H230Q219 47 205 47Q192 47 178 50T151 60T125 81Q113 94 106 114T93 158T86 211T84 268Q84
290 85 314T90 363T104 408T129 446Q142 459 156 466T183 477T208 482T227 483H391Q399 483 407 482T423 475Q433 468 435 460T438 440V47Z" />
<glyph unicode="h" glyph-name="h" horiz-adv-x="515" d="M50 0H102V483H301Q323 483 345 478T387 451Q405 430 409 403T413 358V0H465V352Q465 392 457 428T419 492Q396 513 366 521T296 530H102V700H50V0Z" />
<glyph unicode="i" glyph-name="i" horiz-adv-x="156" d="M52 0H104V530H52V0ZM106 626V700H50V626H106Z" />
<glyph unicode="j" glyph-name="j" horiz-adv-x="258" d="M-10 -178Q4 -180 23 -180Q43 -180 64 -177T106 -167T146 -145Q166 -129 178 -111T196 -75T204 -39T206 -9V530H154V1Q154 -43 144 -65T113 -103Q94 -118 67 -125T-10 -130V-178ZM208 626V700H152V626H208Z" />
<glyph unicode="k" glyph-name="k" horiz-adv-x="459" d="M469 0L225 226Q216 234 206 247T196 276Q196 289 202 298T215 314L445 530H375L183 350Q167 335 155 316T142 274Q142 251 155 230T182 198L397 0H469ZM102 0V700H50V0H102Z" />
<glyph unicode="l" glyph-name="l" horiz-adv-x="152" d="M50 0H102V700H50V0Z" />
<glyph unicode="m" glyph-name="m" horiz-adv-x="816" d="M50 0H102V446Q102 454 102 461T108 474Q113 480 120 481T134 483H382V0H434V483H613Q630 483 652 479T692 457Q706 441 710 420T714 381V0H766V377Q766 410 758 442T725 497Q704 516 675 523T614 530H122Q111
530 93 526T62 501Q54 488 52 472T50 441V0Z" />
<glyph unicode="n" glyph-name="n" horiz-adv-x="518" d="M50 0H102V463Q102 466 102 471T105 479T111 482T119 483H307Q333 483 354 477T393 450Q407 433 411 411T416 355V0H468V368Q468 423 454 451T427 491Q403 515 373 522T304 530H114Q102 530 88 527T62
510Q54 499 52 486T50 461V0Z" />
<glyph unicode="o" glyph-name="o" horiz-adv-x="584" d="M292 536Q267 536 241 534T189 526T139 509T96 478Q74 457 61 430T41 373T32 315T30 262Q30 239 31 212T40 158T60 103T96 54Q118 33 144 21T197 3T249 -4T292 -6Q310 -6 334 -5T386 3T439 21T488 54Q513
79 533 130T554 268Q554 290 552 317T543 373T523 429T488 478Q468 497 445 508T396 526T344 534T292 536ZM86 263Q86 280 86 303T91 351T103 399T128 440Q143 457 163 466T206 481T251 487T292 489Q311 489 333 488T377 481T420 467T456 440Q472 422 480 399T493
352T497 304T498 263Q498 247 498 225T493 180T480 133T455 92Q439 75 420 65T378 49T334 43T292 41Q272 41 250 42T206 49T165 64T129 92Q112 110 104 133T91 179T87 225T86 263Z" />
<glyph unicode="p" glyph-name="p" horiz-adv-x="511" d="M102 0H252Q277 0 303 2T354 13T401 36T440 79Q468 121 474 172T481 273Q481 296 480 321T473 373T457 423T426 469Q416 479 402 490T369 510T324 524T268 530H134Q123 530 107 528T75 514Q69 509 60 497T50
464V-170H102V0ZM102 47V457Q102 462 103 466T110 476Q113 478 117 480T126 483H279Q316 483 351 466T407 406Q421 375 424 338T427 266Q427 223 422 181T396 107Q384 89 369 78T337 59T304 50T273 47H102Z" />
<glyph unicode="q" glyph-name="q" horiz-adv-x="516" d="M466 -170V441Q466 457 465 473T453 504Q448 511 434 520T391 530H223Q167 530 134 512T83 473Q64 450 54 422T38 364T31 307T30 259Q30 240 31 216T36 166T48 115T69 70Q86 44 107 30T149 9T187 1T214
0H414V-170H466ZM414 47H221Q185 47 162 58T126 85T106 115T97 140Q92 157 88 186T84 264Q84 321 89 353T103 404Q121 450 153 466T235 483H375Q382 483 389 482T403 476T412 464T414 451V47Z" />
<glyph unicode="r" glyph-name="r" horiz-adv-x="253" d="M50 0H102V336Q102 368 107 397T129 446Q151 471 180 477T231 483H263V530H227Q173 530 144 517T97 487Q67 458 59 424T50 348V0Z" />
<glyph unicode="s" glyph-name="s" horiz-adv-x="502" d="M38 0H344Q359 0 383 3T427 20Q443 31 452 47T465 79T471 109T472 133Q472 159 466 182T435 225Q412 243 377 253T294 275L198 297Q191 298 179 301T153 309T127 320T107 333Q90 348 87 368T84 402Q84
419 87 436T104 465Q118 478 135 480T163 483H438V530H184Q147 530 114 523T56 484Q45 470 38 449T30 398Q30 344 58 310Q68 298 83 289T114 272T148 260T180 251L272 230Q321 219 351 211T397 188Q410 176 414 162T418 133Q418 119 415 101T404 72Q398 64 384
56T342 47H38V0Z" />
<glyph unicode="t" glyph-name="t" horiz-adv-x="277" d="M287 0V47H259Q214 47 194 50T165 60Q153 69 147 83T138 116T135 153Q135 172 135 189V483H281V530H135V700H83V530H10V483H83V178Q83 130 88 93T119 31Q131 19 146 13T178 3T212 0Q230 0 247 0H287Z" />
<glyph unicode="u" glyph-name="u" horiz-adv-x="522" d="M472 84V530H420V91Q420 85 419 76T410 58Q404 52 395 50T375 47H228Q196 47 168 53T123 82Q115 93 109 113T102 176V530H50V160Q50 147 51 132T56 100T69 67T94 36Q120 13 150 7T223 0H367Q389 0 410
2T447 16Q464 30 468 49T472 84Z" />
<glyph unicode="v" glyph-name="v" horiz-adv-x="458" d="M43 530H-10L174 40Q185 11 199 3T229 -6Q244 -6 258 2T284 40L468 530H415L244 65Q242 60 238 52T229 43Q225 43 221 51T214 65L43 530Z" />
<glyph unicode="w" glyph-name="w" horiz-adv-x="686" d="M42 529H-10L120 38Q125 21 135 8T171 -6Q186 -6 195 -1T211 11T220 25T225 39L335 453Q336 458 338 464T343 471Q346 471 348 465T351 453L461 39Q462 33 465 26T475 11T490 -1T515 -6Q540 -6 550 7T566
38L696 529H644L525 66Q523 61 521 56T514 50Q509 50 507 56T504 65L391 492Q383 520 369 528T343 536Q331 536 317 528T295 492L182 65Q181 63 179 57T172 50Q168 50 166 55T161 66L42 529Z" />
<glyph unicode="x" glyph-name="x" horiz-adv-x="430" d="M440 0L244 272L431 530H370L215 311L60 530H-1L187 272L-10 0H53L215 233L377 0H440Z" />
<glyph unicode="y" glyph-name="y" horiz-adv-x="496" d="M506 528H450L242 65L46 530H-10L214 3L134 -171H190L506 528Z" />
<glyph unicode="z" glyph-name="z" horiz-adv-x="441" d="M85 0H421V48H85Q82 48 79 48Q76 48 76 53Q76 58 79 61T84 67L403 444Q410 452 415 464T420 487Q420 502 409 516T374 530H35V484H350Q352 484 356 483T360 475Q360 470 357 467T352 460L46 100Q38 91
29 77T20 45Q20 30 27 21T43 8T64 2T85 0Z" />
<glyph unicode="{" glyph-name="braceleft" horiz-adv-x="296" d="M113 288Q127 293 135 302T146 323T151 346T152 370V508Q152 521 153 538T158 572T171 607T197 637Q209 647 226 653T266 658V704Q246 705 225 700T181 681Q160 667 146 651T124 617T111 582T105
549Q105 545 105 537T104 518T103 498T102 482V355Q102 329 86 317T50 303V265Q70 263 86 251T102 213V86Q102 80 102 70T103 50T104 32T105 19Q106 4 110 -13T123 -48T146 -83T181 -113Q204 -127 225 -132T266 -136V-90Q243 -92 226 -86T197 -69Q180 -56 171 -39T158
-5T153 30T152 60V198Q152 209 151 221T147 245T135 265T113 280V288Z" />
<glyph unicode="|" glyph-name="bar" horiz-adv-x="150" d="M50 -163H100V740H50V-163Z" />
<glyph unicode="}" glyph-name="braceright" horiz-adv-x="296" d="M203 288V280Q189 275 181 266T169 245T165 222T164 198V60Q164 47 163 30T158 -4T145 -39T119 -69Q107 -79 90 -85T50 -90V-136Q70 -137 91 -132T135 -113Q156 -100 170 -83T192 -49T205 -14T211
19Q211 23 211 31T212 50T213 70T214 86V213Q214 239 230 251T266 265V303Q246 305 230 317T214 355V482Q214 488 214 498T213 518T212 536T211 549Q209 564 205 581T193 616T170 650T135 681Q112 695 91 700T50 704V658Q73 660 90 654T119 637Q135 624 144 607T158
573T163 538T164 508V370Q164 359 164 347T169 323T181 303T203 288Z" />
<glyph unicode="~" glyph-name="asciitilde" horiz-adv-x="533" d="M65 285Q74 299 88 314T119 339Q136 349 150 351T168 353Q191 353 209 344T243 326L288 300Q307 289 323 284T362 279Q386 279 405 285T445 305Q462 317 477 333T503 367L468 398Q460 384 449
371T425 348Q399 327 367 327Q345 327 329 334T299 349L245 381Q232 389 215 395T171 401Q147 401 127 394T89 376T57 349T30 317L65 285Z" />
</font>
</defs>
</svg>
